<?xml version="1.0" encoding="UTF-8" standalone="no"?>
<!DOCTYPE svg PUBLIC "-//W3C//DTD SVG 1.1//EN" "http://www.w3.org/Graphics/SVG/1.1/DTD/svg11.dtd">
<!-- Generated by Microsoft Visio, SVG Export Account.svg Account -->
<svg xmlns="http://www.w3.org/2000/svg" xmlns:xlink="http://www.w3.org/1999/xlink" xmlns:ev="http://www.w3.org/2001/xml-events"
		xmlns:v="http://schemas.microsoft.com/visio/2003/SVGExtensions/" width="19.685in" height="19.685in"
		viewBox="0 0 1417.32 1417.32" xml:space="preserve" color-interpolation-filters="sRGB" class="st2">
	<v:documentProperties v:langID="1033" v:metric="true" v:viewMarkup="false">
		<v:userDefs>
			<v:ud v:nameU="msvNoAutoConnect" v:val="VT0(1):26"/>
		</v:userDefs>
	</v:documentProperties>

	<style type="text/css">
	<![CDATA[
		.st1 {fill:#a0968c;stroke:none;stroke-linecap:butt;stroke-width:0.75}
		.st2 {fill:none;fill-rule:evenodd;font-size:12px;overflow:visible;stroke-linecap:square;stroke-miterlimit:3}
	]]>
	</style>

	<g v:mID="48" v:index="1" v:groupContext="foregroundPage">
		<title>Account</title>
		<v:pageProperties v:drawingScale="0.0393701" v:pageScale="0.0393701" v:drawingUnits="24" v:shadowOffsetX="9"
				v:shadowOffsetY="-9"/>
		<g id="shape2-1" v:mID="2" v:groupContext="shape" transform="translate(359.656,0)">
			<title>Account</title>
			<path d="M349.01 0 C156.26 0 0 156.26 0 349.01 C0 495.95 91 621.56 219.56 673.02 L219.56 1286.24 L350.64 1417.32 L478.45
						 1289.52 L478.45 1210.05 L408.4 1140 L478.45 1069.96 L478.45 1069.14 L411.68 1002.37 L478.45 935.6 L478.45
						 875.79 L414.96 812.3 L478.45 748.81 L478.45 673.02 C607.13 621.62 698.01 496.03 698.01 349.01 C698.01 156.26
						 541.76 0 349.01 0 ZM349.01 112.65 C403.68 112.65 448.14 157.11 448.14 211.78 C448.14 266.45 403.68 310.91
						 349.01 310.91 C294.33 310.91 249.87 266.45 249.87 211.78 C249.87 157.11 294.33 112.65 349.01 112.65 Z"
					class="st1"/>
		</g>
	</g>
</svg>
