<?xml version="1.0" encoding="UTF-8" standalone="no"?>
<!DOCTYPE svg PUBLIC "-//W3C//DTD SVG 1.1//EN" "http://www.w3.org/Graphics/SVG/1.1/DTD/svg11.dtd">
<!-- Generated by Microsoft Visio, SVG Export BasePlan.svg Base Plan -->
<svg xmlns="http://www.w3.org/2000/svg" xmlns:xlink="http://www.w3.org/1999/xlink" xmlns:ev="http://www.w3.org/2001/xml-events"
		xmlns:v="http://schemas.microsoft.com/visio/2003/SVGExtensions/" width="19.685in" height="19.685in"
		viewBox="0 0 1417.32 1417.32" xml:space="preserve" color-interpolation-filters="sRGB" class="st2">
	<v:documentProperties v:langID="1033" v:metric="true" v:viewMarkup="false">
		<v:userDefs>
			<v:ud v:nameU="msvNoAutoConnect" v:val="VT0(1):26"/>
		</v:userDefs>
	</v:documentProperties>

	<style type="text/css">
	<![CDATA[
		.st1 {fill:#a0968c;stroke:none;stroke-linecap:butt;stroke-width:0.542113}
		.st2 {fill:none;fill-rule:evenodd;font-size:12px;overflow:visible;stroke-linecap:square;stroke-miterlimit:3}
	]]>
	</style>

	<g v:mID="31" v:index="4" v:groupContext="foregroundPage">
		<title>Base Plan</title>
		<v:pageProperties v:drawingScale="0.0393701" v:pageScale="0.0393701" v:drawingUnits="24" v:shadowOffsetX="9"
				v:shadowOffsetY="-9"/>
		<g id="shape3-1" v:mID="3" v:groupContext="shape" transform="translate(1417.32,120.594) rotate(90)">
			<title>Base Plan</title>
			<path d="M694.93 0.69 C644.14 2.56 587.16 19.58 556.77 56.04 C512.56 150.23 619.95 106.74 632.59 171.95 C645.22 237.16
						 569.41 240.77 569.41 240.77 L242.75 240.77 L242.75 572.12 C241.85 582.58 234.28 643.02 174.46 631.44 C109.25
						 618.81 152.74 511.52 58.54 555.73 C27.78 581.38 10.84 625.83 5.18 669.66 C5.09 670.34 4.95 671.06 4.87 671.75
						 C1.64 687.16 0 704.79 0.69 723.54 C2.56 774.33 19.58 831.31 56.04 861.7 C150.23 905.91 106.74 798.52 171.95
						 785.89 C237.16 773.26 240.77 849.07 240.77 849.07 L242.75 1175.61 L582.25 1175.61 C602.97 1179.68 643.21
						 1193.96 633.73 1242.86 C621.1 1308.08 513.82 1264.58 558.02 1358.78 C583.67 1389.55 628.13 1406.48 671.96
						 1412.14 C672.64 1412.23 673.36 1412.37 674.04 1412.46 C689.46 1415.69 707.09 1417.32 725.84 1416.63 C776.63
						 1414.76 833.61 1397.74 864 1361.29 C908.21 1267.09 800.81 1310.58 788.18 1245.37 C775.55 1180.16 851.36
						 1176.55 851.36 1176.55 L1176.13 1175.61 C1176.13 1175.61 1174.05 847.29 1174.05 847.29 C1174.05 847.29 1170.44
						 771.48 1105.23 784.11 C1040.02 796.74 1083.51 904.13 989.31 859.93 C952.86 829.53 935.84 772.56 933.97 721.77
						 C933.28 703.02 934.91 685.38 938.14 669.97 C938.23 669.29 938.37 668.57 938.46 667.88 C944.12 624.06 961.05
						 579.6 991.82 553.95 C1086.01 509.74 1042.52 617.03 1107.73 629.66 C1168.58 641.45 1175.44 578.4 1176.13
						 569.62 L1176.13 240.77 L834.76 240.77 C813.35 235.82 778.07 220.75 787.04 174.46 C799.67 109.25 906.95 152.74
						 862.75 58.54 C837.09 27.78 792.64 10.84 748.81 5.18 C748.13 5.09 747.41 4.95 746.73 4.87 C731.31 1.64 713.68
						 0 694.93 0.69 L694.93 0.69 Z" class="st1"/>
		</g>
	</g>
</svg>
