<?xml version="1.0" encoding="UTF-8" standalone="no"?>
<!DOCTYPE svg PUBLIC "-//W3C//DTD SVG 1.1//EN" "http://www.w3.org/Graphics/SVG/1.1/DTD/svg11.dtd">
<!-- Generated by Microsoft Visio, SVG Export Bundle.svg Bundle -->
<svg xmlns="http://www.w3.org/2000/svg" xmlns:xlink="http://www.w3.org/1999/xlink" xmlns:ev="http://www.w3.org/2001/xml-events"
		xmlns:v="http://schemas.microsoft.com/visio/2003/SVGExtensions/" width="19.685in" height="19.685in"
		viewBox="0 0 1417.32 1417.32" xml:space="preserve" color-interpolation-filters="sRGB" class="st2">
	<v:documentProperties v:langID="1033" v:metric="true" v:viewMarkup="false">
		<v:userDefs>
			<v:ud v:nameU="msvNoAutoConnect" v:val="VT0(1):26"/>
		</v:userDefs>
	</v:documentProperties>

	<style type="text/css">
	<![CDATA[
		.st1 {fill:#a0968c;stroke:none;stroke-linecap:butt;stroke-width:1.30302}
		.st2 {fill:none;fill-rule:evenodd;font-size:12px;overflow:visible;stroke-linecap:square;stroke-miterlimit:3}
	]]>
	</style>

	<g v:mID="22" v:index="3" v:groupContext="foregroundPage">
		<title>Bundle</title>
		<v:pageProperties v:drawingScale="0.0393701" v:pageScale="0.0393701" v:drawingUnits="24" v:shadowOffsetX="9"
				v:shadowOffsetY="-9"/>
		<g id="shape4-1" v:mID="4" v:groupContext="shape" transform="translate(0.561722,-58.9974)">
			<title>Bundle</title>
			<path d="M611.12 118.24 A21.131 21.131 -180 0 0 605.8 119.76 L60.05 366.04 A21.131 21.131 -180 0 0 57.01 402.52 L267.55
						 541.62 L18.24 572.78 A21.131 21.131 -180 0 0 9.12 611.55 L278.96 782.57 L272.11 1117.01 A21.131 21.131 -180
						 0 0 281.24 1135.25 L684.85 1411.16 L685.6 1411.92 A21.131 21.131 -180 0 0 686.36 1412.68 L687.88 1413.44
						 A21.131 21.131 -180 0 0 690.16 1414.96 A21.131 21.131 -180 0 0 691.68 1415.72 A21.131 21.131 -180 0 0 693.96
						 1416.48 A21.131 21.131 -180 0 0 695.48 1417.24 A21.131 21.131 -180 0 0 696.24 1417.24 A21.131 21.131 -180
						 0 0 697.76 1417.24 A21.131 21.131 -180 0 0 698.52 1417.24 A21.131 21.131 -180 0 0 702.32 1417.24 A21.131
						 21.131 -180 0 0 706.12 1416.48 A21.131 21.131 -180 0 0 708.4 1415.72 A21.131 21.131 -180 0 0 709.16 1414.96
						 L709.92 1414.96 A21.131 21.131 -180 0 0 713.72 1412.68 L1147.73 1212.02 A21.131 21.131 -180 0 0 1159.89
						 1193.01 L1159.89 841.85 L1405.4 708.83 A21.131 21.131 -180 0 0 1402.36 670.07 L1175.1 587.98 L1345.36 473.97
						 A21.131 21.131 -180 0 0 1345.36 438.24 L909.82 152.45 A21.131 21.131 -180 0 0 881.71 157.01 L745.65 321.19
						 L632.4 128.13 A21.131 21.131 -180 0 0 611.12 118.24 ZM605.8 166.13 L712.21 348.55 L314.68 522.61 L112.5
						 388.08 L605.8 166.13 ZM902.23 198.81 L1295.2 456.49 L1127.98 568.22 L782.14 343.99 L902.23 198.81 ZM768.46
						 385.04 L1086.18 591.78 L759.33 754.44 L768.46 385.04 ZM725.89 388.08 L716.01 775.73 L711.45 778.77 L352.68
						 552.26 L725.89 388.08 ZM314.68 578.1 L315.44 578.1 L671.16 803.85 L534.35 894.3 L315.44 755.96 A21.131 21.131
						 -180 0 0 314.68 755.2 L313.92 754.45 A21.131 21.131 -180 0 0 310.88 752.93 L308.6 751.41 L81.33 606.99 L302.52
						 579.62 L314.68 578.1 L314.68 578.1 ZM1128.74 616.87 L1344.61 693.64 L1134.06 808.41 L1131.78 809.17 A21.131
						 21.131 -180 0 0 1127.98 810.69 L1126.46 811.45 A21.131 21.131 -180 0 0 1124.94 812.97 L904.51 932.3 L741.85
						 812.97 A21.131 21.131 -180 0 0 741.85 812.21 A21.131 21.131 -180 0 0 754.78 803.85 L1128.74 616.86 L1128.74
						 616.87 ZM320 809.17 L522.95 937.63 A21.131 21.131 -180 0 0 545.75 937.63 L688.65 841.85 L679.53 1356.44
						 L314.68 1107.13 L320 809.17 ZM731.21 857.06 L890.83 974.11 A21.131 21.131 -180 0 0 913.63 975.63 L1117.34
						 865.42 L1117.34 1178.58 L722.09 1362.52 L731.21 857.06 Z" class="st1"/>
		</g>
	</g>
</svg>
