<?xml version="1.0" encoding="UTF-8" standalone="no"?>
<!DOCTYPE svg PUBLIC "-//W3C//DTD SVG 1.1//EN" "http://www.w3.org/Graphics/SVG/1.1/DTD/svg11.dtd">
<!-- Generated by Microsoft Visio, SVG Export CallFreebees.svg Call Freebees -->
<svg xmlns="http://www.w3.org/2000/svg" xmlns:xlink="http://www.w3.org/1999/xlink" xmlns:ev="http://www.w3.org/2001/xml-events"
		xmlns:v="http://schemas.microsoft.com/visio/2003/SVGExtensions/" width="19.685in" height="19.685in"
		viewBox="0 0 1417.32 1417.32" xml:space="preserve" color-interpolation-filters="sRGB" class="st2">
	<v:documentProperties v:langID="1033" v:metric="true" v:viewMarkup="false">
		<v:userDefs>
			<v:ud v:nameU="msvNoAutoConnect" v:val="VT0(1):26"/>
		</v:userDefs>
	</v:documentProperties>

	<style type="text/css">
	<![CDATA[
		.st1 {fill:#a0968c;stroke:none;stroke-linecap:butt;stroke-width:0.75}
		.st2 {fill:none;fill-rule:evenodd;font-size:12px;overflow:visible;stroke-linecap:square;stroke-miterlimit:3}
	]]>
	</style>

	<g v:mID="11" v:index="6" v:groupContext="foregroundPage">
		<title>Call Freebees</title>
		<v:pageProperties v:drawingScale="0.0393701" v:pageScale="0.0393701" v:drawingUnits="24" v:shadowOffsetX="9"
				v:shadowOffsetY="-9"/>
		<g id="shape2-1" v:mID="2" v:groupContext="shape" transform="translate(1319.06,4.54747E-013) scale(-1,1)">
			<title>Call Freebees</title>
			<path d="M650.94 755.4 C483.5 991.57 423.82 980.71 398.51 962.59 L391.25 957.4 L143.95 1302.9 L152.97 1309.36 C197.93
						 1341.54 475.08 1417.32 847.94 896.41 C1220.8 375.5 1059.7 137.59 1014.74 105.41 L1005.71 98.95 L758.41 444.45
						 L765.67 449.65 C790.98 467.76 818.61 519.66 650.94 755.4 ZM731.15 424.94 L644.77 363.11 C620.17 345.5 614.71
						 311.62 632.07 287.37 L816.41 29.83 C833.77 5.58 867.48 0 892.08 17.61 L978.45 79.44 L731.15 424.94 ZM363.87
						 938.06 L277.49 876.24 C252.89 858.63 219.31 864.03 201.82 888.46 L17.48 1146 C0 1170.42 5.58 1204.13 30.19
						 1221.74 L116.56 1283.57 L363.87 938.06 Z" class="st1"/>
		</g>
	</g>
</svg>
