<?xml version="1.0" encoding="UTF-8" standalone="no"?>
<!DOCTYPE svg PUBLIC "-//W3C//DTD SVG 1.1//EN" "http://www.w3.org/Graphics/SVG/1.1/DTD/svg11.dtd">
<!-- Generated by Microsoft Visio, SVG Export ChangeFlavor.svg Change Flavor -->
<svg xmlns="http://www.w3.org/2000/svg" xmlns:xlink="http://www.w3.org/1999/xlink" xmlns:ev="http://www.w3.org/2001/xml-events"
		xmlns:v="http://schemas.microsoft.com/visio/2003/SVGExtensions/" width="19.685in" height="19.685in"
		viewBox="0 0 1417.32 1417.32" xml:space="preserve" color-interpolation-filters="sRGB" class="st2">
	<v:documentProperties v:langID="1033" v:metric="true" v:viewMarkup="false">
		<v:userDefs>
			<v:ud v:nameU="msvNoAutoConnect" v:val="VT0(1):26"/>
		</v:userDefs>
	</v:documentProperties>

	<style type="text/css">
	<![CDATA[
		.st1 {fill:#a0968c;stroke:none;stroke-linecap:butt;stroke-width:5.97279}
		.st2 {fill:none;fill-rule:evenodd;font-size:12px;overflow:visible;stroke-linecap:square;stroke-miterlimit:3}
	]]>
	</style>

	<g v:mID="17" v:index="21" v:groupContext="foregroundPage">
		<title>Change Flavor</title>
		<v:pageProperties v:drawingScale="0.0393701" v:pageScale="0.0393701" v:drawingUnits="24" v:shadowOffsetX="9"
				v:shadowOffsetY="-9"/>
		<g id="shape2-1" v:mID="2" v:groupContext="shape" transform="translate(12.4968,-217.47)">
			<title>Change Flavor</title>
			<path d="M298.99 435.08 A66.2623 66.2623 -180 0 0 245.95 462.64 L0 804.79 A66.3103 66.3103 -180 1 0 107.64 882.26 L242.31
						 694.55 L242.31 1350.77 A66.2976 66.2976 -180 0 0 374.91 1350.77 L374.91 697.15 L522.06 877.06 A66.2623 66.2623
						 -180 1 0 624.5 793.35 L350.99 459 A66.2623 66.2623 -180 0 0 298.99 435.08 ZM1067 435.08 A66.2976 66.2976
						 -180 0 0 1005.12 501.64 L1005.12 1157.85 L870.45 970.14 A66.3103 66.3103 -180 1 0 762.81 1047.62 L1008.76
						 1389.76 A66.2623 66.2623 -180 0 0 1061.8 1417.32 A66.2623 66.2623 -180 0 0 1113.8 1393.4 L1387.31 1059.06
						 A66.2623 66.2623 -180 1 0 1284.87 975.34 L1137.72 1155.25 L1137.72 501.64 A66.2976 66.2976 -180 0 0 1067
						 435.08 Z" class="st1"/>
		</g>
	</g>
</svg>
