<?xml version="1.0" encoding="UTF-8" standalone="no"?>
<!DOCTYPE svg PUBLIC "-//W3C//DTD SVG 1.1//EN" "http://www.w3.org/Graphics/SVG/1.1/DTD/svg11.dtd">
<!-- Generated by Microsoft Visio, SVG Export Charge.svg Charge -->
<svg xmlns="http://www.w3.org/2000/svg" xmlns:xlink="http://www.w3.org/1999/xlink" xmlns:ev="http://www.w3.org/2001/xml-events"
		xmlns:v="http://schemas.microsoft.com/visio/2003/SVGExtensions/" width="19.685in" height="19.685in"
		viewBox="0 0 1417.32 1417.32" xml:space="preserve" color-interpolation-filters="sRGB" class="st3">
	<v:documentProperties v:langID="1033" v:metric="true" v:viewMarkup="false">
		<v:userDefs>
			<v:ud v:nameU="msvNoAutoConnect" v:val="VT0(1):26"/>
		</v:userDefs>
	</v:documentProperties>

	<style type="text/css">
	<![CDATA[
		.st1 {fill:#a0968c}
		.st2 {stroke:#ff0000;stroke-linecap:round;stroke-linejoin:round;stroke-width:100}
		.st3 {fill:none;fill-rule:evenodd;font-size:12px;overflow:visible;stroke-linecap:square;stroke-miterlimit:3}
	]]>
	</style>

	<g v:mID="4" v:index="15" v:groupContext="foregroundPage">
		<title>Charge</title>
		<v:pageProperties v:drawingScale="0.0393701" v:pageScale="0.0393701" v:drawingUnits="24" v:shadowOffsetX="8.50394"
				v:shadowOffsetY="-8.50394"/>
		<g id="shape5-1" v:mID="5" v:groupContext="shape" transform="translate(0,-1.79997)">
			<title>Charge</title>
			<path d="M708.66 3.6 C317.41 3.6 0 319.16 0 708.85 C-0 1098.17 317.41 1413.72 708.66 1413.72 C1100.29 1413.72 1417.32
						 1098.17 1417.32 708.85 C1417.32 319.16 1100.29 3.6 708.66 3.6 ZM708.66 42 C1078.98 42 1378.88 340.45 1378.88
						 708.85 C1378.88 1076.87 1078.98 1375.32 708.66 1375.32 C338.73 1375.32 38.44 1076.87 38.44 708.85 C38.44
						 340.45 338.73 42 708.66 42 ZM691.92 120.7 C686.59 120.7 648.53 235.9 676.69 257.95 C669.84 264.03 672.12
						 272.39 676.69 276.58 C666.04 281.9 667.94 293.3 674.41 299.77 C663.37 306.23 664.89 318.02 669.84 327.9
						 C654.62 339.69 655.38 367.44 663.75 377.71 C666.04 405.46 645.86 471.23 636.73 475.8 C618.84 484.54 571.27
						 497.85 569.75 521.04 C568.22 544.23 585.35 554.11 586.49 571.98 C566.7 561.72 556.42 510.77 548.05 511.91
						 C527.12 515.34 512.66 546.51 489.82 543.47 C411.42 532.44 257.66 507.73 204.76 641.18 C309.04 570.84 492.49
						 648.02 522.93 671.59 C618.84 746.49 653.1 974.22 494.01 1165.46 C482.97 1173.06 508.85 1214.88 535.49 1240.74
						 C576.98 1271.91 870.41 1254.8 900.1 1232.75 C929.79 1210.32 942.73 1174.96 948.81 1146.83 C905.43 1113.37
						 876.12 890.58 970.13 814.16 C1032.54 763.22 1139.87 767.02 1119.32 628.63 C1100.67 503.17 956.81 506.59
						 886.78 540.43 C862.8 516.1 839.58 514.57 824.74 520.28 C824.36 497.47 802.29 489.48 792.77 483.78 C799.62
						 471.23 818.27 457.55 817.89 451.84 C817.13 443.1 806.47 437.02 796.2 430.93 C785.92 425.23 774.88 472.75
						 765.37 461.35 C748.24 440.06 801.53 413.82 816.75 399 C819.79 395.96 759.66 322.96 754.71 334.75 C748.62
						 349.57 745.96 411.16 735.3 439.68 C730.74 428.27 728.07 408.12 725.79 377.33 C728.45 367.06 734.16 338.93
						 714.37 326.76 C722.36 318.4 717.03 302.43 710.94 299.77 C718.18 291.4 716.65 281.52 709.42 273.91 C713.61
						 270.11 713.61 262.89 709.04 258.33 C731.88 232.47 698.39 120.7 691.92 120.7 ZM972.03 549.55 C1018.46 549.17
						 1069.84 566.28 1088.11 622.55 C1112.09 697.83 1075.55 728.24 950.72 786.03 C827.41 843.44 832.73 965.48
						 862.04 1057.49 C773.36 910.35 793.53 758.28 799.24 636.24 C811.8 627.87 820.94 609.62 819.79 601.26 C839.58
						 598.6 875.36 586.81 895.15 567.42 C910.37 558.3 940.06 549.93 972.03 549.55 Z" class="st1"/>
			<path d="M157.32 1311.29 A51.0236 51.0236 -180 1 0 55.28 1311.29 A51.0236 51.0236 -180 1 0 157.32 1311.29" class="st2"/>
		</g>
	</g>
</svg>
