<?xml version="1.0" encoding="UTF-8" standalone="no"?>
<!DOCTYPE svg PUBLIC "-//W3C//DTD SVG 1.1//EN" "http://www.w3.org/Graphics/SVG/1.1/DTD/svg11.dtd">
<!-- Generated by Microsoft Visio, SVG Export Contract.svg Contract -->
<svg xmlns="http://www.w3.org/2000/svg" xmlns:xlink="http://www.w3.org/1999/xlink" xmlns:ev="http://www.w3.org/2001/xml-events"
		xmlns:v="http://schemas.microsoft.com/visio/2003/SVGExtensions/" width="19.685in" height="19.685in"
		viewBox="0 0 1417.32 1417.32" xml:space="preserve" color-interpolation-filters="sRGB" class="st2">
	<v:documentProperties v:langID="1033" v:metric="true" v:viewMarkup="false">
		<v:userDefs>
			<v:ud v:nameU="msvNoAutoConnect" v:val="VT0(1):26"/>
		</v:userDefs>
	</v:documentProperties>

	<style type="text/css">
	<![CDATA[
		.st1 {fill:#a0968c;stroke:none;stroke-linecap:butt;stroke-width:0.75}
		.st2 {fill:none;fill-rule:evenodd;font-size:12px;overflow:visible;stroke-linecap:square;stroke-miterlimit:3}
	]]>
	</style>

	<g v:mID="0" v:index="19" v:groupContext="foregroundPage">
		<title>Contract</title>
		<v:pageProperties v:drawingScale="0.0393701" v:pageScale="0.0393701" v:drawingUnits="24" v:shadowOffsetX="9"
				v:shadowOffsetY="-9"/>
		<g id="shape3-1" v:mID="3" v:groupContext="shape" transform="translate(191.675,0)">
			<title>Contract</title>
			<path d="M516.99 0 C299.74 0 122.18 177.55 122.18 394.8 L122.18 602.51 L0 602.51 L0 1417.32 L1033.97 1417.32 L1033.97
						 602.51 L911.79 602.51 L911.79 394.8 C911.79 177.55 734.24 0 516.99 0 ZM516.99 132.11 C662.87 132.11 779.68
						 248.92 779.68 394.8 L779.68 602.51 L254.29 602.51 L254.29 394.8 C254.29 248.92 371.1 132.11 516.99 132.11
						 ZM524.62 809.46 C574.45 812.75 616.28 849.87 623.13 900.34 C629.09 944.17 606.6 985.05 569.68 1005.72 L569.68
						 1079.03 A52.6914 52.6914 0 0 1 464.3 1079.03 L464.3 1005.72 C436.21 990.03 415.44 962.48 410.84 928.59 C403.01
						 870.92 443.69 818.04 502.48 810.23 C509.83 809.25 517.51 808.99 524.62 809.46 L524.62 809.46 Z"
					class="st1"/>
		</g>
	</g>
</svg>
