<?xml version="1.0" encoding="UTF-8" standalone="no"?>
<!DOCTYPE svg PUBLIC "-//W3C//DTD SVG 1.1//EN" "http://www.w3.org/Graphics/SVG/1.1/DTD/svg11.dtd">
<!-- Generated by Microsoft Visio, SVG Export DataFreebees.svg Data Freebees -->
<svg xmlns="http://www.w3.org/2000/svg" xmlns:xlink="http://www.w3.org/1999/xlink" xmlns:ev="http://www.w3.org/2001/xml-events"
		xmlns:v="http://schemas.microsoft.com/visio/2003/SVGExtensions/" width="19.685in" height="19.685in"
		viewBox="0 0 1417.32 1417.32" xml:space="preserve" color-interpolation-filters="sRGB" class="st2">
	<v:documentProperties v:langID="1033" v:metric="true" v:viewMarkup="false">
		<v:userDefs>
			<v:ud v:nameU="msvNoAutoConnect" v:val="VT0(1):26"/>
		</v:userDefs>
	</v:documentProperties>

	<style type="text/css">
	<![CDATA[
		.st1 {fill:#a0968c;stroke:none;stroke-linecap:butt;stroke-width:0.75}
		.st2 {fill:none;fill-rule:evenodd;font-size:12px;overflow:visible;stroke-linecap:square;stroke-miterlimit:3}
	]]>
	</style>

	<g v:mID="5" v:index="11" v:groupContext="foregroundPage">
		<title>Data Freebees</title>
		<v:pageProperties v:drawingScale="0.0393701" v:pageScale="0.0393701" v:drawingUnits="24" v:shadowOffsetX="9"
				v:shadowOffsetY="-9"/>
		<g id="shape2-1" v:mID="2" v:groupContext="shape" transform="translate(0,-21.0078)">
			<title>Data Freebees</title>
			<path d="M535 42.02 C404.5 74.84 288.4 144.19 197.94 238.09 L298.78 238.09 C303.42 231.53 307.03 223.88 311.85 217.55
						 C372.92 137.27 449.85 78.24 535 42.02 ZM879.52 42.02 C965.3 78.15 1043.09 136.78 1104.54 217.55 C1109.36
						 223.88 1112.97 231.53 1117.61 238.09 L1218.45 238.09 C1127.58 143.82 1010.71 74.62 879.52 42.02 ZM689.99
						 43.88 C660.89 48.74 631.78 62.05 604.09 89.63 C570.5 123.1 539.15 173.66 512.59 236.22 C512.35 236.78 511.89
						 237.53 511.66 238.09 L689.99 238.09 L689.99 43.88 L689.99 43.88 ZM727.33 43.88 L727.33 238.09 L904.73 238.09
						 C904.49 237.53 904.04 236.78 903.8 236.22 C877.24 173.66 845.89 123.1 812.3 89.63 C784.71 62.15 756.32 48.8
						 727.34 43.88 L727.33 43.88 ZM577.01 64.42 C488.11 95.2 407.81 154.42 343.59 238.09 L473.37 238.09 C475.35
						 233.16 476 226.08 478.04 221.28 C505.72 156.08 538.97 102.63 577.01 64.42 ZM839.38 64.42 C877.42 102.63
						 910.66 156.08 938.35 221.28 C940.38 226.08 941.04 233.16 943.01 238.09 L1072.8 238.09 C1008.58 154.42 928.27
						 95.2 839.38 64.42 ZM164.33 275.43 C115 334.43 75.8 401.34 47.62 474.31 L186.74 474.31 C207.77 401.3 238.46
						 335.22 275.43 275.43 L164.33 275.43 ZM319.32 275.43 C280.31 334.08 248.28 400.32 225.95 474.31 L410.82 474.31
						 C422.9 400.3 440.8 335.73 462.17 275.43 L319.32 275.43 ZM501.38 275.43 C479.48 334.59 460.72 399.4 448.17
						 474.31 L689.99 474.31 L689.99 275.43 L501.38 275.43 ZM727.33 275.43 L727.33 474.31 L969.16 474.31 C956.6
						 399.38 936.92 334.6 915 275.43 L727.33 275.43 ZM954.22 275.43 C975.59 335.73 993.49 400.3 1005.57 474.31
						 L1191.37 474.31 C1169.02 400.26 1136.13 334.11 1097.07 275.43 L954.22 275.43 ZM1140.95 275.43 C1177.93 335.22
						 1208.62 401.3 1229.65 474.31 L1369.71 474.31 C1341.51 401.27 1301.44 334.47 1252.06 275.43 L1140.95 275.43
						 ZM34.55 511.66 C14.15 574.73 2.74 641.1 0.93 710.53 L152.19 710.53 C153.56 640.99 163.01 575.08 178.33 511.66
						 L34.55 511.66 ZM217.55 511.66 C201.55 574.77 190.99 640.68 189.54 710.53 L390.28 710.53 C391.08 640.29 398.28
						 575.55 407.08 511.66 L217.55 511.66 ZM445.36 511.66 C436.36 575.25 428.46 640.16 427.62 710.53 L689.99 710.53
						 L689.99 511.66 L445.36 511.66 ZM727.33 511.66 L727.33 710.53 L988.76 710.53 C987.93 640.17 980.96 575.24
						 971.96 511.66 L727.33 511.66 ZM1009.31 511.66 C1018.11 575.55 1025.31 640.29 1026.11 710.53 L1227.79 710.53
						 C1226.34 640.66 1215.78 574.79 1199.78 511.66 L1009.31 511.66 ZM1238.06 511.66 C1253.38 575.08 1262.83 640.99
						 1264.2 710.53 L1416.39 710.53 C1414.58 641.1 1403.17 574.73 1382.78 511.66 L1238.06 511.66 ZM0 747.88 C1.76
						 817.55 14.07 884.4 34.55 947.68 L178.33 947.68 C163 884.22 153.55 817.46 152.19 747.88 L0 747.88 ZM189.54
						 747.88 C190.98 817.77 201.54 884.53 217.55 947.68 L407.08 947.68 C398.26 883.72 391.08 818.2 390.28 747.88
						 L189.54 747.88 ZM427.62 747.88 C428.46 818.33 436.34 884.02 445.36 947.68 L689.99 947.68 L689.99 747.88
						 L427.62 747.88 ZM727.33 747.88 L727.33 947.68 L971.96 947.68 C980.98 884.02 987.93 818.32 988.76 747.88
						 L727.33 747.88 ZM1026.11 747.88 C1025.31 818.2 1018.13 883.72 1009.31 947.68 L1199.78 947.68 C1215.79 884.51
						 1226.35 817.79 1227.79 747.88 L1026.11 747.88 ZM1264.2 747.88 C1262.83 817.46 1253.39 884.22 1238.06 947.68
						 L1382.78 947.68 C1403.26 884.4 1415.56 817.55 1417.32 747.88 L1264.2 747.88 ZM47.62 985.03 C75.79 1057.8
						 115.11 1125.05 164.33 1183.9 L275.43 1183.9 C238.46 1124.11 207.77 1058.04 186.74 985.03 L47.62 985.03 ZM225.95
						 985.03 C248.28 1059.02 280.31 1125.26 319.32 1183.9 L462.17 1183.9 C440.81 1123.63 422.9 1059.01 410.82
						 985.03 L225.95 985.03 ZM448.17 985.03 C460.72 1059.91 479.48 1124.76 501.38 1183.9 L689.99 1183.9 L689.99
						 985.03 L448.17 985.03 ZM727.33 985.03 L727.33 1183.9 L915 1183.9 C936.91 1124.75 956.6 1059.93 969.16 985.03
						 L727.33 985.03 ZM1005.57 985.03 C993.49 1059.01 975.58 1123.63 954.22 1183.9 L1097.07 1183.9 C1136.13 1125.23
						 1169.02 1059.08 1191.37 985.03 L1005.57 985.03 ZM1229.65 985.03 C1208.62 1058.04 1177.93 1124.11 1140.95
						 1183.9 L1252.06 1183.9 C1301.33 1125 1341.52 1057.87 1369.71 985.03 L1229.65 985.03 ZM197.94 1221.25 C288.4
						 1315.15 404.5 1384.5 535 1417.32 C449.85 1381.1 372.92 1322.07 311.85 1241.79 C307.03 1235.45 303.42 1227.81
						 298.78 1221.25 L197.94 1221.25 ZM343.59 1221.25 C407.81 1304.92 488.11 1364.14 577.01 1394.91 C538.97 1356.71
						 505.72 1303.26 478.04 1238.06 C476.01 1233.26 475.35 1226.18 473.37 1221.25 L343.59 1221.25 ZM511.66 1221.25
						 C511.89 1221.81 512.35 1222.56 512.59 1223.12 C539.14 1285.67 570.5 1336.24 604.09 1369.71 C631.78 1397.29
						 660.89 1410.6 689.99 1415.46 L689.99 1221.25 L511.65 1221.25 L511.66 1221.25 ZM727.33 1221.25 L727.33 1415.46
						 C756.32 1410.53 784.71 1397.19 812.3 1369.71 C845.89 1336.24 877.24 1285.67 903.8 1223.12 C904.04 1222.56
						 904.49 1221.81 904.73 1221.25 L727.33 1221.25 L727.33 1221.25 ZM943.01 1221.25 C941.04 1226.18 940.38 1233.26
						 938.35 1238.06 C910.66 1303.26 877.42 1356.7 839.38 1394.91 C928.27 1364.14 1008.58 1304.92 1072.8 1221.25
						 L943.01 1221.25 ZM1117.61 1221.25 C1112.97 1227.81 1109.36 1235.45 1104.54 1241.79 C1043.09 1322.56 965.3
						 1381.19 879.52 1417.32 C1010.71 1384.72 1127.58 1315.52 1218.45 1221.25 L1117.61 1221.25 Z" class="st1"/>
		</g>
	</g>
</svg>
