<?xml version="1.0" encoding="UTF-8" standalone="no"?>
<!DOCTYPE svg PUBLIC "-//W3C//DTD SVG 1.1//EN" "http://www.w3.org/Graphics/SVG/1.1/DTD/svg11.dtd">
<!-- Generated by Microsoft Visio, SVG Export DataTariff.svg Data Tariff -->
<svg xmlns="http://www.w3.org/2000/svg" xmlns:xlink="http://www.w3.org/1999/xlink" xmlns:ev="http://www.w3.org/2001/xml-events"
		xmlns:v="http://schemas.microsoft.com/visio/2003/SVGExtensions/" width="19.685in" height="19.685in"
		viewBox="0 0 1417.32 1417.32" xml:space="preserve" color-interpolation-filters="sRGB" class="st3">
	<v:documentProperties v:langID="1033" v:metric="true" v:viewMarkup="false">
		<v:userDefs>
			<v:ud v:nameU="msvNoAutoConnect" v:val="VT0(1):26"/>
		</v:userDefs>
	</v:documentProperties>

	<style type="text/css">
	<![CDATA[
		.st1 {fill:#a0968c}
		.st2 {stroke:#ff0000;stroke-linecap:butt;stroke-width:100}
		.st3 {fill:none;fill-rule:evenodd;font-size:12px;overflow:visible;stroke-linecap:square;stroke-miterlimit:3}
	]]>
	</style>

	<g v:mID="10" v:index="12" v:groupContext="foregroundPage">
		<title>Data Tariff</title>
		<v:pageProperties v:drawingScale="0.0393701" v:pageScale="0.0393701" v:drawingUnits="24" v:shadowOffsetX="9"
				v:shadowOffsetY="-9"/>
		<g id="shape6-1" v:mID="6" v:groupContext="shape" transform="translate(0,-10.5039)">
			<title>Data Tariff</title>
			<path d="M535 21.01 C404.5 53.83 288.4 123.18 197.94 217.08 L298.78 217.08 C303.42 210.52 307.03 202.88 311.85 196.54
						 C372.92 116.26 449.85 57.23 535 21.01 ZM879.52 21.01 C965.3 57.14 1043.09 115.77 1104.54 196.54 C1109.36
						 202.88 1112.97 210.52 1117.61 217.08 L1218.45 217.08 C1127.58 122.81 1010.71 53.61 879.52 21.01 ZM689.99
						 22.88 C660.89 27.73 631.78 41.04 604.09 68.63 C570.5 102.09 539.15 152.66 512.59 215.21 C512.35 215.77 511.89
						 216.52 511.66 217.08 L689.99 217.08 L689.99 22.88 L689.99 22.88 ZM727.33 22.88 L727.33 217.08 L904.73 217.08
						 C904.49 216.52 904.04 215.77 903.8 215.21 C877.24 152.66 845.89 102.09 812.3 68.63 C784.71 41.14 756.32
						 27.8 727.34 22.88 L727.33 22.88 ZM577.01 43.42 C488.11 74.19 407.81 133.41 343.59 217.08 L473.37 217.08
						 C475.35 212.16 476 205.07 478.04 200.27 C505.72 135.07 538.97 81.63 577.01 43.42 ZM839.38 43.42 C877.42
						 81.63 910.66 135.07 938.35 200.27 C940.38 205.07 941.04 212.16 943.01 217.08 L1072.8 217.08 C1008.58 133.41
						 928.27 74.19 839.38 43.42 ZM164.33 254.43 C115 313.42 75.8 380.33 47.62 453.3 L186.74 453.3 C207.77 380.29
						 238.46 314.22 275.43 254.43 L164.33 254.43 ZM319.32 254.43 C280.31 313.07 248.28 379.31 225.95 453.3 L410.82
						 453.3 C422.9 379.29 440.8 314.72 462.17 254.43 L319.32 254.43 ZM501.38 254.43 C479.48 313.58 460.72 378.4
						 448.17 453.3 L689.99 453.3 L689.99 254.43 L501.38 254.43 ZM727.33 254.43 L727.33 453.3 L969.16 453.3 C956.6
						 378.38 936.92 313.59 915 254.43 L727.33 254.43 ZM954.22 254.43 C975.59 314.72 993.49 379.29 1005.57 453.3
						 L1191.37 453.3 C1169.02 379.25 1136.13 313.1 1097.07 254.43 L954.22 254.43 ZM1140.95 254.43 C1177.93 314.22
						 1208.62 380.29 1229.65 453.3 L1369.71 453.3 C1341.51 380.26 1301.44 313.47 1252.06 254.43 L1140.95 254.43
						 ZM34.55 490.65 C14.15 553.73 2.74 620.09 0.93 689.52 L152.19 689.52 C153.56 619.98 163.01 554.07 178.33
						 490.65 L34.55 490.65 ZM217.55 490.65 C201.55 553.76 190.99 619.67 189.54 689.52 L390.28 689.52 C391.08 619.29
						 398.28 554.54 407.08 490.65 L217.55 490.65 ZM445.36 490.65 C436.36 554.24 428.46 619.16 427.62 689.52 L689.99
						 689.52 L689.99 490.65 L445.36 490.65 ZM727.33 490.65 L727.33 689.52 L988.76 689.52 C987.93 619.16 980.96
						 554.24 971.96 490.65 L727.33 490.65 ZM1009.31 490.65 C1018.11 554.54 1025.31 619.29 1026.11 689.52 L1227.79
						 689.52 C1226.34 619.65 1215.78 553.78 1199.78 490.65 L1009.31 490.65 ZM1238.06 490.65 C1253.38 554.07 1262.83
						 619.98 1264.2 689.52 L1416.39 689.52 C1414.58 620.09 1403.17 553.73 1382.78 490.65 L1238.06 490.65 ZM0 726.87
						 C1.76 796.55 14.07 863.39 34.55 926.68 L178.33 926.68 C163 863.22 153.55 796.45 152.19 726.87 L0 726.87
						 ZM189.54 726.87 C190.98 796.76 201.54 863.52 217.55 926.68 L407.08 926.68 C398.26 862.71 391.08 797.2 390.28
						 726.87 L189.54 726.87 ZM427.62 726.87 C428.46 797.32 436.34 863.01 445.36 926.68 L689.99 926.68 L689.99
						 726.87 L427.62 726.87 ZM727.33 726.87 L727.33 926.68 L971.96 926.68 C980.98 863.02 987.93 797.32 988.76
						 726.87 L727.33 726.87 ZM1026.11 726.87 C1025.31 797.2 1018.13 862.71 1009.31 926.68 L1199.78 926.68 C1215.79
						 863.5 1226.35 796.78 1227.79 726.87 L1026.11 726.87 ZM1264.2 726.87 C1262.83 796.45 1253.39 863.22 1238.06
						 926.68 L1382.78 926.68 C1403.26 863.39 1415.56 796.55 1417.32 726.87 L1264.2 726.87 ZM47.62 964.02 C75.79
						 1036.79 115.11 1104.04 164.33 1162.9 L275.43 1162.9 C238.46 1103.11 207.77 1037.03 186.74 964.02 L47.62
						 964.02 ZM225.95 964.02 C248.28 1038.01 280.31 1104.26 319.32 1162.9 L462.17 1162.9 C440.81 1102.62 422.9
						 1038 410.82 964.02 L225.95 964.02 ZM448.17 964.02 C460.72 1038.91 479.48 1103.75 501.38 1162.9 L689.99 1162.9
						 L689.99 964.02 L448.17 964.02 ZM727.33 964.02 L727.33 1162.9 L915 1162.9 C936.91 1103.74 956.6 1038.92 969.16
						 964.02 L727.33 964.02 ZM1005.57 964.02 C993.49 1038 975.58 1102.62 954.22 1162.9 L1097.07 1162.9 C1136.13
						 1104.22 1169.02 1038.08 1191.37 964.02 L1005.57 964.02 ZM1229.65 964.02 C1208.62 1037.03 1177.93 1103.11
						 1140.95 1162.9 L1252.06 1162.9 C1301.33 1104 1341.52 1036.87 1369.71 964.02 L1229.65 964.02 ZM197.94 1200.24
						 C288.4 1294.15 404.5 1363.49 535 1396.32 C449.85 1360.09 372.92 1301.06 311.85 1220.78 C307.03 1214.45 303.42
						 1206.8 298.78 1200.24 L197.94 1200.24 ZM343.59 1200.24 C407.81 1283.91 488.11 1343.13 577.01 1373.91 C538.97
						 1335.7 505.72 1282.25 478.04 1217.05 C476.01 1212.25 475.35 1205.17 473.37 1200.24 L343.59 1200.24 ZM511.66
						 1200.24 C511.89 1200.8 512.35 1201.55 512.59 1202.11 C539.14 1264.67 570.5 1315.23 604.09 1348.7 C631.78
						 1376.28 660.89 1389.59 689.99 1394.45 L689.99 1200.24 L511.65 1200.24 L511.66 1200.24 ZM727.33 1200.24 L727.33
						 1394.45 C756.32 1389.53 784.71 1376.19 812.3 1348.7 C845.89 1315.23 877.24 1264.67 903.8 1202.11 C904.04
						 1201.55 904.49 1200.8 904.73 1200.24 L727.33 1200.24 L727.33 1200.24 ZM943.01 1200.24 C941.04 1205.17 940.38
						 1212.25 938.35 1217.05 C910.66 1282.26 877.42 1335.7 839.38 1373.91 C928.27 1343.13 1008.58 1283.91 1072.8
						 1200.24 L943.01 1200.24 ZM1117.61 1200.24 C1112.97 1206.8 1109.36 1214.45 1104.54 1220.78 C1043.09 1301.55
						 965.3 1360.18 879.52 1396.32 C1010.71 1363.71 1127.58 1294.51 1218.45 1200.24 L1117.61 1200.24 Z"
					class="st1"/>
			<path d="M157.32 1326.56 A51.0236 51.0236 -180 1 0 55.28 1326.56 A51.0236 51.0236 -180 1 0 157.32 1326.56" class="st2"/>
		</g>
	</g>
</svg>
