<?xml version="1.0" encoding="UTF-8" standalone="no"?>
<!DOCTYPE svg PUBLIC "-//W3C//DTD SVG 1.1//EN" "http://www.w3.org/Graphics/SVG/1.1/DTD/svg11.dtd">
<!-- Generated by Microsoft Visio, SVG Export Device.svg Device -->
<svg xmlns="http://www.w3.org/2000/svg" xmlns:xlink="http://www.w3.org/1999/xlink" xmlns:ev="http://www.w3.org/2001/xml-events"
		xmlns:v="http://schemas.microsoft.com/visio/2003/SVGExtensions/" width="19.685in" height="19.685in"
		viewBox="0 0 1417.32 1417.32" xml:space="preserve" color-interpolation-filters="sRGB" class="st2">
	<v:documentProperties v:langID="1033" v:metric="true" v:viewMarkup="false">
		<v:userDefs>
			<v:ud v:nameU="msvNoAutoConnect" v:val="VT0(1):26"/>
		</v:userDefs>
	</v:documentProperties>

	<style type="text/css">
	<![CDATA[
		.st1 {fill:#a0968c;stroke:none;stroke-linecap:butt;stroke-width:5.53643}
		.st2 {fill:none;fill-rule:evenodd;font-size:12px;overflow:visible;stroke-linecap:square;stroke-miterlimit:3}
	]]>
	</style>

	<g v:mID="16" v:index="13" v:groupContext="foregroundPage">
		<title>Device</title>
		<v:pageProperties v:drawingScale="0.0393701" v:pageScale="0.0393701" v:drawingUnits="24" v:shadowOffsetX="9"
				v:shadowOffsetY="-9"/>
		<g id="shape2-1" v:mID="2" v:groupContext="shape" transform="translate(329.949,4.54747E-013)">
			<title>Device</title>
			<path d="M62.53 0.07 A69.0345 69.0345 -180 0 0 0 69.04 L0 1347.78 A69.0345 69.0345 -180 0 0 68.96 1417.32 L688.46 1417.32
						 A69.0345 69.0345 -180 0 0 757.42 1347.78 L757.42 69.04 A69.0345 69.0345 -180 0 0 688.46 0.07 L68.96 0.07
						 A69.0345 69.0345 -180 0 0 62.53 0.07 ZM46.17 82.48 L711.25 82.48 L711.25 1235.57 L46.17 1235.57 L46.17 82.48
						 ZM347.74 1275.31 A32.2741 32.2741 0 0 1 350.66 1275.31 L406.77 1275.31 A32.2741 32.2741 0 0 1 438.91 1307.45
						 L438.91 1335.5 A32.2741 32.2741 0 0 1 406.77 1367.65 L350.66 1367.65 A32.2741 32.2741 0 0 1 318.52 1335.5
						 L318.52 1307.45 A32.2741 32.2741 0 0 1 347.74 1275.31 Z" class="st1"/>
		</g>
	</g>
</svg>
