<?xml version="1.0" encoding="UTF-8" standalone="no"?>
<!DOCTYPE svg PUBLIC "-//W3C//DTD SVG 1.1//EN" "http://www.w3.org/Graphics/SVG/1.1/DTD/svg11.dtd">
<!-- Generated by Microsoft Visio, SVG Export Inquiry.svg Inquiry -->
<svg xmlns="http://www.w3.org/2000/svg" xmlns:xlink="http://www.w3.org/1999/xlink" xmlns:ev="http://www.w3.org/2001/xml-events"
		xmlns:v="http://schemas.microsoft.com/visio/2003/SVGExtensions/" width="19.685in" height="19.685in"
		viewBox="0 0 1417.32 1417.32" xml:space="preserve" color-interpolation-filters="sRGB" class="st2">
	<v:documentProperties v:langID="1033" v:metric="true" v:viewMarkup="false">
		<v:userDefs>
			<v:ud v:nameU="msvNoAutoConnect" v:val="VT0(1):26"/>
		</v:userDefs>
	</v:documentProperties>

	<style type="text/css">
	<![CDATA[
		.st1 {fill:#a0968c;stroke:none;stroke-linecap:butt;stroke-width:1.5681}
		.st2 {fill:none;fill-rule:evenodd;font-size:12px;overflow:visible;stroke-linecap:square;stroke-miterlimit:3}
	]]>
	</style>

	<g v:mID="15" v:index="18" v:groupContext="foregroundPage">
		<title>Inquiry</title>
		<v:pageProperties v:drawingScale="0.0393701" v:pageScale="0.0393701" v:drawingUnits="24" v:shadowOffsetX="9"
				v:shadowOffsetY="-9"/>
		<g id="shape2-1" v:mID="2" v:groupContext="shape" transform="translate(0.00327176,-178.922)">
			<title>Inquiry</title>
			<path d="M12.58 801.4 A14.0335 14.0335 -180 0 0 0 815.66 L0 1323.63 A14.0335 14.0335 -180 0 0 13.84 1337.89 L817.53 1337.89
						 A14.0335 14.0335 -180 0 0 831.37 1323.63 L831.37 815.66 A14.0335 14.0335 -180 0 0 817.53 801.4 L13.84 801.4
						 A14.0335 14.0335 -180 0 0 12.58 801.4 L12.58 801.4 ZM50.75 829.5 L779.77 829.5 L519.71 1050.98 C485.26 1080.27
						 450.67 1094.41 416.1 1094.6 C381.53 1094.78 346.22 1081.08 310.82 1050.98 L309.56 1050.14 L50.75 829.5 L50.75
						 829.5 ZM803.26 846.7 L803.26 1291.33 L555.78 1057.27 L803.26 846.7 ZM28.1 847.12 L275.17 1057.27 L28.1 1291.33
						 L28.1 847.12 ZM297.4 1075.3 C335.37 1106.26 375.49 1122.51 416.1 1122.28 C456.95 1122.06 497.19 1105.8 534.39
						 1075.3 L782.29 1309.78 L49.07 1309.78 L297.4 1075.3 ZM822.84 619.58 C821.92 636.29 828.87 649.28 843.73
						 658.56 C855.79 667.85 871.11 672.49 889.67 672.49 C908.23 672.49 924.01 667.85 937 658.56 C950.93 649.28
						 957.42 636.29 956.5 619.58 C956.5 563.89 962.99 527.7 975.99 510.99 C994.55 488.71 1037.71 477.58 1105.46
						 477.57 C1163.01 477.58 1207.09 492.89 1237.72 523.52 C1268.35 553.22 1283.67 594.99 1283.67 648.82 C1283.67
						 697.08 1271.6 737.46 1247.47 769.94 C1220.55 806.14 1179.25 829.81 1123.56 840.94 L1098.5 845.12 C1072.51
						 850.69 1055.81 855.33 1048.38 859.04 C1037.24 863.68 1030.28 871.57 1027.5 882.71 C1025.65 889.21 1024.71
						 898.49 1024.71 910.55 C1023.79 917.98 1023.79 932.83 1024.71 955.11 C1024.71 976.45 1024.71 993.62 1024.71
						 1006.62 C1024.71 1029.82 1024.71 1053.03 1024.71 1076.23 C1023.79 1088.3 1030.28 1097.58 1044.2 1104.07
						 C1056.27 1110.57 1071.12 1113.82 1088.76 1113.82 C1106.39 1113.82 1120.78 1110.57 1131.91 1104.07 C1145.84
						 1097.58 1152.33 1088.3 1151.41 1076.23 C1148.62 1057.67 1147.69 1040.03 1148.62 1023.32 C1148.62 1009.4
						 1150.02 991.3 1152.8 969.03 C1232.62 943.97 1292.48 912.88 1332.39 875.75 C1389.01 821.92 1417.32 746.74
						 1417.32 650.21 C1417.32 549.04 1392.26 475.26 1342.14 428.85 C1292.02 381.51 1213.13 357.84 1105.46 357.84
						 C1004.3 357.84 930.97 380.12 885.49 424.67 C843.73 466.44 822.84 531.41 822.84 619.58 ZM1191.78 1322.65
						 C1191.78 1294.81 1180.18 1271.6 1156.98 1253.04 C1136.56 1236.33 1112.42 1227.98 1084.58 1227.98 C1055.81
						 1227.98 1030.75 1236.33 1009.4 1253.04 C988.05 1271.6 977.38 1294.81 977.38 1322.65 C977.38 1350.5 988.05
						 1373.24 1009.4 1390.87 C1030.75 1408.51 1055.81 1417.32 1084.58 1417.32 C1112.42 1417.32 1136.56 1408.51
						 1156.98 1390.87 C1180.18 1373.24 1191.78 1350.5 1191.78 1322.65 Z" class="st1"/>
		</g>
	</g>
</svg>
