<?xml version="1.0" encoding="UTF-8" standalone="no"?>
<!DOCTYPE svg PUBLIC "-//W3C//DTD SVG 1.1//EN" "http://www.w3.org/Graphics/SVG/1.1/DTD/svg11.dtd">
<!-- Generated by Microsoft Visio, SVG Export MessageTariff.svg Message Tariff -->
<svg xmlns="http://www.w3.org/2000/svg" xmlns:xlink="http://www.w3.org/1999/xlink" xmlns:ev="http://www.w3.org/2001/xml-events"
		xmlns:v="http://schemas.microsoft.com/visio/2003/SVGExtensions/" width="19.685in" height="19.685in"
		viewBox="0 0 1417.32 1417.32" xml:space="preserve" color-interpolation-filters="sRGB" class="st3">
	<v:documentProperties v:langID="1033" v:metric="true" v:viewMarkup="false">
		<v:userDefs>
			<v:ud v:nameU="msvNoAutoConnect" v:val="VT0(1):26"/>
		</v:userDefs>
	</v:documentProperties>

	<style type="text/css">
	<![CDATA[
		.st1 {fill:#a0968c}
		.st2 {stroke:#ff0000;stroke-linecap:butt;stroke-width:100}
		.st3 {fill:none;fill-rule:evenodd;font-size:12px;overflow:visible;stroke-linecap:square;stroke-miterlimit:3}
	]]>
	</style>

	<g v:mID="14" v:index="10" v:groupContext="foregroundPage">
		<title>Message Tariff</title>
		<v:pageProperties v:drawingScale="0.0393701" v:pageScale="0.0393701" v:drawingUnits="24" v:shadowOffsetX="9"
				v:shadowOffsetY="-9"/>
		<g id="shape3-1" v:mID="3" v:groupContext="shape" transform="translate(0,-134.792)">
			<title>Message Tariff</title>
			<path d="M492.38 719.01 C561.82 775.62 635.17 805.32 709.43 804.91 C784.11 804.5 857.7 774.77 925.71 719.01 L1378.98
						 1147.74 L38.35 1147.74 L492.38 719.01 ZM0 301.79 L451.73 686.04 L0 1113.99 L0 301.79 ZM1417.32 301.03 L1417.32
						 1114 L964.82 686.04 L1417.32 301.03 ZM41.42 269.58 L1374.37 269.58 L898.86 674.53 C835.88 728.1 772.64 753.95
						 709.43 754.3 C646.22 754.64 581.66 729.58 516.92 674.53 L514.62 673 L41.42 269.58 L41.42 269.58 Z"
					class="st1"/>
			<path d="M157.32 1314.03 A51.0236 51.0236 -180 1 0 55.28 1314.03 A51.0236 51.0236 -180 1 0 157.32 1314.03" class="st2"/>
		</g>
	</g>
</svg>
