<?xml version="1.0" encoding="UTF-8" standalone="no"?>
<!DOCTYPE svg PUBLIC "-//W3C//DTD SVG 1.1//EN" "http://www.w3.org/Graphics/SVG/1.1/DTD/svg11.dtd">
<!-- Generated by Microsoft Visio, SVG Export Notification.svg Notification -->
<svg xmlns="http://www.w3.org/2000/svg" xmlns:xlink="http://www.w3.org/1999/xlink" xmlns:ev="http://www.w3.org/2001/xml-events"
		xmlns:v="http://schemas.microsoft.com/visio/2003/SVGExtensions/" width="19.685in" height="19.685in"
		viewBox="0 0 1417.32 1417.32" xml:space="preserve" color-interpolation-filters="sRGB" class="st2">
	<v:documentProperties v:langID="1033" v:metric="true" v:viewMarkup="false">
		<v:userDefs>
			<v:ud v:nameU="msvNoAutoConnect" v:val="VT0(1):26"/>
		</v:userDefs>
	</v:documentProperties>

	<style type="text/css">
	<![CDATA[
		.st1 {fill:#a0968c;stroke:none;stroke-linecap:butt;stroke-width:1.5681}
		.st2 {fill:none;fill-rule:evenodd;font-size:12px;overflow:visible;stroke-linecap:square;stroke-miterlimit:3}
	]]>
	</style>

	<g v:mID="9" v:index="17" v:groupContext="foregroundPage">
		<title>Notification</title>
		<v:pageProperties v:drawingScale="0.0393701" v:pageScale="0.0393701" v:drawingUnits="24" v:shadowOffsetX="9"
				v:shadowOffsetY="-9"/>
		<g id="shape2-1" v:mID="2" v:groupContext="shape" transform="translate(0.00326997,-173.354)">
			<title>Notification</title>
			<path d="M1417.32 1322.65 C1417.32 1294.81 1406.18 1271.6 1383.91 1253.04 C1362.56 1236.33 1337.96 1227.98 1310.12 1227.98
						 C1281.35 1227.98 1256.75 1236.33 1236.33 1253.04 C1214.98 1271.6 1204.31 1294.81 1204.31 1322.65 C1204.31
						 1350.5 1214.98 1373.24 1236.33 1390.87 C1256.75 1408.51 1281.35 1417.32 1310.12 1417.32 C1337.96 1417.32
						 1362.56 1408.51 1383.91 1390.87 C1406.18 1373.24 1417.32 1350.5 1417.32 1322.65 ZM1216.84 490.11 L1247.47
						 996.87 C1250.25 1033.07 1256.29 1059.52 1265.57 1076.23 C1275.78 1094.79 1290.63 1104.07 1310.12 1104.07
						 C1330.54 1104.07 1345.85 1094.79 1356.06 1076.23 C1364.42 1059.52 1370.45 1033.07 1374.16 996.87 L1403.4
						 490.11 C1408.04 438.13 1401.54 400.08 1383.91 375.94 C1368.13 356.45 1344 346.71 1311.51 346.71 C1279.03
						 346.71 1254.89 356.45 1239.12 375.94 C1219.62 400.08 1212.2 438.13 1216.84 490.11 ZM297.4 1069.74 C335.37
						 1100.69 375.49 1116.94 416.1 1116.71 C456.95 1116.49 497.19 1100.23 534.39 1069.74 L782.29 1304.21 L49.08
						 1304.21 L297.4 1069.74 ZM28.1 841.55 L275.17 1051.7 L28.1 1285.76 L28.1 841.55 ZM803.27 841.13 L803.27 1285.76
						 L555.78 1051.7 L803.27 841.13 ZM50.75 823.93 L779.78 823.93 L519.71 1045.41 C485.26 1074.7 450.68 1088.84
						 416.1 1089.03 C381.53 1089.26 346.22 1075.52 310.82 1045.41 L309.56 1044.58 L50.76 823.94 L50.75 823.93
						 ZM12.58 795.83 A14.0335 14.0335 -180 0 0 -0 810.09 L0 1318.06 A14.0335 14.0335 -180 0 0 13.84 1332.32 L817.53
						 1332.32 A14.0335 14.0335 -180 0 0 831.37 1318.06 L831.37 810.09 A14.0335 14.0335 -180 0 0 817.53 795.83
						 L13.84 795.83 A14.0335 14.0335 -180 0 0 12.58 795.83 L12.58 795.83 Z" class="st1"/>
		</g>
	</g>
</svg>
