<?xml version="1.0" encoding="UTF-8" standalone="no"?>
<!DOCTYPE svg PUBLIC "-//W3C//DTD SVG 1.1//EN" "http://www.w3.org/Graphics/SVG/1.1/DTD/svg11.dtd">
<!-- Generated by Microsoft Visio, SVG Export Project.svg Project -->
<svg xmlns="http://www.w3.org/2000/svg" xmlns:xlink="http://www.w3.org/1999/xlink" xmlns:ev="http://www.w3.org/2001/xml-events"
		xmlns:v="http://schemas.microsoft.com/visio/2003/SVGExtensions/" width="19.685in" height="19.685in"
		viewBox="0 0 1417.32 1417.32" xml:space="preserve" color-interpolation-filters="sRGB" class="st2">
	<v:documentProperties v:langID="1033" v:metric="true" v:viewMarkup="false">
		<v:userDefs>
			<v:ud v:nameU="msvNoAutoConnect" v:val="VT0(1):26"/>
		</v:userDefs>
	</v:documentProperties>

	<style type="text/css">
	<![CDATA[
		.st1 {fill:#a0968c;stroke:none;stroke-linecap:butt;stroke-width:0.75}
		.st2 {fill:none;fill-rule:evenodd;font-size:12px;overflow:visible;stroke-linecap:square;stroke-miterlimit:3}
	]]>
	</style>

	<g v:mID="20" v:index="2" v:groupContext="foregroundPage">
		<title>Project</title>
		<v:pageProperties v:drawingScale="0.0393701" v:pageScale="0.0393701" v:drawingUnits="24" v:shadowOffsetX="9"
				v:shadowOffsetY="-9"/>
		<g id="shape4-1" v:mID="4" v:groupContext="shape" transform="translate(1417.32,-169.221) scale(-1,1)">
			<title>Project</title>
			<path d="M795.17 338.76 C690.63 338.44 592.74 366.66 520.3 408.94 C422.35 466.2 355.05 540.02 301.67 648.26 C288.6 674.72
						 264.26 731.19 247.68 812.01 C233.31 882.03 232.04 925.87 229.69 999.15 C229.7 1002.69 230.27 1006.45 231.04
						 1009.95 C231.1 1010.24 230.97 1010.56 231.04 1010.85 C228.53 1024.17 220.28 1044.23 198.2 1067.08 C367.92
						 1184.36 602.22 1256.92 860.84 1256.92 C903.28 1256.92 944.95 1254.87 985.91 1251.08 C992.97 1250.46 999.65
						 1249.51 1006.6 1248.83 C1141.45 1234.21 1266.98 1199.78 1376.39 1149.86 C1402.55 1131.12 1417.32 1110.81
						 1417.32 1089.58 C1363.53 1050.39 1356.12 1015.77 1355.69 1000.95 C1355.55 996.01 1356.14 993.31 1356.14
						 993.31 L1355.24 993.31 C1352.26 900.49 1347.52 795.31 1287.76 658.16 C1273.85 626.26 1220.08 515.87 1110.52
						 438.18 C1011.19 367.74 899.69 339.07 795.16 338.76 L795.17 338.76 ZM177.06 1085.98 C132.7 1120.36 76.85
						 1164.9 48.84 1193.04 C0 1242.25 175.95 1298.22 277.82 1325.3 C379.56 1352.49 574.98 1417.32 684.95 1378.84
						 C784.04 1344.1 861.7 1310.64 914.38 1286.17 C896.72 1286.84 878.74 1287.06 860.84 1287.06 C596.5 1287.06
						 357.18 1212.26 182.9 1090.03 C180.95 1088.65 179 1087.36 177.06 1085.98 Z" class="st1"/>
		</g>
	</g>
</svg>
