<?xml version="1.0" encoding="UTF-8" standalone="no"?>
<!DOCTYPE svg PUBLIC "-//W3C//DTD SVG 1.1//EN" "http://www.w3.org/Graphics/SVG/1.1/DTD/svg11.dtd">
<!-- Generated by Microsoft Visio, SVG Export Provisioning.svg Provisioning -->
<svg xmlns="http://www.w3.org/2000/svg" xmlns:xlink="http://www.w3.org/1999/xlink" xmlns:ev="http://www.w3.org/2001/xml-events"
		xmlns:v="http://schemas.microsoft.com/visio/2003/SVGExtensions/" width="19.685in" height="19.685in"
		viewBox="0 0 1417.32 1417.32" xml:space="preserve" color-interpolation-filters="sRGB" class="st2">
	<v:documentProperties v:langID="1033" v:metric="true" v:viewMarkup="false">
		<v:userDefs>
			<v:ud v:nameU="msvNoAutoConnect" v:val="VT0(1):26"/>
		</v:userDefs>
	</v:documentProperties>

	<style type="text/css">
	<![CDATA[
		.st1 {fill:#a0968c;stroke:none;stroke-linecap:butt;stroke-width:5.973}
		.st2 {fill:none;fill-rule:evenodd;font-size:12px;overflow:visible;stroke-linecap:square;stroke-miterlimit:3}
	]]>
	</style>

	<g v:mID="39" v:index="20" v:groupContext="foregroundPage">
		<title>Provisioning</title>
		<v:pageProperties v:drawingScale="0.0393701" v:pageScale="0.0393701" v:drawingUnits="24" v:shadowOffsetX="9"
				v:shadowOffsetY="-9"/>
		<g id="shape1-1" v:mID="1" v:groupContext="shape" transform="translate(0,-109.861)">
			<title>Provisioning</title>
			<path d="M602.63 219.72 L602.63 289.24 L602.63 425.57 L741.13 425.57 L741.13 358.22 L1278.82 358.22 L1278.82 1278.82
						 L741.13 1278.82 L741.13 1216.91 L602.63 1216.91 L602.63 1348.35 L602.63 1417.32 L671.61 1417.32 L1347.8
						 1417.32 L1417.32 1417.32 L1417.32 1348.35 L1417.32 289.24 L1417.32 219.72 L1347.8 219.72 L671.61 219.72
						 L602.63 219.72 ZM667.8 528.76 A69.2122 69.2122 -180 0 0 631.41 654.23 L750.9 742.21 L69.27 742.21 A69.2491
						 69.2491 -180 1 0 69.27 880.71 L755.25 880.71 L634.67 981.73 A69.2122 69.2122 -180 1 0 723.75 1087.64 L996.94
						 857.9 A69.2122 69.2122 -180 0 0 993.68 749.27 L713.43 542.34 A69.2122 69.2122 -180 0 0 667.8 528.76 Z"
					class="st1"/>
		</g>
	</g>
</svg>
