<?xml version="1.0" encoding="UTF-8" standalone="no"?>
<!DOCTYPE svg PUBLIC "-//W3C//DTD SVG 1.1//EN" "http://www.w3.org/Graphics/SVG/1.1/DTD/svg11.dtd">
<!-- Generated by Microsoft Visio, SVG Export Report.svg Report -->
<svg xmlns="http://www.w3.org/2000/svg" xmlns:xlink="http://www.w3.org/1999/xlink" xmlns:ev="http://www.w3.org/2001/xml-events"
		xmlns:v="http://schemas.microsoft.com/visio/2003/SVGExtensions/" width="19.685in" height="19.685in"
		viewBox="0 0 1417.32 1417.32" xml:space="preserve" color-interpolation-filters="sRGB" class="st2">
	<v:documentProperties v:langID="1033" v:metric="true" v:viewMarkup="false">
		<v:userDefs>
			<v:ud v:nameU="msvNoAutoConnect" v:val="VT0(1):26"/>
		</v:userDefs>
	</v:documentProperties>

	<style type="text/css">
	<![CDATA[
		.st1 {fill:#a0968c;stroke:none;stroke-linecap:butt;stroke-width:1.95}
		.st2 {fill:none;fill-rule:evenodd;font-size:12px;overflow:visible;stroke-linecap:square;stroke-miterlimit:3}
	]]>
	</style>

	<g v:mID="19" v:index="26" v:groupContext="foregroundPage">
		<title>Report</title>
		<v:pageProperties v:drawingScale="0.0393701" v:pageScale="0.0393701" v:drawingUnits="24" v:shadowOffsetX="9"
				v:shadowOffsetY="-9"/>
		<g id="shape2-1" v:mID="2" v:groupContext="shape" transform="translate(0,-39.6606)">
			<title>Report</title>
			<path d="M0 79.32 L0 151.67 L319.03 151.67 L319.03 79.32 L0 79.32 ZM391.38 79.32 L391.38 151.67 L725.22 151.67 L725.22
						 79.32 L391.38 79.32 ZM797.57 79.32 L797.57 151.67 L1044.25 151.67 L1044.25 79.32 L797.57 79.32 ZM1116.6
						 79.32 L1116.6 151.67 L1417.32 151.67 L1417.32 79.32 L1116.6 79.32 ZM0 290.26 L0 362.61 L319.03 362.61 L319.03
						 290.26 L0 290.26 ZM391.38 290.26 L391.38 362.61 L725.22 362.61 L725.22 290.26 L391.38 290.26 ZM797.57 290.26
						 L797.57 362.61 L1044.25 362.61 L1044.25 290.26 L797.57 290.26 ZM1116.6 290.26 L1116.6 362.61 L1417.32 362.61
						 L1417.32 290.26 L1116.6 290.26 ZM0 501.21 L0 573.55 L319.03 573.55 L319.03 501.21 L0 501.21 ZM391.38 501.21
						 L391.38 573.55 L725.22 573.55 L725.22 501.21 L391.38 501.21 ZM797.57 501.21 L797.57 573.55 L1044.25 573.55
						 L1044.25 501.21 L797.57 501.21 ZM1116.6 501.21 L1116.6 573.55 L1417.32 573.55 L1417.32 501.21 L1116.6 501.21
						 ZM0 712.15 L0 784.5 L319.03 784.5 L319.03 712.15 L0 712.15 ZM391.38 712.15 L391.38 784.5 L725.22 784.5 L725.22
						 712.15 L391.38 712.15 ZM797.57 712.15 L797.57 784.5 L1044.25 784.5 L1044.25 712.15 L797.57 712.15 ZM1116.6
						 712.15 L1116.6 784.5 L1417.32 784.5 L1417.32 712.15 L1116.6 712.15 ZM0 923.09 L0 995.44 L319.03 995.44 L319.03
						 923.09 L0 923.09 ZM391.38 923.09 L391.38 995.44 L725.22 995.44 L725.22 923.09 L391.38 923.09 ZM797.57 923.09
						 L797.57 995.44 L1044.25 995.44 L1044.25 923.09 L797.57 923.09 ZM1116.6 923.09 L1116.6 995.44 L1417.32 995.44
						 L1417.32 923.09 L1116.6 923.09 ZM0 1134.03 L0 1206.38 L319.03 1206.38 L319.03 1134.03 L0 1134.03 ZM391.38
						 1134.03 L391.38 1206.38 L725.22 1206.38 L725.22 1134.03 L391.38 1134.03 ZM797.57 1134.03 L797.57 1206.38
						 L1044.25 1206.38 L1044.25 1134.03 L797.57 1134.03 ZM1116.6 1134.03 L1116.6 1206.38 L1417.32 1206.38 L1417.32
						 1134.03 L1116.6 1134.03 ZM0 1344.97 L0 1417.32 L319.03 1417.32 L319.03 1344.97 L0 1344.97 ZM391.38 1344.97
						 L391.38 1417.32 L725.22 1417.32 L725.22 1344.97 L391.38 1344.97 ZM797.57 1344.97 L797.57 1417.32 L1044.25
						 1417.32 L1044.25 1344.97 L797.57 1344.97 ZM1116.6 1344.97 L1116.6 1417.32 L1417.32 1417.32 L1417.32 1344.97
						 L1116.6 1344.97 Z" class="st1"/>
		</g>
	</g>
</svg>
