<?xml version="1.0" encoding="UTF-8" standalone="no"?>
<!DOCTYPE svg PUBLIC "-//W3C//DTD SVG 1.1//EN" "http://www.w3.org/Graphics/SVG/1.1/DTD/svg11.dtd">
<!-- Generated by Microsoft Visio, SVG Export SquareDashed.svg Square Dashed -->
<svg xmlns="http://www.w3.org/2000/svg" xmlns:xlink="http://www.w3.org/1999/xlink" xmlns:ev="http://www.w3.org/2001/xml-events"
		xmlns:v="http://schemas.microsoft.com/visio/2003/SVGExtensions/" width="19.685in" height="19.685in"
		viewBox="0 0 1417.32 1417.32" xml:space="preserve" color-interpolation-filters="sRGB" class="st2">
	<v:documentProperties v:langID="1033" v:metric="true" v:viewMarkup="false">
		<v:userDefs>
			<v:ud v:nameU="msvNoAutoConnect" v:val="VT0(1):26"/>
		</v:userDefs>
	</v:documentProperties>

	<style type="text/css">
	<![CDATA[
		.st1 {fill:#a0968c;stroke:none;stroke-linecap:butt;stroke-width:4.5}
		.st2 {fill:none;fill-rule:evenodd;font-size:12px;overflow:visible;stroke-linecap:square;stroke-miterlimit:3}
	]]>
	</style>

	<g v:mID="60" v:index="33" v:groupContext="foregroundPage">
		<title>Square Dashed</title>
		<v:pageProperties v:drawingScale="0.0393701" v:pageScale="0.0393701" v:drawingUnits="24" v:shadowOffsetX="9"
				v:shadowOffsetY="-9"/>
		<g id="shape1-1" v:mID="1" v:groupContext="shape" transform="translate(-1.27898E-013,-0.000119886)">
			<title>Square Dashed</title>
			<path d="M0 0 L0 46.58 L0 377.03 L93.17 377.03 L93.17 93.17 L377.03 93.17 L377.03 0 L0 0 ZM501.25 0 L501.25 93.17 L916.07
						 93.17 L916.07 0 L501.25 0 ZM1040.29 0 L1040.29 93.17 L1324.16 93.17 L1324.16 377.03 L1417.32 377.03 L1417.32
						 0 L1040.29 0 ZM0 501.25 L0 916.07 L93.17 916.07 L93.17 501.25 L0 501.25 ZM1324.16 501.25 L1324.16 916.07
						 L1417.32 916.07 L1417.32 501.25 L1324.16 501.25 ZM0 1040.29 L0 1417.32 L377.03 1417.32 L377.03 1324.16 L93.17
						 1324.16 L93.17 1040.29 L0 1040.29 ZM1324.16 1040.29 L1324.16 1324.16 L1040.29 1324.16 L1040.29 1417.32 L1417.32
						 1417.32 L1417.32 1040.29 L1324.16 1040.29 ZM501.25 1324.16 L501.25 1417.32 L916.07 1417.32 L916.07 1324.16
						 L501.25 1324.16 Z" class="st1"/>
		</g>
	</g>
</svg>
