<?xml version="1.0" encoding="UTF-8" standalone="no"?>
<!DOCTYPE svg PUBLIC "-//W3C//DTD SVG 1.1//EN" "http://www.w3.org/Graphics/SVG/1.1/DTD/svg11.dtd">
<!-- Generated by Microsoft Visio, SVG Export Support.svg Support -->
<svg xmlns="http://www.w3.org/2000/svg" xmlns:xlink="http://www.w3.org/1999/xlink" xmlns:ev="http://www.w3.org/2001/xml-events"
		xmlns:v="http://schemas.microsoft.com/visio/2003/SVGExtensions/" width="19.685in" height="19.685in"
		viewBox="0 0 1417.32 1417.32" xml:space="preserve" color-interpolation-filters="sRGB" class="st2">
	<v:documentProperties v:langID="1033" v:metric="true" v:viewMarkup="false">
		<v:userDefs>
			<v:ud v:nameU="msvNoAutoConnect" v:val="VT0(1):26"/>
		</v:userDefs>
	</v:documentProperties>

	<style type="text/css">
	<![CDATA[
		.st1 {fill:#a0968c;stroke:none;stroke-linecap:butt;stroke-width:0.75}
		.st2 {fill:none;fill-rule:evenodd;font-size:12px;overflow:visible;stroke-linecap:square;stroke-miterlimit:3}
	]]>
	</style>

	<g v:mID="38" v:index="28" v:groupContext="foregroundPage">
		<title>Support</title>
		<v:pageProperties v:drawingScale="0.0393701" v:pageScale="0.0393701" v:drawingUnits="24" v:shadowOffsetX="9"
				v:shadowOffsetY="-9"/>
		<g id="shape2-1" v:mID="2" v:groupContext="shape" transform="translate(62.0632,4.54747E-013)">
			<title>Support</title>
			<path d="M794.79 874.57 C710.85 865.73 675.64 748.23 739.73 694.01 C795.94 637.11 907.16 674.87 914.37 755.47 C926.35
						 822.56 862.2 887.71 794.79 874.57 ZM368.29 874.7 C282.96 865.83 248.24 743.91 315.82 691.38 C373.51 638.09
						 479.85 676.51 487.93 755.53 C499.89 823.01 435.5 886.25 368.29 874.7 ZM596.17 1403.77 C522.36 1393.68 449
						 1318.55 479.34 1241.22 C533.7 1112.6 757.93 1118.83 797.93 1255.73 C856.03 1259.44 916.1 1241 972.89 1226.7
						 C1032.72 1194.4 1048.69 1113.67 1079.3 1056.36 C1093.77 1024.41 1122.01 951.65 1065.73 1003.63 C988.22 1022.64
						 993.72 1115.41 941.68 1164.15 C887.15 1254.97 789.4 1134.88 872.19 1082.84 C916.97 1034.76 901.79 933.71
						 983.57 928.01 C1052.48 912.26 1017.64 828.38 1024.23 778.01 C958.25 755.82 973.22 677.53 966.91 619.77 C974.21
						 541.71 878.05 541.84 822.45 538.21 C733.18 532.72 640.6 546.66 553.78 521.25 C498.42 500.46 457.63 450.69
						 440.16 395.1 C410.17 441.17 395.06 519.92 330.08 540.47 C274.15 549.77 214.43 559.9 227.18 631.56 C223.96
						 682.98 233.71 788.47 151.28 764.54 C99.42 733.95 111.43 862.85 148.71 879.39 C178.39 932.44 261.13 917.67
						 276.58 979.43 C294.51 1061.03 351.76 1125.05 412.81 1178.4 C461.23 1258.06 335.99 1287.66 302.48 1218.86
						 C248.64 1165.46 207.8 1099.77 179.92 1029.73 C89.21 985.9 0 898.11 13.88 788.69 C16.99 703.13 102.34 648.14
						 71.08 558.41 C67 402.92 118.37 237.5 244.62 138.85 C401.13 15.63 623.16 0 807.84 61.16 C970.3 114.6 1088.07
						 266.9 1111.21 434.71 C1125.22 488.18 1095.64 577.54 1181.21 568.47 C1258.21 592.18 1293.2 677.01 1284.46
						 752.2 C1284.28 814.98 1290.45 886.42 1241.51 934.44 C1171.19 967.74 1180.8 1051.86 1146.34 1111.9 C1118.61
						 1170.71 1090.94 1231.67 1049.92 1282.31 C968.15 1327.2 872.1 1333.3 781.23 1344.69 C734.31 1393.58 663.58
						 1417.32 596.17 1403.77 Z" class="st1"/>
		</g>
	</g>
</svg>
