<?xml version="1.0" encoding="UTF-8" standalone="no"?>
<!DOCTYPE svg PUBLIC "-//W3C//DTD SVG 1.1//EN" "http://www.w3.org/Graphics/SVG/1.1/DTD/svg11.dtd">
<!-- Generated by Microsoft Visio, SVG Export Xor.svg XOR -->
<svg xmlns="http://www.w3.org/2000/svg" xmlns:xlink="http://www.w3.org/1999/xlink" xmlns:ev="http://www.w3.org/2001/xml-events"
		xmlns:v="http://schemas.microsoft.com/visio/2003/SVGExtensions/" width="19.685in" height="19.685in"
		viewBox="0 0 1417.32 1417.32" xml:space="preserve" color-interpolation-filters="sRGB" class="st2">
	<v:documentProperties v:langID="1033" v:metric="true" v:viewMarkup="false">
		<v:userDefs>
			<v:ud v:nameU="msvNoAutoConnect" v:val="VT0(1):26"/>
		</v:userDefs>
	</v:documentProperties>

	<style type="text/css">
	<![CDATA[
		.st1 {fill:#000000;stroke:none;stroke-linecap:round;stroke-linejoin:round;stroke-width:0.75}
		.st2 {fill:none;fill-rule:evenodd;font-size:12px;overflow:visible;stroke-linecap:square;stroke-miterlimit:3}
	]]>
	</style>

	<g v:mID="79" v:index="40" v:groupContext="foregroundPage">
		<title>XOR</title>
		<v:pageProperties v:drawingScale="0.0393701" v:pageScale="0.0393701" v:drawingUnits="24" v:shadowOffsetX="9"
				v:shadowOffsetY="-9"/>
		<g id="shape16-1" v:mID="16" v:groupContext="shape" transform="translate(-5.40666E-006,5.40666E-006)">
			<title>XOR</title>
			<path d="M1417.32 708.66 A708.661 708.661 -180 1 0 0 708.66 A708.661 708.661 -180 1 0 1417.32 708.66 ZM1309.95 708.66
						 A601.288 601.288 -180 1 0 107.37 708.66 A601.288 601.288 -180 1 0 1309.95 708.66 ZM765.93 651.4 L765.93
						 236.22 L651.4 236.22 L651.4 651.4 L236.22 651.4 L236.22 765.93 L651.4 765.93 L651.4 1181.1 L765.93 1181.1
						 L765.93 765.93 L1181.1 765.93 L1181.1 651.4 L765.93 651.4 Z" class="st1"/>
		</g>
	</g>
</svg>
