<svg xmlns:rdf="http://www.w3.org/1999/02/22-rdf-syntax-ns#" xmlns="http://www.w3.org/2000/svg" height="100%" width="100%" version="1.1" xmlns:cc="http://creativecommons.org/ns#" xmlns:dc="http://purl.org/dc/elements/1.1/" viewBox="0 0 24 24">
 <path style="fill:#ffce2c" d="m9.2859 4.0486c-0.17847 0-0.3222 0.15062-0.3222 0.33774v13.915c0 0.18711 0.14373 0.33774 0.3222 0.33774h6.4753c0.17847 0 0.32213-0.15062 0.32213-0.33774v-7.2308h0.54611c0.17847 0 0.32213-0.15062 0.32213-0.33774v-5.4625c0-0.18711-0.14366-0.33773-0.32213-0.33773h-0.54611v-0.54654c0-0.18711-0.14366-0.33774-0.32213-0.33774z"/>
 <rect style="fill:#e6e6e6" height="12.957" width="8.8319" y="4.8656" x="6.5429"/>
 <rect style="fill:#fff" height="13.606" width="8.5357" y="4.5408" x="6.1587"/>
 <path style="fill:#ffdb4c" d="m5.9559 3.9122 7.5791-0.5394c0.16102-0.011465 0.29117 0.15622 0.29117 0.35028v15.268c0 0.19406-0.1302 0.36288-0.29117 0.35028l-7.5791-0.593c-0.1609-0.013-0.2911-0.156-0.2911-0.35v-14.135c0-0.19406 0.13014-0.33882 0.29117-0.35028z"/>
</svg>
