<svg xmlns:rdf="http://www.w3.org/1999/02/22-rdf-syntax-ns#" xmlns="http://www.w3.org/2000/svg" height="100%" width="100%" version="1.1" xmlns:cc="http://creativecommons.org/ns#" xmlns:dc="http://purl.org/dc/elements/1.1/" viewBox="0 0 24 24">
 <path style="fill:#ffc72c" d="m5.5058 1.9893c-0.22526 0-0.40667 0.18133-0.40667 0.40659v14.58c0 0.22526 0.18141 0.40658 0.40667 0.40658h12.323c0.22526 0 0.40658-0.18133 0.40658-0.40658v-14.58c0-0.22526-0.18133-0.40659-0.40658-0.40659z"/>
 <path style="fill:#ffdb4c" d="m5.3648 2.1073 7.2607 3.5734c0.15488 0.076224 0.27894 0.32646 0.27894 0.56007v14.463c0 0.23362-0.12399 0.36135-0.27894 0.2833l-7.2612-3.658c-0.1549-0.078-0.2789-0.326-0.2789-0.56v-14.379c0-0.23362 0.12406-0.35952 0.27894-0.2833z"/>
</svg>
