<?xml version="1.0" encoding="UTF-8" standalone="no"?>
<!DOCTYPE svg PUBLIC "-//W3C//DTD SVG 1.1//EN" "http://www.w3.org/Graphics/SVG/1.1/DTD/svg11.dtd">
<!-- Generated by Microsoft Visio, SVG Export SimCard.svg SIM Card -->
<svg xmlns="http://www.w3.org/2000/svg" xmlns:xlink="http://www.w3.org/1999/xlink" xmlns:ev="http://www.w3.org/2001/xml-events"
		xmlns:v="http://schemas.microsoft.com/visio/2003/SVGExtensions/" width="19.685in" height="19.685in"
		viewBox="0 0 1417.32 1417.32" xml:space="preserve" color-interpolation-filters="sRGB" class="st2">
	<v:documentProperties v:langID="1033" v:metric="true" v:viewMarkup="false">
		<v:userDefs>
			<v:ud v:nameU="msvNoAutoConnect" v:val="VT0(1):26"/>
		</v:userDefs>
	</v:documentProperties>

	<style type="text/css">
	<![CDATA[
		.st1 {fill:#a0968c;stroke:none;stroke-linecap:butt;stroke-width:0.75}
		.st2 {fill:none;fill-rule:evenodd;font-size:12px;overflow:visible;stroke-linecap:square;stroke-miterlimit:3}
	]]>
	</style>

	<g v:mID="47" v:index="7" v:groupContext="foregroundPage">
		<title>SIM Card</title>
		<v:pageProperties v:drawingScale="0.0393701" v:pageScale="0.0393701" v:drawingUnits="24" v:shadowOffsetX="9"
				v:shadowOffsetY="-9"/>
		<g id="shape2-1" v:mID="2" v:groupContext="shape" transform="translate(0,-219.74)">
			<title>SIM Card</title>
			<path d="M69.27 439.48 C30.82 439.48 0 470.3 0 508.75 L0 1348.06 C0 1386.5 30.82 1417.32 69.27 1417.32 L1226.72 1417.32
						 L1413.02 1231.02 C1414.4 1229.65 1415.93 1228.5 1417.32 1227.2 L1417.32 508.75 C1417.32 470.3 1386.03 439.48
						 1347.58 439.48 L69.27 439.48 ZM143.31 480.56 L378.33 480.56 C408.11 518.53 416.44 573.29 417.03 612.41 C417.3
						 661.57 405.63 710.01 389.32 730.87 L73.57 730.87 L73.57 549.83 C73.57 511.38 104.86 480.56 143.31 480.56
						 ZM418.46 480.56 L1093.45 480.56 C1131.89 480.56 1162.71 511.38 1162.71 549.83 L1162.71 730.4 L1159.84 730.4
						 L843.13 730.4 C833.16 729.78 832.82 731.33 825.94 735.17 C796.6 766.19 786.12 823.25 785.81 880.39 C785.54
						 930.4 793.25 980.8 815.9 1013.19 C792.27 1045.5 783.23 1097.36 782.94 1149.34 C782.67 1198.89 790.37 1248.29
						 812.56 1280.7 L421.33 1280.7 C443.51 1248.29 450.74 1198.89 450.47 1149.34 C450.18 1097.51 441.48 1045.52
						 417.98 1013.19 C440.54 980.8 447.87 930.39 447.6 880.39 C447.32 829.63 438.97 779.08 416.55 746.64 C440.24
						 714.42 447.88 663.45 447.6 612.41 C447.33 562.85 439.69 513.07 418.46 480.56 ZM844.09 761.45 L1159.84 761.45
						 L1162.71 761.45 L1162.71 999.34 L844.09 999.34 C827.77 978.47 816.11 929.57 816.38 880.39 C816.65 831.75
						 828.56 783.04 844.09 761.45 ZM73.57 761.92 L389.32 761.92 C404.85 783.46 416.76 831.76 417.03 880.39 C417.3
						 929.56 405.63 978.47 389.32 999.34 L76.43 999.34 L73.57 999.34 L73.57 761.92 ZM73.57 1030.39 L76.43 1030.39
						 L390.28 1030.39 C412.6 1066.03 419.41 1114.5 419.89 1149.33 C415.49 1196.74 412.05 1247.03 380.25 1280.7
						 L143.31 1280.7 C104.86 1280.7 73.57 1249.88 73.57 1211.44 L73.57 1030.39 ZM843.13 1030.39 L1162.71 1030.39
						 L1162.71 1211.44 C1162.71 1249.88 1131.89 1280.7 1093.45 1280.7 L853.64 1280.7 C821.1 1245.35 813.68 1187.18
						 813.52 1149.33 C813.76 1105.06 823.44 1060.54 836.92 1036.6 C838.93 1033.78 840.58 1031.95 843.13 1030.39
						 Z" class="st1"/>
		</g>
	</g>
</svg>
