<?xml version="1.0" encoding="UTF-8" standalone="no"?>
<!DOCTYPE svg PUBLIC "-//W3C//DTD SVG 1.1//EN" "http://www.w3.org/Graphics/SVG/1.1/DTD/svg11.dtd">
<!-- Generated by Microsoft Visio, SVG Export SquareAim.svg Square Aim -->
<svg xmlns="http://www.w3.org/2000/svg" xmlns:xlink="http://www.w3.org/1999/xlink" xmlns:ev="http://www.w3.org/2001/xml-events"
		xmlns:v="http://schemas.microsoft.com/visio/2003/SVGExtensions/" width="19.685in" height="19.685in"
		viewBox="0 0 1417.32 1417.32" xml:space="preserve" color-interpolation-filters="sRGB" class="st2">
	<v:documentProperties v:langID="1033" v:metric="true" v:viewMarkup="false">
		<v:userDefs>
			<v:ud v:nameU="msvNoAutoConnect" v:val="VT0(1):26"/>
		</v:userDefs>
	</v:documentProperties>

	<style type="text/css">
	<![CDATA[
		.st1 {fill:#a0968c;stroke:none;stroke-linecap:butt;stroke-width:4.5}
		.st2 {fill:none;fill-rule:evenodd;font-size:12px;overflow:visible;stroke-linecap:square;stroke-miterlimit:3}
	]]>
	</style>

	<g v:mID="59" v:index="32" v:groupContext="foregroundPage">
		<title>Square Aim</title>
		<v:pageProperties v:drawingScale="0.0393701" v:pageScale="0.0393701" v:drawingUnits="24" v:shadowOffsetX="9"
				v:shadowOffsetY="-9"/>
		<g id="shape1-1" v:mID="1" v:groupContext="shape" transform="translate(0,-5.82302E-005)">
			<title>Square Aim</title>
			<path d="M0 0 L0 46.58 L0 646.55 L93.17 646.55 L93.17 93.17 L646.55 93.17 L646.55 0 L0 0 ZM770.77 0 L770.77 93.17 L1324.16
						 93.17 L1324.16 646.55 L1417.32 646.55 L1417.32 0 L770.77 0 ZM0 770.77 L0 1417.32 L646.55 1417.32 L646.55
						 1324.16 L93.17 1324.16 L93.17 770.77 L0 770.77 ZM1324.16 770.77 L1324.16 1324.16 L770.77 1324.16 L770.77
						 1417.32 L1417.32 1417.32 L1417.32 770.77 L1324.16 770.77 L1324.16 770.77 Z" class="st1"/>
		</g>
	</g>
</svg>
