<?xml version="1.0" encoding="UTF-8" standalone="no"?>
<!DOCTYPE svg PUBLIC "-//W3C//DTD SVG 1.1//EN" "http://www.w3.org/Graphics/SVG/1.1/DTD/svg11.dtd">
<!-- Generated by Microsoft Visio, SVG Export Unsubscribe.svg Unsubscribe -->
<svg xmlns="http://www.w3.org/2000/svg" xmlns:xlink="http://www.w3.org/1999/xlink" xmlns:ev="http://www.w3.org/2001/xml-events"
		xmlns:v="http://schemas.microsoft.com/visio/2003/SVGExtensions/" width="19.685in" height="19.685in"
		viewBox="0 0 1417.32 1417.32" xml:space="preserve" color-interpolation-filters="sRGB" class="st2">
	<v:documentProperties v:langID="1033" v:metric="true" v:viewMarkup="false">
		<v:userDefs>
			<v:ud v:nameU="msvNoAutoConnect" v:val="VT0(1):26"/>
		</v:userDefs>
	</v:documentProperties>

	<style type="text/css">
	<![CDATA[
		.st1 {fill:#a0968c;stroke:none;stroke-linecap:butt;stroke-width:5.973}
		.st2 {fill:none;fill-rule:evenodd;font-size:12px;overflow:visible;stroke-linecap:square;stroke-miterlimit:3}
	]]>
	</style>

	<g v:mID="34" v:index="24" v:groupContext="foregroundPage">
		<title>Unsubscribe</title>
		<v:pageProperties v:drawingScale="0.0393701" v:pageScale="0.0393701" v:drawingUnits="24" v:shadowOffsetX="9"
				v:shadowOffsetY="-9"/>
		<g id="shape2-1" v:mID="2" v:groupContext="shape" transform="translate(2.97159E-007,-150.299)">
			<title>Unsubscribe</title>
			<path d="M0 300.6 L0 365.42 L0 1353 L0 1417.32 L64.83 1417.32 L695.36 1417.32 L759.68 1417.32 L759.68 1353 L759.68 1051.16
						 L630.53 1051.16 L630.53 1288.18 L129.15 1288.18 L129.15 429.74 L630.53 429.74 L630.53 662.2 L759.68 662.2
						 L759.68 365.42 L759.68 300.6 L695.36 300.6 L64.83 300.6 L0 300.6 ZM1087.35 588.77 A64.5382 64.5382 -180
						 0 0 1053.42 705.76 L1164.84 787.8 L529.24 787.8 A64.5725 64.5725 -180 1 0 529.24 916.95 L1168.38 916.95
						 L1056.46 1011.15 A64.5382 64.5382 -180 1 0 1139.01 1109.91 L1394.26 895.68 A64.5382 64.5382 -180 0 0 1391.22
						 794.39 L1129.89 601.94 A64.5382 64.5382 -180 0 0 1087.35 588.77 Z" class="st1"/>
		</g>
	</g>
</svg>
