<?xml version="1.0" encoding="UTF-8" standalone="no"?>
<!-- Created with Inkscape (http://www.inkscape.org/) -->

<svg
   xmlns:dc="http://purl.org/dc/elements/1.1/"
   xmlns:cc="http://creativecommons.org/ns#"
   xmlns:rdf="http://www.w3.org/1999/02/22-rdf-syntax-ns#"
   xmlns:svg="http://www.w3.org/2000/svg"
   xmlns="http://www.w3.org/2000/svg"
   xmlns:sodipodi="http://sodipodi.sourceforge.net/DTD/sodipodi-0.dtd"
   xmlns:inkscape="http://www.inkscape.org/namespaces/inkscape"
   width="210mm"
   height="297mm"
   viewBox="0 0 744.09448819 1052.3622047"
   id="svg2"
   version="1.1"
   inkscape:version="0.91 r13725"
   sodipodi:docname="folder_color=.svg">
  <defs
     id="defs4" />
  <sodipodi:namedview
     id="base"
     pagecolor="#ffffff"
     bordercolor="#666666"
     borderopacity="1.0"
     inkscape:pageopacity="0.0"
     inkscape:pageshadow="2"
     inkscape:zoom="0.7"
     inkscape:cx="569.65842"
     inkscape:cy="615.73523"
     inkscape:document-units="px"
     inkscape:current-layer="layer1"
     showgrid="false"
     inkscape:window-width="2560"
     inkscape:window-height="1346"
     inkscape:window-x="-11"
     inkscape:window-y="-11"
     inkscape:window-maximized="1" />
  <metadata
     id="metadata7">
    <rdf:RDF>
      <cc:Work
         rdf:about="">
        <dc:format>image/svg+xml</dc:format>
        <dc:type
           rdf:resource="http://purl.org/dc/dcmitype/StillImage" />
        <dc:title></dc:title>
      </cc:Work>
    </rdf:RDF>
  </metadata>
  <g
     inkscape:label="Layer 1"
     inkscape:groupmode="layer"
     id="layer1">
    <path
       style="fill:#ffce2c;fill-opacity:1;stroke:none;stroke-opacity:1"
       d="m 307.48566,250.93301 c -5.13876,0 -9.27735,4.13664 -9.27735,9.27539 l 0,382.16211 c 0,5.13875 4.13859,9.27539 9.27735,9.27539 l 186.44782,0 c 5.13875,0 9.27539,-4.13664 9.27539,-9.27539 l 0,-198.58204 15.72461,0 c 5.13875,0 9.27539,-4.13664 9.27539,-9.27539 l 0,-150.01952 c 0,-5.13876 -4.13664,-9.27539 -9.27539,-9.27539 l -15.72461,0 0,-15.00977 c 0,-5.13875 -4.13664,-9.27539 -9.27539,-9.27539 z"
       id="rect4259"
       inkscape:connector-curvature="0"
       sodipodi:nodetypes="sssssscsssscsss" />
    <rect
       style="fill:#e6e6e6;fill-opacity:1;stroke:none;stroke-width:0.87520915;stroke-opacity:1"
       id="rect4263-4"
       width="262.26764"
       height="355.83908"
       x="228.50392"
       y="273.36981" />
    <rect
       style="fill:#ffffff;fill-opacity:1;stroke:none;stroke-width:0.89439887;stroke-opacity:1"
       id="rect4263"
       width="260.81989"
       height="373.67703"
       x="217.44209"
       y="264.45084" />
    <path
       style="fill:#ffdb4c;fill-opacity:1;stroke:none;stroke-width:1.02109635;stroke-opacity:1"
       d="m 212.39285,247.1878 238.77548,-14.81594 c 5.07305,-0.31478 9.17315,4.29052 9.17315,9.62001 l 0,419.30913 c 0,5.32948 -4.10196,9.96614 -9.17315,9.62001 L 212.39285,654.62347 c -5.07119,-0.34613 -9.17315,-4.29053 -9.17315,-9.62001 l 0,-388.19565 c 0,-5.32949 4.1001,-9.30522 9.17315,-9.62001 z"
       id="rect4257"
       inkscape:connector-curvature="0"
       sodipodi:nodetypes="sssssssss" />
  </g>
</svg>
