<?xml version="1.0" encoding="UTF-8" standalone="yes"?>
<svg>
  <defs>
    <svg viewBox="0 0 24 24" id="add">
      <path d="M19 3H5a2 2 0 0 0-2 2v14a2 2 0 0 0 2 2h14c1.1 0 2-.9 2-2V5c0-1.1-.9-2-2-2zm-2 10h-4v4h-2v-4H7v-2h4V7h2v4h4v2z"/>
    </svg>
  </defs>
  <defs>
    <svg viewBox="0 0 24 24" id="apps">
      <path d="M4 8h4V4H4v4zm6 12h4v-4h-4v4zm-6 0h4v-4H4v4zm0-6h4v-4H4v4zm6 0h4v-4h-4v4zm6-10v4h4V4h-4zm-6 4h4V4h-4v4zm6 6h4v-4h-4v4zm0 6h4v-4h-4v4z"/>
    </svg>
  </defs>
  <defs>
    <svg viewBox="0 0 24 24" id="band_color">
      <path fill="#565656" d="M4.732 5.266v13.11H19.09V5.267zm.575 2.406h13.207v10.13H5.307z" style="line-height:normal;text-indent:0;text-align:start;text-decoration-line:none;text-decoration-style:solid;text-decoration-color:#000;text-transform:none;block-progression:tb;isolation:auto;mix-blend-mode:normal" color="#000" font-weight="400" font-family="sans-serif" white-space="normal" overflow="visible"/>
    </svg>
  </defs>
  <defs>
    <svg viewBox="0 0 24 24" id="box">
      <path d="M19 5v14H5V5h14m0-2H5c-1.1 0-2 .9-2 2v14c0 1.1.9 2 2 2h14c1.1 0 2-.9 2-2V5c0-1.1-.9-2-2-2z"/>
    </svg>
  </defs>
  <defs>
    <svg viewBox="0 0 24 24" id="brick">
      <path d="M19 7H5c-1.1 0-2 .9-2 2v6c0 1.1.9 2 2 2h14c1.1 0 2-.9 2-2V9c0-1.1-.9-2-2-2zm0 8H5V9h14v6z"/>
    </svg>
  </defs>
  <defs>
    <svg viewBox="0 0 24 24" id="cancel">
      <path d="M19 6.41L17.59 5 12 10.59 6.41 5 5 6.41 10.59 12 5 17.59 6.41 19 12 13.41 17.59 19 19 17.59 13.41 12z"/>
    </svg>
  </defs>
  <defs>
    <svg viewBox="0 0 24 24" id="circle">
      <circle cx="12" cy="12" r="6.445"/>
    </svg>
  </defs>
  <defs>
    <svg viewBox="0 0 24 24" id="copy">
      <path d="M16 1H4c-1.1 0-2 .9-2 2v14h2V3h12V1zm3 4H8c-1.1 0-2 .9-2 2v14c0 1.1.9 2 2 2h11c1.1 0 2-.9 2-2V7c0-1.1-.9-2-2-2zm0 16H8V7h11v14z"/>
    </svg>
  </defs>
  <defs>
    <svg viewBox="0 0 24 24" id="cut">
      <path d="M9.64 7.64c.23-.5.36-1.05.36-1.64 0-2.21-1.79-4-4-4S2 3.79 2 6s1.79 4 4 4c.59 0 1.14-.13 1.64-.36L10 12l-2.36 2.36C7.14 14.13 6.59 14 6 14c-2.21 0-4 1.79-4 4s1.79 4 4 4 4-1.79 4-4c0-.59-.13-1.14-.36-1.64L12 14l7 7h3v-1L9.64 7.64zM6 8a2 2 0 1 1 0-4 2 2 0 0 1 0 4zm0 12a2 2 0 1 1 0-4 2 2 0 0 1 0 4zm6-7.5c-.28 0-.5-.22-.5-.5s.22-.5.5-.5.5.22.5.5-.22.5-.5.5zM19 3l-6 6 2 2 7-7V3z"/>
    </svg>
  </defs>
  <defs>
    <svg viewBox="0 0 24 24" id="delete">
      <path d="M6 19c0 1.1.9 2 2 2h8c1.1 0 2-.9 2-2V7H6v12zM19 4h-3.5l-1-1h-5l-1 1H5v2h14V4z"/>
    </svg>
  </defs>
  <defs>
    <svg viewBox="0 0 24 24" id="down">
      <path d="M7 10l5 5 5-5z"/>
    </svg>
  </defs>
  <defs>
    <svg viewBox="0 0 24 24" id="download">
      <path d="M19 9h-4V3H9v6H5l7 7 7-7zM5 18v2h14v-2H5z"/>
    </svg>
  </defs>
  <defs>
    <svg viewBox="0 0 24 24" id="edit">
      <path d="M3 17.25V21h3.75L17.81 9.94l-3.75-3.75L3 17.25zM20.71 7.04a.996.996 0 0 0 0-1.41l-2.34-2.34a.996.996 0 0 0-1.41 0l-1.83 1.83 3.75 3.75 1.83-1.83z"/>
    </svg>
  </defs>
  <defs>
    <svg viewBox="0 0 24 24" id="file">
      <path d="M6 2c-1.1 0-1.99.9-1.99 2L4 20c0 1.1.89 2 1.99 2H18c1.1 0 2-.9 2-2V8l-6-6H6zm7 7V3.5L18.5 9H13z"/>
    </svg>
  </defs>
  <defs>
    <svg viewBox="0 0 24 24" id="file_color">
      <path fill="#fff" d="M5.957 2.13v16.373H17.83V5.32l-3.163-3.19h-.082z"/>
      <path fill="#587a72" d="M5.73 1.903v16.842h12.326V5.185l-3.283-3.283H5.73zm.41.41h8.27V5.5h3.237v12.836H6.14V2.312zm8.68.214l2.56 2.563h-2.56V2.527z"/>
      <path fill="#587a72" d="M5.73 1.903v16.842h12.326V5.185l-3.283-3.283H5.73zm.41.41h8.27V5.5h3.237v12.836H6.14V2.312zm8.68.214l2.56 2.563h-2.56V2.527z"/>
    </svg>
  </defs>
  <defs>
    <svg viewBox="0 0 24 24" id="flavor_color">
      <path fill="#565656" d="M8.14 5.266v13.11h7.543V5.267zm.606.78h6.38v11.757h-6.38z" style="line-height:normal;text-indent:0;text-align:start;text-decoration-line:none;text-decoration-style:solid;text-decoration-color:#000;text-transform:none;block-progression:tb;isolation:auto;mix-blend-mode:normal" color="#000" font-weight="400" font-family="sans-serif" white-space="normal" overflow="visible"/>
    </svg>
  </defs>
  <defs>
    <svg viewBox="0 0 24 24" id="folder">
      <path d="M20 6h-8l-2-2H4c-1.1 0-1.99.9-1.99 2L2 18c0 1.1.9 2 2 2h16c1.1 0 2-.9 2-2V8c0-1.1-.9-2-2-2zm0 12H4V8h16v10z"/>
    </svg>
  </defs>
  <defs>
    <svg viewBox="0 0 24 24" id="folder_color">
      <path fill="#ffc72c" d="M5.506 1.99a.406.406 0 0 0-.407.406v14.58c0 .225.18.406.406.406H17.83c.224 0 .405-.18.405-.406V2.396a.406.406 0 0 0-.406-.407z"/>
      <path fill="#ffdb4c" d="M5.365 2.107l7.26 3.574c.155.077.28.327.28.56v14.464c0 .233-.125.36-.28.283l-7.26-3.658c-.156-.08-.28-.327-.28-.56V2.39c0-.234.124-.36.28-.283z"/>
    </svg>
  </defs>
  <defs>
    <svg viewBox="0 0 24 24" id="folder_files">
      <path fill="#ffce2c" d="M9.286 4.05a.33.33 0 0 0-.322.336V18.3a.33.33 0 0 0 .322.34h6.475a.33.33 0 0 0 .323-.34v-7.23h.546a.33.33 0 0 0 .322-.337V5.27a.33.33 0 0 0-.323-.337h-.547v-.547a.33.33 0 0 0-.322-.338z"/>
      <path fill="#e6e6e6" d="M6.543 4.866h8.832v12.957H6.543z"/>
      <path fill="#fff" d="M6.16 4.54h8.535v13.607H6.16z"/>
      <path fill="#ffdb4c" d="M5.956 3.912l7.58-.54c.16-.01.29.157.29.35v15.27c0 .193-.13.362-.29.35l-7.58-.594c-.16-.013-.29-.156-.29-.35V4.263c0-.194.13-.338.29-.35z"/>
    </svg>
  </defs>
  <defs>
    <svg viewBox="0 0 24 24" id="hdots">
      <path d="M6 10c-1.1 0-2 .9-2 2s.9 2 2 2 2-.9 2-2-.9-2-2-2zM18 10c-1.1 0-2 .9-2 2s.9 2 2 2 2-.9 2-2-.9-2-2-2zM12 10c-1.1 0-2 .9-2 2s.9 2 2 2 2-.9 2-2-.9-2-2-2z"/>
    </svg>
  </defs>
  <defs>
    <svg viewBox="0 0 24 24" id="lines">
      <path d="M3 21h18v-2H3v2zM3 17h18v-2H3v2zM3 13h18v-2H3v2zM3 9h18V7H3v2zM3 3v2h18V3H3z"/>
    </svg>
  </defs>
  <defs>
    <svg viewBox="0 0 24 24" id="login">
      <path d="M10 17.25V14H3v-4h7V6.75L15.25 12 10 17.25"/>
      <path d="M8 2h9a2 2 0 0 1 2 2v16a2 2 0 0 1-2 2H8a2 2 0 0 1-2-2v-4h2v4h9V4H8v4H6V4a2 2 0 0 1 2-2z"/>
    </svg>
  </defs>
  <defs>
    <svg viewBox="0 0 24 24" id="logout">
      <path d="M17 17.25V14h-7v-4h7V6.75L22.25 12 17 17.25"/>
      <path d="M13 2a2 2 0 0 1 2 2v4h-2V4H4v16h9v-4h2v4a2 2 0 0 1-2 2H4a2 2 0 0 1-2-2V4a2 2 0 0 1 2-2h9z"/>
    </svg>
  </defs>
  <defs>
    <svg viewBox="0 0 24 24" id="menu">
      <path fill="none" d="M0 0h24v24H0z"/>
      <path d="M3 18h18v-2H3v2zm0-5h18v-2H3v2zm0-7v2h18V6H3z"/>
    </svg>
  </defs>
  <defs>
    <svg viewBox="0 0 24 24" id="minus">
      <path d="M19 13H5v-2h14v2z"/>
    </svg>
  </defs>
  <defs>
    <svg viewBox="0 0 24 24" id="new">
      <path d="M14 2H6c-1.1 0-1.99.9-1.99 2L4 20c0 1.1.89 2 1.99 2H18c1.1 0 2-.9 2-2V8l-6-6zm2 14h-3v3h-2v-3H8v-2h3v-3h2v3h3v2zm-3-7V3.5L18.5 9H13z"/>
    </svg>
  </defs>
  <defs>
    <svg viewBox="0 0 24 24" id="paste">
      <path d="M19 2h-4.18C14.4.84 13.3 0 12 0c-1.3 0-2.4.84-2.82 2H5c-1.1 0-2 .9-2 2v16c0 1.1.9 2 2 2h14c1.1 0 2-.9 2-2V4c0-1.1-.9-2-2-2zm-7 0c.55 0 1 .45 1 1s-.45 1-1 1-1-.45-1-1 .45-1 1-1zm7 18H5V4h2v3h10V4h2v16z"/>
    </svg>
  </defs>
  <defs>
    <svg viewBox="0 0 24 24" id="person">
      <path d="M12 12c2.21 0 4-1.79 4-4s-1.79-4-4-4-4 1.79-4 4 1.79 4 4 4zM12 14c-2.67 0-8 1.34-8 4v2h16v-2c0-2.66-5.33-4-8-4z"/>
    </svg>
  </defs>
  <defs>
    <svg viewBox="0 0 24 24" id="rect">
      <path d="M5.237 3v18.004h13.526V3H5.237z"/>
    </svg>
  </defs>
  <defs>
    <svg viewBox="0 0 24 24" id="redo">
      <path d="M18.4 10.6C16.55 8.99 14.15 8 11.5 8c-4.65 0-8.58 3.03-9.96 7.22L3.9 16a8.002 8.002 0 0 1 7.6-5.5c1.95 0 3.73.72 5.12 1.88L13 16h9V7l-3.6 3.6z"/>
    </svg>
  </defs>
  <defs>
    <svg viewBox="0 0 24 24" id="save">
      <path d="M17 3H5a2 2 0 0 0-2 2v14a2 2 0 0 0 2 2h14c1.1 0 2-.9 2-2V7l-4-4zm-5 16c-1.66 0-3-1.34-3-3s1.34-3 3-3 3 1.34 3 3-1.34 3-3 3zm3-10H5V5h10v4z"/>
    </svg>
  </defs>
  <defs>
    <svg viewBox="0 0 24 24" id="select">
      <path d="M3 5h2V3c-1.1 0-2 .9-2 2zm0 8h2v-2H3v2zm4 8h2v-2H7v2zM3 9h2V7H3v2zm10-6h-2v2h2V3zm6 0v2h2c0-1.1-.9-2-2-2zM5 21v-2H3c0 1.1.9 2 2 2zm-2-4h2v-2H3v2zM9 3H7v2h2V3zm2 18h2v-2h-2v2zm8-8h2v-2h-2v2zm0 8c1.1 0 2-.9 2-2h-2v2zm0-12h2V7h-2v2zm0 8h2v-2h-2v2zm-4 4h2v-2h-2v2zm0-16h2V3h-2v2zM7 17h10V7H7v10zm2-8h6v6H9V9z"/>
    </svg>
  </defs>
  <defs>
    <svg viewBox="0 0 24 24" id="settings">
      <path d="M19.43 12.98c.04-.32.07-.64.07-.98s-.03-.66-.07-.98l2.11-1.65c.19-.15.24-.42.12-.64l-2-3.46c-.12-.22-.39-.3-.61-.22l-2.49 1c-.52-.4-1.08-.73-1.69-.98l-.38-2.65A.488.488 0 0 0 14 2h-4c-.25 0-.46.18-.49.42l-.38 2.65c-.61.25-1.17.59-1.69.98l-2.49-1c-.23-.09-.49 0-.61.22l-2 3.46c-.13.22-.07.49.12.64l2.11 1.65c-.04.32-.07.65-.07.98s.03.66.07.98l-2.11 1.65c-.19.15-.24.42-.12.64l2 3.46c.12.22.39.3.61.22l2.49-1c.52.4 1.08.73 1.69.98l.38 2.65c.03.24.24.42.49.42h4c.25 0 .46-.18.49-.42l.38-2.65c.61-.25 1.17-.59 1.69-.98l2.49 1c.23.09.49 0 .61-.22l2-3.46c.12-.22.07-.49-.12-.64l-2.11-1.65zM12 15.5c-1.93 0-3.5-1.57-3.5-3.5s1.57-3.5 3.5-3.5 3.5 1.57 3.5 3.5-1.57 3.5-3.5 3.5z"/>
    </svg>
  </defs>
  <defs>
    <svg viewBox="0 0 24 24" id="share">
      <path d="M21 11l-7-7v4C7 9 4 14 3 19c2.5-3.5 6-5.1 11-5.1V18l7-7z"/>
    </svg>
  </defs>
  <defs>
    <svg viewBox="0 0 24 24" id="stand">
      <path d="M17 3H7c-1.1 0-2 .9-2 2v14c0 1.1.9 2 2 2h10c1.1 0 2-.9 2-2V5c0-1.1-.9-2-2-2zm0 16H7V5h10v14z"/>
    </svg>
  </defs>
  <defs>
    <svg viewBox="0 0 24 24" id="undo">
      <path d="M12.5 8c-2.65 0-5.05.99-6.9 2.6L2 7v9h9l-3.62-3.62c1.39-1.16 3.16-1.88 5.12-1.88 3.54 0 6.55 2.31 7.6 5.5l2.37-.78C21.08 11.03 17.15 8 12.5 8z"/>
    </svg>
  </defs>
  <defs>
    <svg viewBox="0 0 24 24" id="up">
      <path d="M7 14l5-5 5 5z"/>
    </svg>
  </defs>
  <defs>
    <svg viewBox="0 0 24 24" id="upload">
      <path d="M9 16h6v-6h4l-7-7-7 7h4zM5 18h14v2H5z"/>
    </svg>
  </defs>
  <defs>
    <svg viewBox="0 0 24 24" id="vdots">
      <path d="M12 8c1.1 0 2-.9 2-2s-.9-2-2-2-2 .9-2 2 .9 2 2 2zM12 16c-1.1 0-2 .9-2 2s.9 2 2 2 2-.9 2-2-.9-2-2-2zM12 10c-1.1 0-2 .9-2 2s.9 2 2 2 2-.9 2-2-.9-2-2-2z"/>
    </svg>
  </defs>
</svg>