<?xml version="1.0" encoding="UTF-8" standalone="yes"?>
<svg>
  <defs>
    <svg viewBox="0 0 24 24" id="more_vert">
      <path d="M12 8c1.1 0 2-.9 2-2s-.9-2-2-2-2 .9-2 2 .9 2 2 2z"/><path d="M12 16c-1.1 0-2 .9-2 2s.9 2 2 2 2-.9 2-2-.9-2-2-2z"/><path d="M12 10c-1.1 0-2 .9-2 2s.9 2 2 2 2-.9 2-2-.9-2-2-2z"/>
    </svg>
  </defs>
  <defs>
    <svg viewBox="0 0 24 24" id="add">
      <path d="M19 13h-6v6h-2v-6H5v-2h6V5h2v6h6v2z"/>
    </svg>
  </defs>
  <defs>
    <svg viewBox="0 0 24 24" id="delete">
      <path d="M6 19c0 1.1.9 2 2 2h8c1.1 0 2-.9 2-2V7H6v12z"/><path d="M19 4h-3.5l-1-1h-5l-1 1H5v2h14V4z"/>
    </svg>
  </defs>
  <defs>
    <svg viewBox="0 0 24 24" id="content_cut">
      <path d="M9.64 7.64c.23-.5.36-1.05.36-1.64 0-2.21-1.79-4-4-4S2 3.79 2 6s1.79 4 4 4c.59 0 1.14-.13 1.64-.36L10 12l-2.36 2.36C7.14 14.13 6.59 14 6 14c-2.21 0-4 1.79-4 4s1.79 4 4 4 4-1.79 4-4c0-.59-.13-1.14-.36-1.64L12 14l7 7h3v-1L9.64 7.64zM6 8c-1.1 0-2-.89-2-2s.9-2 2-2 2 .89 2 2-.9 2-2 2zm0 12c-1.1 0-2-.89-2-2s.9-2 2-2 2 .89 2 2-.9 2-2 2zm6-7.5c-.28 0-.5-.22-.5-.5s.22-.5.5-.5.5.22.5.5-.22.5-.5.5zM19 3l-6 6 2 2 7-7V3z"/>
    </svg>
  </defs>
  <defs>
    <svg viewBox="0 0 24 24" id="content_copy">
      <path d="M16 1H4c-1.1 0-2 .9-2 2v14h2V3h12V1zm3 4H8c-1.1 0-2 .9-2 2v14c0 1.1.9 2 2 2h11c1.1 0 2-.9 2-2V7c0-1.1-.9-2-2-2zm0 16H8V7h11v14z"/>
    </svg>
  </defs>
  <defs>
    <svg viewBox="0 0 24 24" id="content_paste">
      <path d="M19 2h-4.18C14.4.84 13.3 0 12 0c-1.3 0-2.4.84-2.82 2H5c-1.1 0-2 .9-2 2v16c0 1.1.9 2 2 2h14c1.1 0 2-.9 2-2V4c0-1.1-.9-2-2-2zm-7 0c.55 0 1 .45 1 1s-.45 1-1 1-1-.45-1-1 .45-1 1-1zm7 18H5V4h2v3h10V4h2v16z"/>
    </svg>
  </defs>
  <defs>
    <svg viewBox="0 0 24 24" id="share">
      <path d="M18 16.08c-.76 0-1.44.3-1.96.77L8.91 12.7c.05-.23.09-.46.09-.7s-.04-.47-.09-.7l7.05-4.11c.54.5 1.25.81 2.04.81 1.66 0 3-1.34 3-3s-1.34-3-3-3-3 1.34-3 3c0 .24.04.47.09.7L8.04 9.81C7.5 9.31 6.79 9 6 9c-1.66 0-3 1.34-3 3s1.34 3 3 3c.79 0 1.5-.31 2.04-.81l7.12 4.16c-.05.21-.08.43-.08.65 0 1.61 1.31 2.92 2.92 2.92 1.61 0 2.92-1.31 2.92-2.92s-1.31-2.92-2.92-2.92z"/>
    </svg>
  </defs>
  <defs>
    <svg viewBox="0 0 24 24" id="undo">
      <path d="M12.5 8c-2.65 0-5.05.99-6.9 2.6L2 7v9h9l-3.62-3.62c1.39-1.16 3.16-1.88 5.12-1.88 3.54 0 6.55 2.31 7.6 5.5l2.37-.78C21.08 11.03 17.15 8 12.5 8z"/>
    </svg>
  </defs>
  <defs>
    <svg viewBox="0 0 24 24" id="save">
      <path d="M17 3H5c-1.11 0-2 .9-2 2v14c0 1.1.89 2 2 2h14c1.1 0 2-.9 2-2V7l-4-4zm-5 16c-1.66 0-3-1.34-3-3s1.34-3 3-3 3 1.34 3 3-1.34 3-3 3zm3-10H5V5h10v4z"/>
    </svg>
  </defs>
  <defs>
    <svg viewBox="0 0 24 24" id="crop_7_5">
      <path d="M19 7H5c-1.1 0-2 .9-2 2v6c0 1.1.9 2 2 2h14c1.1 0 2-.9 2-2V9c0-1.1-.9-2-2-2zm0 8H5V9h14v6z"/>
    </svg>
  </defs>
  <defs>
    <svg viewBox="0 0 24 24" id="cancel">
      <path d="M12 2C6.47 2 2 6.47 2 12s4.47 10 10 10 10-4.47 10-10S17.53 2 12 2zm5 13.59L15.59 17 12 13.41 8.41 17 7 15.59 10.59 12 7 8.41 8.41 7 12 10.59 15.59 7 17 8.41 13.41 12 17 15.59z"/>
    </svg>
  </defs>
  <defs>
    <svg viewBox="0 0 24 24" id="keyboard_arrow_right">
      <path d="M8.59 16.34l4.58-4.59-4.58-4.59L10 5.75l6 6-6 6z"/>
    </svg>
  </defs>
  <defs>
    <svg viewBox="0 0 24 24" id="person">
      <path d="M12 12c2.21 0 4-1.79 4-4s-1.79-4-4-4-4 1.79-4 4 1.79 4 4 4z"/><path d="M12 14c-2.67 0-8 1.34-8 4v2h16v-2c0-2.66-5.33-4-8-4z"/>
    </svg>
  </defs>
  <defs>
    <svg viewBox="0 0 24 24" id="note_add">
      <path d="M14 2H6c-1.1 0-1.99.9-1.99 2L4 20c0 1.1.89 2 1.99 2H18c1.1 0 2-.9 2-2V8l-6-6zm2 14h-3v3h-2v-3H8v-2h3v-3h2v3h3v2zm-3-7V3.5L18.5 9H13z"/>
    </svg>
  </defs>
  <defs>
    <svg viewBox="0 0 24 24" id="edit">
      <path d="M3 17.25V21h3.75L17.81 9.94l-3.75-3.75L3 17.25z"/><path d="M20.71 7.04c.39-.39.39-1.02 0-1.41l-2.34-2.34c-.39-.39-1.02-.39-1.41 0l-1.83 1.83 3.75 3.75 1.83-1.83z"/>
    </svg>
  </defs>
  <defs>
    <svg viewBox="0 0 24 24" id="logout">
      <path d="M17 17.25V14h-7v-4h7V6.75L22.25 12 17 17.25"/><path d="M13 2a2 2 0 0 1 2 2v4h-2V4H4v16h9v-4h2v4a2 2 0 0 1-2 2H4a2 2 0 0 1-2-2V4a2 2 0 0 1 2-2h9z"/>
    </svg>
  </defs>
  <defs>
    <svg viewBox="0 0 24 24" id="keyboard_arrow_left">
      <path d="M15.41 16.09l-4.58-4.59 4.58-4.59L14 5.5l-6 6 6 6z"/>
    </svg>
  </defs>
</svg>