<?xml version="1.0" encoding="UTF-8" standalone="no"?>
<!-- Created with Inkscape (http://www.inkscape.org/) -->

<svg
   xmlns:dc="http://purl.org/dc/elements/1.1/"
   xmlns:cc="http://creativecommons.org/ns#"
   xmlns:rdf="http://www.w3.org/1999/02/22-rdf-syntax-ns#"
   xmlns:svg="http://www.w3.org/2000/svg"
   xmlns="http://www.w3.org/2000/svg"
   xmlns:sodipodi="http://sodipodi.sourceforge.net/DTD/sodipodi-0.dtd"
   xmlns:inkscape="http://www.inkscape.org/namespaces/inkscape"
   width="10cm"
   height="10cm"
   viewBox="0 0 354.33071 354.3307"
   id="svg2"
   version="1.1"
   inkscape:version="0.91 r13725"
   sodipodi:docname="Etisalat Logo - square.svg">
  <defs
     id="defs4">
    <clipPath
       id="clipPath4150"
       clipPathUnits="userSpaceOnUse">
      <path
         inkscape:connector-curvature="0"
         id="path4152"
         d="m 0,841.89 595.275,0 L 595.275,0 0,0 0,841.89 Z" />
    </clipPath>
    <clipPath
       id="clipPath4222"
       clipPathUnits="userSpaceOnUse">
      <path
         inkscape:connector-curvature="0"
         id="path4224"
         d="m 0,841.89 595.275,0 L 595.275,0 0,0 0,841.89 Z" />
    </clipPath>
    <clipPath
       id="clipPath4282"
       clipPathUnits="userSpaceOnUse">
      <path
         inkscape:connector-curvature="0"
         id="path4284"
         d="m 170.519,612.001 260.113,0 0,-235.272 -260.113,0 0,235.272 z" />
    </clipPath>
    <clipPath
       id="clipPath4298"
       clipPathUnits="userSpaceOnUse">
      <path
         inkscape:connector-curvature="0"
         id="path4300"
         d="m 0,841.89 595.275,0 L 595.275,0 0,0 0,841.89 Z" />
    </clipPath>
    <clipPath
       id="clipPath4358"
       clipPathUnits="userSpaceOnUse">
      <path
         inkscape:connector-curvature="0"
         id="path4360"
         d="m 168.532,614.001 264.103,0 0,-239.272 -264.103,0 0,239.272 z" />
    </clipPath>
    <clipPath
       id="clipPath4887"
       clipPathUnits="userSpaceOnUse">
      <path
         inkscape:connector-curvature="0"
         id="path4889"
         d="m 0,841.89 595.275,0 L 595.275,0 0,0 0,841.89 Z" />
    </clipPath>
    <clipPath
       id="clipPath4947"
       clipPathUnits="userSpaceOnUse">
      <path
         inkscape:connector-curvature="0"
         id="path4949"
         d="m 170.519,612.001 260.113,0 0,-235.272 -260.113,0 0,235.272 z" />
    </clipPath>
    <clipPath
       id="clipPath5119"
       clipPathUnits="userSpaceOnUse">
      <path
         inkscape:connector-curvature="0"
         id="path5121"
         d="m 0,841.89 595.275,0 L 595.275,0 0,0 0,841.89 Z" />
    </clipPath>
  </defs>
  <sodipodi:namedview
     id="base"
     pagecolor="#ffffff"
     bordercolor="#666666"
     borderopacity="1.0"
     inkscape:pageopacity="0.0"
     inkscape:pageshadow="2"
     inkscape:zoom="1.979899"
     inkscape:cx="202.95877"
     inkscape:cy="178.18834"
     inkscape:document-units="px"
     inkscape:current-layer="layer1"
     showgrid="false"
     inkscape:window-width="2560"
     inkscape:window-height="1350"
     inkscape:window-x="-11"
     inkscape:window-y="-11"
     inkscape:window-maximized="1"
     units="cm" />
  <metadata
     id="metadata7">
    <rdf:RDF>
      <cc:Work
         rdf:about="">
        <dc:format>image/svg+xml</dc:format>
        <dc:type
           rdf:resource="http://purl.org/dc/dcmitype/StillImage" />
        <dc:title></dc:title>
      </cc:Work>
    </rdf:RDF>
  </metadata>
  <g
     inkscape:label="Layer 1"
     inkscape:groupmode="layer"
     id="layer1"
     transform="translate(0,-698.03155)">
    <g
       id="g5421"
       transform="matrix(0.39264045,0,0,0.39264045,23.357971,659.99989)">
      <path
         d="m 283.24199,881.20079 c 3.93939,0 5.66287,0 7.87877,-2.298 2.29797,-1.72347 2.29797,-4.59599 2.29797,-8.04294 0,-1.72348 -0.57452,-8.61738 -0.57452,-8.61738 -9.02775,0 -9.02775,0 -9.02775,0 -6.23736,0 -7.30428,4.02147 -7.30428,7.46842 0,1.72348 0,11.4899 0,11.4899 0,0 4.51388,0 6.72978,0 m 10.17677,105.54268 c -0.57452,-98.56673 -0.57452,-98.56673 -0.57452,-98.56673 -9.02775,0 -9.02775,0 -9.02775,0 -6.23736,0 -7.30428,4.02147 -7.30428,7.46842 0,1.14896 0,91.09831 0,91.09831 l 16.90653,0 z m 376.45751,-15.26513 c -13.3775,0 -18.05552,-0.57443 -18.05552,-9.76642 0,-57.69553 0,-57.69553 0,-57.69553 15.18304,0 15.18304,0 15.18304,0 5.17045,0 9.27398,-2.298 9.27398,-8.04294 0,-5.08838 -4.10353,-7.38638 -9.27398,-7.38638 -15.18304,0 -15.18304,0 -15.18304,0 0,-16.57818 0,-16.57818 0,-16.57818 0,0 0,0 0,0 0,-9.76642 0,-9.76642 0,-9.76642 -6.976,0 -6.976,0 -6.976,0 -1.72347,0 -2.87246,0 -4.02145,0 -6.976,1.14895 -5.82701,7.46842 -5.82701,7.46842 0,18.87618 0,18.87618 0,18.87618 -4.67801,0 -4.67801,0 -4.67801,0 -5.82702,0 -9.27398,2.298 -9.27398,7.38638 0,5.74494 3.44696,8.04294 9.27398,8.04294 4.67801,0 4.67801,0 4.67801,0 0,48.58569 0,48.58569 0,48.58569 0,0 0,0 0,0 0,12.5568 0,12.5568 0,12.5568 0,20.59974 14.52649,20.59974 34.87998,20.59974 3.52902,0 9.93053,0 9.93053,0 0,0 0,-4.59599 0,-6.31947 0,-5.17043 -4.10353,-7.96081 -9.93053,-7.96081 m -418.72383,0 c -12.63886,0 -17.2348,-0.57443 -17.2348,-9.76642 0,-57.69553 0,-57.69553 0,-57.69553 14.93683,0 14.93683,0 14.93683,0 5.17045,0 9.1919,-2.298 9.1919,-8.04294 0,-5.08838 -4.02145,-7.38638 -9.1919,-7.38638 -14.93683,0 -14.93683,0 -14.93683,0 0,-16.57818 0,-16.57818 0,-16.57818 0,0 0,0 0,0 0,-9.76642 0,-9.76642 0,-9.76642 -7.55049,0 -7.55049,0 -7.55049,0 -1.14899,0 -2.29797,0 -3.44696,0 -6.89393,1.14895 -6.31944,7.46842 -6.31944,7.46842 0,18.87618 0,18.87618 0,18.87618 -4.59595,0 -4.59595,0 -4.59595,0 -5.17044,0 -9.19189,2.298 -9.19189,7.38638 0,5.74494 4.02145,8.04294 9.19189,8.04294 4.59595,0 4.59595,0 4.59595,0 0,48.58569 0,48.58569 0,48.58569 0,0 0,0 0,0 0,12.5568 0,12.5568 0,12.5568 0,20.59974 14.44442,20.59974 34.55169,20.59974 3.44697,0 10.42297,0 10.42297,0 0,0 0,-4.59599 0,-6.31947 0,-5.17043 -4.10353,-7.96081 -10.42297,-7.96081 M 517.47127,861.25761 c -9.84846,0 -9.84846,0 -9.84846,0 -8.12498,0 -7.46842,7.46843 -7.46842,7.46843 0,91.50864 0,91.50864 0,91.50864 0,0 0,0 0,0 0,25.93427 0,25.93427 0,25.93427 17.31688,0.57444 17.31688,0.57444 17.31688,0.57444 l 0,-125.48586 z m 94.62731,61.14258 c 0,-17.31689 -4.59595,-35.20831 -29.70953,-35.20831 -35.45446,0 -35.45446,0 -35.45446,0 -5.66287,0 -9.10983,2.87252 -9.10983,8.04295 0,5.82699 3.44696,8.12499 9.10983,8.12499 32.582,0 32.582,0 32.582,0 11.98229,0 15.42925,2.87243 15.42925,10.99742 0,2.298 0,2.298 0,2.298 -0.57452,5.17043 -6.31942,6.31938 -9.19189,6.8939 -23.3901,5.827 -55.31554,-0.57443 -55.31554,34.14131 0,18.46594 15.34719,28.88884 37.09588,28.88884 0,0 21.09213,1.14904 28.56054,-9.27395 0,0 0,0 0.57452,0.57443 0,5.827 2.7904,8.69943 7.96085,8.69943 2.29797,0 7.46841,0 7.46841,0 l 0,-64.1791 z m -17.15274,28.31431 c 0,16.82442 -9.19189,23.14389 -25.11358,23.14389 -14.28026,0 -22.32317,-5.17043 -22.32317,-16.74237 0,-8.69952 6.89392,-14.44446 16.00375,-16.16794 8.53533,-1.231 21.74869,-1.80552 31.433,-4.10352 l 0,13.86994 z m -111.3697,-28.31431 c 0,-17.31689 -4.59595,-35.20831 -29.87367,-35.20831 -35.61861,0 -35.61861,0 -35.61861,0 -5.17044,0 -9.27397,2.87252 -9.27397,8.04295 0,5.82699 4.10353,8.12499 9.27397,8.12499 33.32064,0 33.32064,0 33.32064,0 11.48988,0 15.51133,2.87243 15.51133,10.99742 0,2.298 0,2.298 0,2.298 -0.57452,5.17043 -6.31943,6.31938 -9.1919,6.8939 -24.12873,5.827 -55.80796,-0.57443 -55.80796,34.14131 0,18.46594 15.5934,28.88884 36.84967,28.88884 0,0 21.25626,1.14904 29.29917,-9.27395 0,0 0,0 0,0.57443 0.57452,5.827 2.87247,8.69943 8.61741,8.69943 2.29797,0 6.89392,0 6.89392,0 l 0,-64.1791 z m -16.66031,28.31431 c 0,16.82442 -9.76639,23.14389 -25.27772,23.14389 -14.36235,0 -22.97975,-5.17043 -22.97975,-16.74237 0,-8.69952 7.46841,-14.44446 16.08582,-16.16794 8.61741,-1.231 21.83076,-1.80552 32.17165,-4.10352 l 0,13.86994 z m -91.09829,-62.53776 c 5.17045,0 9.1919,2.29799 9.1919,7.46842 0,5.74495 -4.02145,8.04294 -9.1919,8.04294 -39.47592,0 -39.47592,0 -39.47592,0 -7.96084,0.57444 -9.10982,8.69943 -8.53533,13.86986 0,1.72347 1.14898,3.44704 2.29797,4.02147 2.29798,2.298 6.81185,3.44695 11.4078,4.02147 29.70953,5.25248 29.70953,5.25248 29.70953,5.25248 16.08583,2.87251 21.74869,10.91546 21.74869,25.35983 0,21.9128 -13.70578,30.53026 -34.87997,30.53026 -49.73474,0 -49.73474,0 -49.73474,0 0,0 0,-5.74494 0,-8.04294 0,-5.827 4.02146,-8.12499 9.68433,-8.12499 38.90143,0 38.90143,0 38.90143,0 15.42925,0 19.45071,-4.59591 19.45071,-13.21337 0,-7.55048 -2.29798,-10.4229 -12.55679,-12.14638 -30.3661,-5.17051 -30.3661,-5.17051 -30.3661,-5.17051 -14.85477,-2.29791 -21.66662,-10.42291 -22.8156,-20.76385 -1.14899,-15.01889 5.08837,-31.10469 25.68807,-31.10469 l 39.47592,0 z m -196.96926,51.4582 c -56.95694,5.74495 -56.95694,5.74495 -56.95694,5.74495 2.29797,17.89141 16.08582,24.78531 29.87367,24.78531 36.27517,0 36.27517,0 36.27517,0 5.17045,0 8.6174,3.44695 8.6174,8.61738 0,2.38005 0,6.97604 0,6.97604 -44.89257,0 -44.89257,0 -44.89257,0 -25.27772,0 -46.53399,-16.16794 -46.53399,-50.14515 0,-28.88875 20.10728,-48.42159 48.25747,-48.42159 20.76384,0 37.42416,12.63885 42.02011,31.67922 2.29797,11.48989 -3.44696,19.04037 -16.66032,20.76384 z m -10.34088,-12.7209 c 4.59594,-0.57443 8.04291,-1.72347 9.19189,-3.44695 1.72349,-1.14904 1.72349,-4.59599 0.57452,-7.46842 -3.44695,-8.12499 -12.63885,-13.86994 -24.78529,-13.86994 -18.3838,0 -31.02267,11.57194 -31.02267,29.95574 0,0 43.7436,-5.17043 46.04157,-5.17043 z"
         style="fill:#807f83;fill-opacity:1;fill-rule:evenodd;stroke:none"
         id="path24"
         inkscape:connector-curvature="0" />
      <path
         d="m 596.58726,721.24533 c 4.10352,0 6.4015,0.57443 8.78155,-1.64143 1.72347,-1.72347 1.72347,-4.59599 1.72347,-8.04294 0,-2.298 0,-8.61738 0,-8.61738 -9.35604,0 -9.35604,0 -9.35604,0 -6.97599,0 -7.55049,4.02147 -7.55049,7.46843 0,1.14895 0,10.83332 0,10.83332 0,0 4.59595,0 6.40151,0 m -22.89768,0 c 4.10352,0 6.4015,0.57443 8.69947,-1.64143 1.80555,-1.72347 1.80555,-4.59599 1.80555,-8.04294 0,-2.298 0,-8.61738 0,-8.61738 -9.35603,0 -9.35603,0 -9.35603,0 -6.40151,0 -7.55049,4.02147 -7.55049,7.46843 0,1.14895 0,10.83332 0,10.83332 0,0 4.59595,0 6.4015,0 m -373.42089,29.8736 c 4.10353,0 6.4015,0.57444 8.69948,-1.72347 1.80555,-1.64134 1.80555,-4.51386 1.80555,-7.96081 0,-2.298 0,-8.61738 0,-8.61738 -9.35604,0 -9.35604,0 -9.35604,0 -6.976,0 -7.55049,4.02139 -7.55049,7.46843 0,1.14895 0,10.83323 0,10.83323 0,0 4.59595,0 6.4015,0 m -22.32319,0 c 3.85732,0 6.07323,0.57444 8.28913,-1.72347 1.64141,-1.64134 1.64141,-4.51386 1.64141,-7.96081 0,-2.298 0,-8.61738 0,-8.61738 -8.78155,0 -8.78155,0 -8.78155,0 -6.64771,0 -7.14013,4.02139 -7.14013,7.46843 0,1.14895 0,10.83323 0,10.83323 0,0 4.34973,0 5.99114,0 m 458.03561,37.58835 c 0,-91.83693 0,-91.83693 0,-91.83693 0,-6.31942 1.06691,-6.89392 1.64141,-6.89392 6.81185,-2.7904 6.81185,-2.7904 6.81185,-2.7904 0,0 8.45327,-5.17044 8.45327,-5.17044 0,0 0,0 0,0.57452 0,0.57452 0,1.14898 0,2.29797 0,0 0,56.46452 0,56.46452 0,0 0,0 0,0 0,0 0,82.80914 0,85.02508 -2.29798,0 -15.26512,0 -16.90653,0 0,-2.21594 0,-37.6704 0,-37.6704 m -307.10791,-91.919 c 0,0 0,-0.57452 0,-0.57452 0,-5.74494 1.14899,-6.31943 2.29797,-6.89393 0,0 6.23737,-2.79039 6.23737,-2.79039 0,0 8.04291,-4.59595 8.6174,-4.59595 0,0 0,1.14899 0,2.29798 0,0 0,65.32817 0,65.32817 0,58.5163 -26.91913,75.09448 -29.21711,76.81804 -0.57452,0 -20.0252,0 -25.77014,0 8.6174,-6.23742 16.66032,-13.13132 22.32318,-20.59974 0.57452,-0.57443 0.57452,-0.57443 0.57452,-0.57443 0,-1.14896 0,-1.14896 0,-1.14896 -30.85852,-68.28271 -30.85852,-68.28271 -30.85852,-68.28271 0,0 -4.59595,-9.68428 -4.59595,-20.59965 0,-6.89391 2.29798,-14.93685 9.10984,-21.25632 0,0.57452 0,1.72349 0,1.72349 0.57452,6.31945 2.29797,17.80935 6.89392,27.00125 0,0.57443 18.87622,36.11102 26.34464,54.49482 0,0 2.29797,6.81185 2.29797,6.81185 1.14899,3.44695 1.14899,3.44695 1.14899,3.44695 1.14899,-3.44695 1.14899,-3.44695 1.14899,-3.44695 0.57452,-2.298 0.57452,-2.298 0.57452,-2.298 2.29798,-7.9608 2.87248,-13.70575 2.87248,-16.57827 0,0 0,0 0,0 0,0 0,-0.57443 0,-0.57443 0,-1.72348 0,-1.72348 0,-1.72348 0,0 0,0 0,0 0,-3.44695 0,-65.98476 0,-65.98476 z m 18.30173,-17.72723 c 0,0 0,0 0,0 0,0 0,0 0,0 z M 244.75091,806.51656 c 0,-40.29659 0,-40.29659 0,-40.29659 0,-5.6629 1.14899,-6.23742 1.72349,-6.81186 6.31943,-2.87251 6.31943,-2.87251 6.31943,-2.87251 0,0 8.04291,-3.93934 8.6174,-4.51386 0,0.57443 0.57452,1.14895 0.57452,2.298 0,0 0,56.21829 0,56.21829 0,3.93942 -2.29797,8.45328 -5.74493,11.32571 -4.59595,4.51394 -9.7664,4.51394 -13.21336,4.02147 -0.57452,0 -94.54524,0.49212 -94.54524,0.49212 -1.72349,-0.49212 -16.57825,-1.06699 -25.19565,-15.26513 -3.44697,-6.31947 -5.17045,-13.6237 -5.17045,-21.5846 0,-5.74494 0.57452,-11.98228 2.29797,-18.79413 1.72349,-4.51385 2.87248,-6.81185 4.02146,-7.96081 0,0.57444 0,1.14896 0,2.29791 0.57452,0 2.87247,18.71209 6.89393,26.67298 8.04291,17.07066 29.79159,15.9217 30.36609,15.9217 -0.57452,0 81.33189,0 81.33189,0 1.72348,0 1.72348,0 1.72348,0 l 0,-1.14904 z m 17.80931,-56.79282 c 0,0 0,0 0,0 0,0 0,0 0,0 0,0 0,0 0,0 z m 344.53206,-10.09461 c 0,0 0,-1.14905 0,-1.72348 0,-0.57443 0,-1.14904 0,-1.14904 0,0 -1.72347,1.14904 -2.29797,1.14904 0,0 -6.31943,4.02139 -6.31943,4.02139 -6.31943,2.87251 -6.31943,2.87251 -6.31943,2.87251 -1.14899,0 -1.72348,0.57444 -2.29797,5.74495 0,1.14895 0,1.14895 0,1.14895 0,56.38249 0,56.38249 0,56.38249 -48.83197,0 -48.83197,0 -48.83197,0 0,-50.63754 0,-50.63754 0,-50.63754 0,-8.04294 -2.29797,-13.21337 -5.74494,-16.66032 -4.02145,-4.02147 -9.76639,-5.74495 -17.8093,-5.17043 -0.57452,0 -43.66152,-1.14904 -78.04907,27.00118 -6.31943,7.55047 -6.31943,7.55047 -6.31943,7.55047 -2.29797,2.87252 -2.29797,2.87252 -2.29797,2.87252 -1.14899,-3.44695 -1.14899,-3.44695 -1.14899,-3.44695 -1.14899,-3.52909 -3.44696,-6.97604 -6.31943,-10.42299 0,0 -2.29797,-2.87243 -2.29797,-2.87243 0,0 -1.14899,-0.57444 -1.72349,-1.14904 0,2.29799 0.57452,8.04294 0.57452,15.59341 0,36.76759 0,36.76759 0,36.76759 -27.57569,0 -27.57569,0 -27.57569,0 0,-126.55273 0,-126.55273 0,-126.55273 0,-1.72349 0,-2.87248 0,-2.87248 0,0 -2.29798,1.72349 -2.29798,1.72349 0,0 -6.31943,3.44696 -6.31943,3.44696 -6.89392,2.87246 -6.89392,2.87246 -6.89392,2.87246 -0.57453,0.57452 -1.72349,1.14899 -1.72349,6.89393 0,113.33942 0,113.33942 0,113.33942 0,6.31938 0,9.1919 3.44697,13.86985 1.72348,2.298 4.59595,6.31947 14.36234,6.31947 26.42671,0 26.42671,0 26.42671,0 0,0 0,1.72348 0,1.72348 0,9.76642 -5.17045,25.85222 -5.17045,25.85222 0,0 -0.57452,0.57443 -0.57452,1.14895 1.72349,-1.14895 4.02146,-2.87243 6.89393,-5.17043 7.46841,-9.19189 10.91538,-17.23475 12.63886,-22.40526 0.57452,-1.14896 0.57452,-1.14896 0.57452,-1.14896 114.81666,0 114.81666,0 114.81666,0 0,0 39.06557,0 39.06557,0 0,0 8.04292,0.57443 12.63887,-2.87243 5.17044,-4.02147 6.89392,-7.55056 6.89392,-17.89141 0,0 0,-36.19307 0,-46.61606 0,-1.72348 0,-19.53275 0,-19.53275 z m -83.87607,67.87228 c -86.66648,0 -86.66648,0 -86.66648,0 0.57452,-1.72347 0.57452,-1.72347 0.57452,-1.72347 0,-0.57443 5.17044,-48.91406 74.60211,-51.21197 3.44697,0 6.31943,0.57444 8.04292,2.87243 3.44695,3.44695 3.44695,9.1919 3.44695,9.1919 l 0,40.87111 z"
         style="fill:#807f83;fill-opacity:1;fill-rule:evenodd;stroke:none"
         id="path40"
         inkscape:connector-curvature="0" />
      <path
         inkscape:export-ydpi="5.1614881"
         inkscape:export-xdpi="5.1614881"
         style="fill:#c2cd23;fill-opacity:1;fill-rule:evenodd;stroke:none"
         id="path42"
         d="m 294.56772,563.83404 c -9.76639,0 -18.38379,-1.72349 -24.70323,-5.17045 -31.51508,-16.57824 -56.13623,-95.11974 -56.13623,-175.95921 0.57452,-52.19685 33.81305,-81.41396 83.71193,-81.41396 26.91913,0 58.43421,8.04291 92.24728,25.85221 96.92528,49.81682 121.54644,128.35831 55.6438,175.38472 -52.19684,37.26002 -112.35454,61.30669 -150.76355,61.30669 M 282.50335,219.87646 c -14.28026,0 -27.49362,2.29797 -38.409,5.74494 -43.57944,13.21335 -60.73218,53.92033 -57.28522,110.63106 3.44695,56.21832 20.59969,115.22703 33.81305,157.65748 14.28027,43.00496 24.04667,70.49858 41.85597,79.69049 5.17044,2.87246 11.4078,4.02145 18.87622,4.02145 16.66031,0 39.55799,-6.89393 69.92409,-16.08582 42.43046,-14.28027 100.37225,-33.81306 148.46558,-63.60466 48.1754,-29.7916 71.07307,-67.62612 56.7928,-110.63107 C 543.32349,344.29537 492.93218,296.11998 424.07501,260.58344 373.10922,234.2388 322.63585,219.87646 282.50335,219.87646 m -175.3847,-48.66782 c -25.277726,32.66407 -25.852221,85.92784 -9.191909,151.91254 23.472169,92.82176 63.604659,186.87459 81.988459,249.90475 21.74869,64.17915 21.74869,96.84322 30.3661,101.43917 0.57452,0.57452 1.72347,0.57452 2.87246,0.57452 10.91539,0 38.409,-17.15274 96.84322,-34.96204 61.96325,-21.1742 162.25343,-43.00496 251.13581,-77.39251 63.03017,-24.62116 106.03512,-56.13623 118.67398,-94.54524 -20.10728,26.91913 -56.7928,49.81681 -104.9682,68.7751 -89.3748,34.38755 -189.17257,56.13623 -251.05374,77.39251 -58.43421,17.72722 -86.00991,34.96204 -97.41771,34.96204 -1.14899,0 -1.72348,0 -2.87247,-0.57452 -8.04292,-4.59595 -8.6174,-37.26002 -29.87367,-101.43917 C 174.74475,484.71804 134.61227,390.74729 111.7146,297.26897 99.075731,246.87766 96.203266,203.29822 107.11865,171.20864"
         inkscape:connector-curvature="0" />
      <path
         inkscape:export-ydpi="5.1614881"
         inkscape:export-xdpi="5.1614881"
         style="fill:#b3c98b;fill-opacity:1;fill-rule:evenodd;stroke:none"
         id="path44"
         d="m 213.23583,109.40953 c -18.87622,0 -35.53654,2.29798 -49.32438,6.89393 -29.7916,9.1919 -47.51884,28.15019 -56.71073,54.49483 10.34088,-13.13129 24.62115,-22.89768 43.00495,-28.64262 14.28027,-4.59595 30.94059,-6.89392 49.89888,-6.89392 65.32814,0 155.85193,26.91913 249.33025,75.66902 120.97196,62.53774 210.42883,141.1613 228.73056,204.19147 6.31943,18.95829 6.89392,36.7676 1.72348,52.77135 16.66036,-22.89768 21.83078,-49.32438 12.06436,-78.5415 C 672.99491,326.23986 583.62012,247.69837 462.64816,185.16063 369.16983,136.41074 278.56397,109.40953 213.23583,109.40953"
         inkscape:connector-curvature="0" />
      <path
         inkscape:export-ydpi="5.1614881"
         inkscape:export-xdpi="5.1614881"
         style="fill:#78a22f;fill-opacity:1;fill-rule:evenodd;stroke:none"
         id="path46"
         d="m 281.35437,577.45774 c -7.46842,0 -13.78785,-1.14899 -18.95829,-4.02145 -17.72723,-9.10984 -27.49363,-36.68553 -41.7739,-79.69049 -13.21336,-42.43046 -30.3661,-101.52123 -33.81305,-157.65748 -3.44696,-56.7928 13.70578,-97.49978 57.28522,-110.71314 10.91538,-3.44696 24.04667,-5.74493 38.409,-5.74493 40.05042,0 90.52379,14.36234 141.4896,40.70698 68.77509,35.53654 119.24846,83.71193 132.37975,126.71689 14.36234,43.08703 -8.6174,80.92154 -56.71073,110.71313 -48.17541,29.79161 -106.03513,49.3244 -148.38351,63.68674 -30.3661,9.10982 -53.34584,16.00375 -69.92409,16.00375 M 199.94041,135.34382 c -18.87622,0 -35.53654,2.29798 -49.81681,6.89393 -18.3838,5.74493 -32.66407,15.42925 -43.00495,28.6426 -10.915384,32.08958 -8.042919,75.7511 4.59595,126.1424 22.89767,93.47833 63.03015,187.53115 81.90638,250.0689 21.25627,64.26122 21.83075,96.92528 29.87367,101.52123 1.06691,0.57452 1.64141,0.57452 2.7904,0.57452 11.48987,0 38.9835,-17.23481 97.41771,-35.04411 61.96324,-21.17419 161.59687,-43.00496 251.05374,-77.3925 48.09332,-18.87623 84.77885,-41.85597 104.80405,-68.77511 5.17045,-16.08581 4.59595,-33.89513 -1.72347,-52.77134 C 659.53535,352.09207 570.16055,273.55059 449.27066,211.01284 355.79234,162.26295 265.26855,135.34382 199.94041,135.34382"
         inkscape:connector-curvature="0" />
    </g>
  </g>
</svg>
