<?xml version="1.0" encoding="UTF-8" standalone="yes"?>
<svg>
  <defs>
    <svg viewBox="0 0 1417.32 1417.32" color-interpolation-filters="sRGB" style="fill:none;fill-rule:evenodd;font-size:12px;overflow:visible;stroke-linecap:square;stroke-miterlimit:3" id="Account">
      <g transform="translate(359.656)">
        <path d="M349.01 0C156.26 0 0 156.26 0 349.01c0 146.94 91 272.55 219.56 324.01v613.22l131.08 131.08 127.81-127.8v-79.47L408.4 1140l70.05-70.04v-.82l-66.77-66.77 66.77-66.77v-59.81l-63.49-63.49 63.49-63.49v-75.79c128.68-51.4 219.56-176.99 219.56-324.01C698.01 156.26 541.76 0 349.01 0zm0 112.65c54.67 0 99.13 44.46 99.13 99.13 0 54.67-44.46 99.13-99.13 99.13-54.68 0-99.14-44.46-99.14-99.13 0-54.67 44.46-99.13 99.14-99.13z" style="fill:#a0968c;stroke:none;stroke-linecap:butt;stroke-width:0.75"/>
      </g>
    </svg>
  </defs>
  <defs>
    <svg viewBox="0 0 1417.32 1417.32" color-interpolation-filters="sRGB" style="fill:none;fill-rule:evenodd;font-size:12px;overflow:visible;stroke-linecap:square;stroke-miterlimit:3" id="Add-on">
      <g transform="translate(0 -241.964)">
        <path d="M.69 965.14c1.87 50.79 18.89 107.77 55.35 138.16 94.19 44.21 50.7-63.18 115.91-75.81 65.21-12.64 68.82 63.18 68.82 63.18v326.65l323.94-.41s75.81-3.61 63.18-68.82c-10.27-52.99-83.14-34.2-86.37-75.82-.74-9.61 2.26-22.44 10.55-40.1 30.39-36.46 87.37-53.48 138.16-55.35 18.75-.69 36.38.95 51.8 4.18.68.08 1.4.22 2.08.31 43.83 5.66 88.29 22.6 113.94 53.36 44.2 94.2-63.19 50.71-75.82 115.92-9.2 47.52 28.33 62.19 49.5 66.73h343.88v-339.5c4.07-20.72 18.35-60.96 67.25-51.48 65.22 12.63 21.72 119.92 115.92 75.71 30.77-25.65 47.7-70.11 53.36-113.93.09-.69.23-1.41.32-2.09 3.23-15.42 4.86-33.05 4.17-51.8-1.87-50.79-18.89-107.77-55.34-138.16-94.2-44.21-50.71 63.18-115.92 75.82-65.21 12.63-68.82-63.18-68.82-63.18l-.94-324.78-328.32 2.09s-75.81 3.6-63.18 68.82c12.63 65.21 120.02 21.72 75.82 115.91-30.4 36.46-87.37 53.48-138.16 55.35-18.75.69-36.39-.95-51.8-4.18-.68-.08-1.4-.22-2.09-.31-43.82-5.66-88.28-22.6-113.93-53.36-8.29-17.67-11.29-30.5-10.55-40.1 3.23-41.63 76-22.83 86.26-75.82 11.79-60.85-51.26-67.71-60.04-68.4H240.77v341.38c-4.95 21.41-20.02 56.69-66.31 47.72-65.21-12.63-21.72-119.92-115.92-75.71-30.76 25.65-47.7 70.11-53.36 113.94-.09.68-.23 1.4-.31 2.08C1.64 928.76 0 946.39.69 965.14z" style="fill:#a0968c"/>
      </g>
    </svg>
  </defs>
  <defs>
    <svg viewBox="0 0 1417.32 1417.32" color-interpolation-filters="sRGB" style="fill:none;fill-rule:evenodd;font-size:12px;overflow:visible;stroke-linecap:square;stroke-miterlimit:3" id="BasePlan">
      <g transform="translate(1417.32 120.594) rotate(90)">
        <path d="M694.93.69c-50.79 1.87-107.77 18.89-138.16 55.35-44.21 94.19 63.18 50.7 75.82 115.91 12.63 65.21-63.18 68.82-63.18 68.82H242.75v331.35c-.9 10.46-8.47 70.9-68.29 59.32-65.21-12.63-21.72-119.92-115.92-75.71-30.76 25.65-47.7 70.1-53.36 113.93-.09.68-.23 1.4-.31 2.09C1.64 687.16 0 704.79.69 723.54c1.87 50.79 18.89 107.77 55.35 138.16 94.19 44.21 50.7-63.18 115.91-75.81 65.21-12.63 68.82 63.18 68.82 63.18l1.98 326.54h339.5c20.72 4.07 60.96 18.35 51.48 67.25-12.63 65.22-119.91 21.72-75.71 115.92 25.65 30.77 70.11 47.7 113.94 53.36.68.09 1.4.23 2.08.32 15.42 3.23 33.05 4.86 51.8 4.17 50.79-1.87 107.77-18.89 138.16-55.34 44.21-94.2-63.19-50.71-75.82-115.92-12.63-65.21 63.18-68.82 63.18-68.82l324.77-.94-2.08-328.32s-3.61-75.81-68.82-63.18c-65.21 12.63-21.72 120.02-115.92 75.82-36.45-30.4-53.47-87.37-55.34-138.16-.69-18.75.94-36.39 4.17-51.8.09-.68.23-1.4.32-2.09 5.66-43.82 22.59-88.28 53.36-113.93 94.19-44.21 50.7 63.08 115.91 75.71 60.85 11.79 67.71-51.26 68.4-60.04V240.77H834.76c-21.41-4.95-56.69-20.02-47.72-66.31 12.63-65.21 119.91-21.72 75.71-115.92-25.66-30.76-70.11-47.7-113.94-53.36-.68-.09-1.4-.23-2.08-.31C731.31 1.64 713.68 0 694.93.69z" style="fill:#a0968c;stroke:none;stroke-linecap:butt;stroke-width:0.542113"/>
      </g>
    </svg>
  </defs>
  <defs>
    <svg viewBox="0 0 1417.32 1417.32" color-interpolation-filters="sRGB" style="fill:none;fill-rule:evenodd;font-size:12px;overflow:visible;stroke-linecap:square;stroke-miterlimit:3" id="Bundle">
      <g transform="translate(.562 -58.997)">
        <path d="M611.12 118.24a21.13 21.13-180 0 0-5.32 1.52L60.05 366.04a21.13 21.13-180 0 0-3.04 36.48l210.54 139.1-249.31 31.16a21.13 21.13-180 0 0-9.12 38.77l269.84 171.02-6.85 334.44a21.13 21.13-180 0 0 9.13 18.24l403.61 275.91.75.76a21.13 21.13-180 0 0 .76.76l1.52.76a21.13 21.13-180 0 0 2.28 1.52 21.13 21.13-180 0 0 1.52.76 21.13 21.13-180 0 0 2.28.76 21.13 21.13-180 0 0 1.52.76 21.13 21.13-180 0 0 .76 0 21.13 21.13-180 0 0 1.52 0 21.13 21.13-180 0 0 .76 0 21.13 21.13-180 0 0 3.8 0 21.13 21.13-180 0 0 3.8-.76 21.13 21.13-180 0 0 2.28-.76 21.13 21.13-180 0 0 .76-.76h.76a21.13 21.13-180 0 0 3.8-2.28l434.01-200.66a21.13 21.13-180 0 0 12.16-19.01V841.85l245.51-133.02a21.13 21.13-180 0 0-3.04-38.76l-227.26-82.09 170.26-114.01a21.13 21.13-180 0 0 0-35.73L909.82 152.45a21.13 21.13-180 0 0-28.11 4.56L745.65 321.19 632.4 128.13a21.13 21.13-180 0 0-21.28-9.89zm-5.32 47.89l106.41 182.42-397.53 174.06L112.5 388.08l493.3-221.95zm296.43 32.68l392.97 257.68-167.22 111.73-345.84-224.23 120.09-145.18zM768.46 385.04l317.72 206.74-326.85 162.66 9.13-369.4zm-42.57 3.04l-9.88 387.65-4.56 3.04-358.77-226.51 373.21-164.18zM314.68 578.1h.76l355.72 225.75-136.81 90.45-218.91-138.34a21.13 21.13-180 0 0-.76-.76l-.76-.75a21.13 21.13-180 0 0-3.04-1.52l-2.28-1.52L81.33 606.99l221.19-27.37 12.16-1.52zm814.06 38.77l215.87 76.77-210.55 114.77-2.28.76a21.13 21.13-180 0 0-3.8 1.52l-1.52.76a21.13 21.13-180 0 0-1.52 1.52L904.51 932.3 741.85 812.97a21.13 21.13-180 0 0 0-.76 21.13 21.13-180 0 0 12.93-8.36l373.96-186.99v.01zM320 809.17l202.95 128.46a21.13 21.13-180 0 0 22.8 0l142.9-95.78-9.12 514.59-364.85-249.31L320 809.17zm411.21 47.89l159.62 117.05a21.13 21.13-180 0 0 22.8 1.52l203.71-110.21v313.16l-395.25 183.94 9.12-505.46z" style="fill:#a0968c;stroke:none;stroke-linecap:butt;stroke-width:1.30302"/>
      </g>
    </svg>
  </defs>
  <defs>
    <svg viewBox="0 0 1417.32 1417.32" color-interpolation-filters="sRGB" style="fill:none;fill-rule:evenodd;font-size:12px;overflow:visible;stroke-linecap:square;stroke-miterlimit:3" id="CallFreebees">
      <g transform="translate(1319.06) scale(-1 1)">
        <path d="M650.94 755.4C483.5 991.57 423.82 980.71 398.51 962.59l-7.26-5.19-247.3 345.5 9.02 6.46c44.96 32.18 322.11 107.96 694.97-412.95s211.76-758.82 166.8-791l-9.03-6.46-247.3 345.5 7.26 5.2c25.31 18.11 52.94 70.01-114.73 305.75zm80.21-330.46l-86.38-61.83c-24.6-17.61-30.06-51.49-12.7-75.74L816.41 29.83C833.77 5.58 867.48 0 892.08 17.61l86.37 61.83-247.3 345.5zM363.87 938.06l-86.38-61.82c-24.6-17.61-58.18-12.21-75.67 12.22L17.48 1146c-17.48 24.42-11.9 58.13 12.71 75.74l86.37 61.83 247.31-345.51z" style="fill:#a0968c;stroke:none;stroke-linecap:butt;stroke-width:0.75"/>
      </g>
    </svg>
  </defs>
  <defs>
    <svg viewBox="0 0 1417.32 1417.32" color-interpolation-filters="sRGB" style="fill:none;fill-rule:evenodd;font-size:12px;overflow:visible;stroke-linecap:square;stroke-miterlimit:3" id="CallTariff">
      <g transform="translate(49.383)">
        <path d="M671.59 751.97c168.31 237.39 228.3 226.47 253.74 208.26l7.29-5.22 248.59 347.3-9.07 6.49c-45.19 32.35-323.78 108.52-698.57-415.09C98.77 370.09 260.71 130.94 305.9 98.6l9.07-6.5 248.59 347.3-7.29 5.22c-25.44 18.21-53.22 70.38 115.32 307.35zm-80.63-332.18l86.83-62.15c24.73-17.7 30.21-51.76 12.77-76.14L505.26 22.63C487.81-1.74 453.93-7.36 429.2 10.34l-86.83 62.15 248.59 347.3zm369.19 515.79l86.83-62.15c24.73-17.7 58.48-12.27 76.06 12.28l185.29 258.88c17.58 24.55 11.97 58.43-12.77 76.14l-86.82 62.14-248.59-347.29z" style="fill:#a0968c"/>
        <path d="M156.51 1303.94a51.024 51.024-180 1 0-102.05 0 51.024 51.024-180 1 0 102.05 0" style="stroke:#ff0000;stroke-linecap:butt;stroke-width:100"/>
      </g>
    </svg>
  </defs>
  <defs>
    <svg viewBox="0 0 1417.32 1417.32" color-interpolation-filters="sRGB" style="fill:none;fill-rule:evenodd;font-size:12px;overflow:visible;stroke-linecap:square;stroke-miterlimit:3" id="ChangeArrow">
      <g>
        <path d="M956.85 1169.72l-248.17 247.6-248.2-248.56.05-137.72 191.96 190.29L654.37 0l110.39.12-1.78 1223.81 193.87-192.34v138.13z" style="fill:#000000;stroke:none;stroke-linecap:butt;stroke-width:0.434897"/>
      </g>
    </svg>
  </defs>
  <defs>
    <svg viewBox="0 0 1417.32 1417.32" color-interpolation-filters="sRGB" style="fill:none;fill-rule:evenodd;font-size:12px;overflow:visible;stroke-linecap:square;stroke-miterlimit:3" id="ChangeFlavor">
      <g transform="translate(12.497 -217.47)">
        <path d="M298.99 435.08a66.262 66.262-180 0 0-53.04 27.56L0 804.79a66.31 66.31-180 1 0 107.64 77.47l134.67-187.71v656.22a66.298 66.298-180 0 0 132.6 0V697.15l147.15 179.91a66.262 66.262-180 1 0 102.44-83.71L350.99 459a66.262 66.262-180 0 0-52-23.92zm768.01 0a66.298 66.298-180 0 0-61.88 66.56v656.21L870.45 970.14a66.31 66.31-180 1 0-107.64 77.48l245.95 342.14a66.262 66.262-180 0 0 53.04 27.56 66.262 66.262-180 0 0 52-23.92l273.51-334.34a66.262 66.262-180 1 0-102.44-83.72l-147.15 179.91V501.64a66.298 66.298-180 0 0-70.72-66.56z" style="fill:#a0968c;stroke:none;stroke-linecap:butt;stroke-width:5.97279"/>
      </g>
    </svg>
  </defs>
  <defs>
    <svg viewBox="0 0 1417.32 1417.32" color-interpolation-filters="sRGB" style="fill:none;fill-rule:evenodd;font-size:12px;overflow:visible;stroke-linecap:square;stroke-miterlimit:3" id="Charge">
      <g transform="translate(0 -1.8)">
        <path d="M708.66 3.6C317.41 3.6 0 319.16 0 708.85c0 389.32 317.41 704.87 708.66 704.87 391.63 0 708.66-315.55 708.66-704.87 0-389.69-317.03-705.25-708.66-705.25zm0 38.4c370.32 0 670.22 298.45 670.22 666.85 0 368.02-299.9 666.47-670.22 666.47-369.93 0-670.22-298.45-670.22-666.47C38.44 340.45 338.73 42 708.66 42zm-16.74 78.7c-5.33 0-43.39 115.2-15.23 137.25-6.85 6.08-4.57 14.44 0 18.63-10.65 5.32-8.75 16.72-2.28 23.19-11.04 6.46-9.52 18.25-4.57 28.13-15.22 11.79-14.46 39.54-6.09 49.81 2.29 27.75-17.89 93.52-27.02 98.09-17.89 8.74-65.46 22.05-66.98 45.24-1.53 23.19 15.6 33.07 16.74 50.94-19.79-10.26-30.07-61.21-38.44-60.07-20.93 3.43-35.39 34.6-58.23 31.56-78.4-11.03-232.16-35.74-285.06 97.71 104.28-70.34 287.73 6.84 318.17 30.41 95.91 74.9 130.17 302.63-28.92 493.87-11.04 7.6 14.84 49.42 41.48 75.28 41.49 31.17 334.92 14.06 364.61-7.99 29.69-22.43 42.63-57.79 48.71-85.92-43.38-33.46-72.69-256.25 21.32-332.67 62.41-50.94 169.74-47.14 149.19-185.53-18.65-125.46-162.51-122.04-232.54-88.2-23.98-24.33-47.2-25.86-62.04-20.15-.38-22.81-22.45-30.8-31.97-36.5 6.85-12.55 25.5-26.23 25.12-31.94-.76-8.74-11.42-14.82-21.69-20.91-10.28-5.7-21.32 41.82-30.83 30.42-17.13-21.29 36.16-47.53 51.38-62.35 3.04-3.04-57.09-76.04-62.04-64.25-6.09 14.82-8.75 76.41-19.41 104.93-4.56-11.41-7.23-31.56-9.51-62.35 2.66-10.27 8.37-38.4-11.42-50.57 7.99-8.36 2.66-24.33-3.43-26.99 7.24-8.37 5.71-18.25-1.52-25.86 4.19-3.8 4.19-11.02-.38-15.58 22.84-25.86-10.65-137.63-17.12-137.63zm280.11 428.85c46.43-.38 97.81 16.73 116.08 73 23.98 75.28-12.56 105.69-137.39 163.48-123.31 57.41-117.99 179.45-88.68 271.46-88.68-147.14-68.51-299.21-62.8-421.25 12.56-8.37 21.7-26.62 20.55-34.98 19.79-2.66 55.57-14.45 75.36-33.84 15.22-9.12 44.91-17.49 76.88-17.87z" style="fill:#a0968c"/>
        <path d="M157.32 1311.29a51.024 51.024-180 1 0-102.04 0 51.024 51.024-180 1 0 102.04 0" style="stroke:#ff0000;stroke-linecap:round;stroke-linejoin:round;stroke-width:100"/>
      </g>
    </svg>
  </defs>
  <defs>
    <svg viewBox="0 0 1417.32 1417.32" color-interpolation-filters="sRGB" style="fill:none;fill-rule:evenodd;font-size:12px;overflow:visible;stroke-linecap:square;stroke-miterlimit:3" id="Constraint">
      <g transform="translate(0 -515.986)">
        <path d="M0 1031.97v86.08h148.29c36.17 0 64.04 27.55 64.56 63.56H176.2a43.045 43.045-180 1 0 0 86.08h36.65c-.52 36.01-28.39 63.55-64.56 63.55H0v86.08h148.29c82.37 0 150.09-67.38 150.64-149.63h156.36c.55 82.25 68.27 149.63 150.64 149.63h198.06c82.38 0 150.09-67.38 150.64-149.63h173.85c.55 82.25 68.27 149.63 150.64 149.63h138.2v-86.08h-138.2c-36.17 0-64.04-27.54-64.56-63.55h34.3a43.045 43.045-180 1 0 0-86.08h-34.3c.52-36.01 28.39-63.56 64.56-63.56h138.2v-86.08h-138.2c-82.37 0-150.09 67.38-150.64 149.64H954.63c-.55-82.26-68.26-149.64-150.64-149.64H605.93c-82.37 0-150.09 67.38-150.64 149.64H298.93c-.55-82.26-68.27-149.64-150.64-149.64H0zm605.93 86.08h198.06c36.17 0 64.04 27.55 64.56 63.56h-30.6a43.045 43.045-180 1 0 0 86.08h30.6c-.52 36.01-28.39 63.55-64.56 63.55H605.93c-36.17 0-64.04-27.54-64.56-63.55h45.4a43.045 43.045-180 1 0 0-86.08h-45.4c.52-36.01 28.39-63.56 64.56-63.56z" style="fill:#a0968c;stroke:none;stroke-linecap:butt;stroke-width:6"/>
      </g>
    </svg>
  </defs>
  <defs>
    <svg viewBox="0 0 1417.32 1417.32" color-interpolation-filters="sRGB" style="fill:none;fill-rule:evenodd;font-size:12px;overflow:visible;stroke-linecap:square;stroke-miterlimit:3" id="Contract">
      <g transform="translate(191.675)">
        <path d="M516.99 0C299.74 0 122.18 177.55 122.18 394.8v207.71H0v814.81h1033.97V602.51H911.79V394.8C911.79 177.55 734.24 0 516.99 0zm0 132.11c145.88 0 262.69 116.81 262.69 262.69v207.71H254.29V394.8c0-145.88 116.81-262.69 262.7-262.69zm7.63 677.35c49.83 3.29 91.66 40.41 98.51 90.88 5.96 43.83-16.53 84.71-53.45 105.38v73.31a52.69 52.69 0 0 1-105.38 0v-73.31c-28.09-15.69-48.86-43.24-53.46-77.13-7.83-57.67 32.85-110.55 91.64-118.36 7.35-.98 15.03-1.24 22.14-.77z" style="fill:#a0968c;stroke:none;stroke-linecap:butt;stroke-width:0.75"/>
      </g>
    </svg>
  </defs>
  <defs>
    <svg viewBox="0 0 1417.32 1417.32" color-interpolation-filters="sRGB" style="fill:none;fill-rule:evenodd;font-size:12px;overflow:visible;stroke-linecap:square;stroke-miterlimit:3" id="Credit">
      <g transform="translate(0 -1.8)">
        <path d="M708.66 3.6C317.41 3.6 0 319.16 0 708.85c0 389.32 317.41 704.87 708.66 704.87 391.63 0 708.66-315.55 708.66-704.87 0-389.69-317.03-705.25-708.66-705.25zm0 38.4c370.32 0 670.22 298.45 670.22 666.85 0 368.02-299.9 666.47-670.22 666.47-369.93 0-670.22-298.45-670.22-666.47C38.44 340.45 338.73 42 708.66 42zm-16.74 78.7c-5.33 0-43.39 115.2-15.23 137.25-6.85 6.08-4.57 14.44 0 18.63-10.65 5.32-8.75 16.72-2.28 23.19-11.04 6.46-9.52 18.25-4.57 28.13-15.22 11.79-14.46 39.54-6.09 49.81 2.29 27.75-17.89 93.52-27.02 98.09-17.89 8.74-65.46 22.05-66.98 45.24-1.53 23.19 15.6 33.07 16.74 50.94-19.79-10.26-30.07-61.21-38.44-60.07-20.93 3.43-35.39 34.6-58.23 31.56-78.4-11.03-232.16-35.74-285.06 97.71 104.28-70.34 287.73 6.84 318.17 30.41 95.91 74.9 130.17 302.63-28.92 493.87-11.04 7.6 14.84 49.42 41.48 75.28 41.49 31.17 334.92 14.06 364.61-7.99 29.69-22.43 42.63-57.79 48.71-85.92-43.38-33.46-72.69-256.25 21.32-332.67 62.41-50.94 169.74-47.14 149.19-185.53-18.65-125.46-162.51-122.04-232.54-88.2-23.98-24.33-47.2-25.86-62.04-20.15-.38-22.81-22.45-30.8-31.97-36.5 6.85-12.55 25.5-26.23 25.12-31.94-.76-8.74-11.42-14.82-21.69-20.91-10.28-5.7-21.32 41.82-30.83 30.42-17.13-21.29 36.16-47.53 51.38-62.35 3.04-3.04-57.09-76.04-62.04-64.25-6.09 14.82-8.75 76.41-19.41 104.93-4.56-11.41-7.23-31.56-9.51-62.35 2.66-10.27 8.37-38.4-11.42-50.57 7.99-8.36 2.66-24.33-3.43-26.99 7.24-8.37 5.71-18.25-1.52-25.86 4.19-3.8 4.19-11.02-.38-15.58 22.84-25.86-10.65-137.63-17.12-137.63zm280.11 428.85c46.43-.38 97.81 16.73 116.08 73 23.98 75.28-12.56 105.69-137.39 163.48-123.31 57.41-117.99 179.45-88.68 271.46-88.68-147.14-68.51-299.21-62.8-421.25 12.56-8.37 21.7-26.62 20.55-34.98 19.79-2.66 55.57-14.45 75.36-33.84 15.22-9.12 44.91-17.49 76.88-17.87z" style="fill:#a0968c"/>
        <path d="M157.32 1311.29a51.024 51.024-180 1 0-102.04 0 51.024 51.024-180 1 0 102.04 0" style="stroke:none;stroke-linecap:round;stroke-linejoin:round;stroke-width:100"/>
      </g>
    </svg>
  </defs>
  <defs>
    <svg viewBox="0 0 1417.32 1417.32" color-interpolation-filters="sRGB" style="fill:none;fill-rule:evenodd;font-size:12px;overflow:visible;stroke-linecap:square;stroke-miterlimit:3" id="DataFreebees">
      <g transform="translate(0 -21.008)">
        <path d="M535 42.02C404.5 74.84 288.4 144.19 197.94 238.09h100.84c4.64-6.56 8.25-14.21 13.07-20.54 61.07-80.28 138-139.31 223.15-175.53zm344.52 0c85.78 36.13 163.57 94.76 225.02 175.53 4.82 6.33 8.43 13.98 13.07 20.54h100.84c-90.87-94.27-207.74-163.47-338.93-196.07zm-189.53 1.86c-29.1 4.86-58.21 18.17-85.9 45.75-33.59 33.47-64.94 84.03-91.5 146.59-.24.56-.7 1.31-.93 1.87h178.33V43.88zm37.34 0v194.21h177.4c-.24-.56-.69-1.31-.93-1.87-26.56-62.56-57.91-113.12-91.5-146.59-27.59-27.48-55.98-40.83-84.96-45.75h-.01zM577.01 64.42c-88.9 30.78-169.2 90-233.42 173.67h129.78c1.98-4.93 2.63-12.01 4.67-16.81 27.68-65.2 60.93-118.65 98.97-156.86zm262.37 0c38.04 38.21 71.28 91.66 98.97 156.86 2.03 4.8 2.69 11.88 4.66 16.81h129.79C1008.58 154.42 928.27 95.2 839.38 64.42zM164.33 275.43C115 334.43 75.8 401.34 47.62 474.31h139.12c21.03-73.01 51.72-139.09 88.69-198.88h-111.1zm154.99 0c-39.01 58.65-71.04 124.89-93.37 198.88h184.87c12.08-74.01 29.98-138.58 51.35-198.88H319.32zm182.06 0c-21.9 59.16-40.66 123.97-53.21 198.88h241.82V275.43H501.38zm225.95 0v198.88h241.83C956.6 399.38 936.92 334.6 915 275.43H727.33zm226.89 0c21.37 60.3 39.27 124.87 51.35 198.88h185.8c-22.35-74.05-55.24-140.2-94.3-198.88H954.22zm186.73 0c36.98 59.79 67.67 125.87 88.7 198.88h140.06c-28.2-73.04-68.27-139.84-117.65-198.88h-111.11zM34.55 511.66C14.15 574.73 2.74 641.1.93 710.53h151.26c1.37-69.54 10.82-135.45 26.14-198.87H34.55zm183 0c-16 63.11-26.56 129.02-28.01 198.87h200.74c.8-70.24 8-134.98 16.8-198.87H217.55zm227.81 0c-9 63.59-16.9 128.5-17.74 198.87h262.37V511.66H445.36zm281.97 0v198.87h261.43c-.83-70.36-7.8-135.29-16.8-198.87H727.33zm281.98 0c8.8 63.89 16 128.63 16.8 198.87h201.68c-1.45-69.87-12.01-135.74-28.01-198.87h-190.47zm228.75 0c15.32 63.42 24.77 129.33 26.14 198.87h152.19c-1.81-69.43-13.22-135.8-33.61-198.87h-144.72zM0 747.88c1.76 69.67 14.07 136.52 34.55 199.8h143.78c-15.33-63.46-24.78-130.22-26.14-199.8H0zm189.54 0c1.44 69.89 12 136.65 28.01 199.8h189.53c-8.82-63.96-16-129.48-16.8-199.8H189.54zm238.08 0c.84 70.45 8.72 136.14 17.74 199.8h244.63v-199.8H427.62zm299.71 0v199.8h244.63c9.02-63.66 15.97-129.36 16.8-199.8H727.33zm298.78 0c-.8 70.32-7.98 135.84-16.8 199.8h190.47c16.01-63.17 26.57-129.89 28.01-199.8h-201.68zm238.09 0c-1.37 69.58-10.81 136.34-26.14 199.8h144.72c20.48-63.28 32.78-130.13 34.54-199.8H1264.2zM47.62 985.03c28.17 72.77 67.49 140.02 116.71 198.87h111.1c-36.97-59.79-67.66-125.86-88.69-198.87H47.62zm178.33 0c22.33 73.99 54.36 140.23 93.37 198.87h142.85c-21.36-60.27-39.27-124.89-51.35-198.87H225.95zm222.22 0c12.55 74.88 31.31 139.73 53.21 198.87h188.61V985.03H448.17zm279.16 0v198.87H915c21.91-59.15 41.6-123.97 54.16-198.87H727.33zm278.24 0c-12.08 73.98-29.99 138.6-51.35 198.87h142.85c39.06-58.67 71.95-124.82 94.3-198.87h-185.8zm224.08 0c-21.03 73.01-51.72 139.08-88.7 198.87h111.11c49.27-58.9 89.46-126.03 117.65-198.87h-140.06zM197.94 1221.25c90.46 93.9 206.56 163.25 337.06 196.07-85.15-36.22-162.08-95.25-223.15-175.53-4.82-6.34-8.43-13.98-13.07-20.54H197.94zm145.65 0c64.22 83.67 144.52 142.89 233.42 173.66-38.04-38.2-71.29-91.65-98.97-156.85-2.03-4.8-2.69-11.88-4.67-16.81H343.59zm168.07 0c.23.56.69 1.31.93 1.87 26.55 62.55 57.91 113.12 91.5 146.59 27.69 27.58 56.8 40.89 85.9 45.75v-194.21H511.65h.01zm215.67 0v194.21c28.99-4.93 57.38-18.27 84.97-45.75 33.59-33.47 64.94-84.04 91.5-146.59.24-.56.69-1.31.93-1.87h-177.4zm215.68 0c-1.97 4.93-2.63 12.01-4.66 16.81-27.69 65.2-60.93 118.64-98.97 156.85 88.89-30.77 169.2-89.99 233.42-173.66H943.01zm174.6 0c-4.64 6.56-8.25 14.2-13.07 20.54-61.45 80.77-139.24 139.4-225.02 175.53 131.19-32.6 248.06-101.8 338.93-196.07h-100.84z" style="fill:#a0968c;stroke:none;stroke-linecap:butt;stroke-width:0.75"/>
      </g>
    </svg>
  </defs>
  <defs>
    <svg viewBox="0 0 1417.32 1417.32" color-interpolation-filters="sRGB" style="fill:none;fill-rule:evenodd;font-size:12px;overflow:visible;stroke-linecap:square;stroke-miterlimit:3" id="DataTariff">
      <g transform="translate(0 -10.504)">
        <path d="M535 21.01C404.5 53.83 288.4 123.18 197.94 217.08h100.84c4.64-6.56 8.25-14.2 13.07-20.54 61.07-80.28 138-139.31 223.15-175.53zm344.52 0c85.78 36.13 163.57 94.76 225.02 175.53 4.82 6.34 8.43 13.98 13.07 20.54h100.84c-90.87-94.27-207.74-163.47-338.93-196.07zm-189.53 1.87c-29.1 4.85-58.21 18.16-85.9 45.75-33.59 33.46-64.94 84.03-91.5 146.58-.24.56-.7 1.31-.93 1.87h178.33V22.88zm37.34 0v194.2h177.4c-.24-.56-.69-1.31-.93-1.87-26.56-62.55-57.91-113.12-91.5-146.58-27.59-27.49-55.98-40.83-84.96-45.75h-.01zM577.01 43.42c-88.9 30.77-169.2 89.99-233.42 173.66h129.78c1.98-4.92 2.63-12.01 4.67-16.81 27.68-65.2 60.93-118.64 98.97-156.85zm262.37 0c38.04 38.21 71.28 91.65 98.97 156.85 2.03 4.8 2.69 11.89 4.66 16.81h129.79c-64.22-83.67-144.53-142.89-233.42-173.66zM164.33 254.43C115 313.42 75.8 380.33 47.62 453.3h139.12c21.03-73.01 51.72-139.08 88.69-198.87h-111.1zm154.99 0c-39.01 58.64-71.04 124.88-93.37 198.87h184.87c12.08-74.01 29.98-138.58 51.35-198.87H319.32zm182.06 0c-21.9 59.15-40.66 123.97-53.21 198.87h241.82V254.43H501.38zm225.95 0V453.3h241.83C956.6 378.38 936.92 313.59 915 254.43H727.33zm226.89 0c21.37 60.29 39.27 124.86 51.35 198.87h185.8c-22.35-74.05-55.24-140.2-94.3-198.87H954.22zm186.73 0c36.98 59.79 67.67 125.86 88.7 198.87h140.06c-28.2-73.04-68.27-139.83-117.65-198.87h-111.11zM34.55 490.65C14.15 553.73 2.74 620.09.93 689.52h151.26c1.37-69.54 10.82-135.45 26.14-198.87H34.55zm183 0c-16 63.11-26.56 129.02-28.01 198.87h200.74c.8-70.23 8-134.98 16.8-198.87H217.55zm227.81 0c-9 63.59-16.9 128.51-17.74 198.87h262.37V490.65H445.36zm281.97 0v198.87h261.43c-.83-70.36-7.8-135.28-16.8-198.87H727.33zm281.98 0c8.8 63.89 16 128.64 16.8 198.87h201.68c-1.45-69.87-12.01-135.74-28.01-198.87h-190.47zm228.75 0c15.32 63.42 24.77 129.33 26.14 198.87h152.19c-1.81-69.43-13.22-135.79-33.61-198.87h-144.72zM0 726.87c1.76 69.68 14.07 136.52 34.55 199.81h143.78c-15.33-63.46-24.78-130.23-26.14-199.81H0zm189.54 0c1.44 69.89 12 136.65 28.01 199.81h189.53c-8.82-63.97-16-129.48-16.8-199.81H189.54zm238.08 0c.84 70.45 8.72 136.14 17.74 199.81h244.63V726.87H427.62zm299.71 0v199.81h244.63c9.02-63.66 15.97-129.36 16.8-199.81H727.33zm298.78 0c-.8 70.33-7.98 135.84-16.8 199.81h190.47c16.01-63.18 26.57-129.9 28.01-199.81h-201.68zm238.09 0c-1.37 69.58-10.81 136.35-26.14 199.81h144.72c20.48-63.29 32.78-130.13 34.54-199.81H1264.2zM47.62 964.02c28.17 72.77 67.49 140.02 116.71 198.88h111.1c-36.97-59.79-67.66-125.87-88.69-198.88H47.62zm178.33 0c22.33 73.99 54.36 140.24 93.37 198.88h142.85c-21.36-60.28-39.27-124.9-51.35-198.88H225.95zm222.22 0c12.55 74.89 31.31 139.73 53.21 198.88h188.61V964.02H448.17zm279.16 0v198.88H915c21.91-59.16 41.6-123.98 54.16-198.88H727.33zm278.24 0c-12.08 73.98-29.99 138.6-51.35 198.88h142.85c39.06-58.68 71.95-124.82 94.3-198.88h-185.8zm224.08 0c-21.03 73.01-51.72 139.09-88.7 198.88h111.11c49.27-58.9 89.46-126.03 117.65-198.88h-140.06zM197.94 1200.24c90.46 93.91 206.56 163.25 337.06 196.08-85.15-36.23-162.08-95.26-223.15-175.54-4.82-6.33-8.43-13.98-13.07-20.54H197.94zm145.65 0c64.22 83.67 144.52 142.89 233.42 173.67-38.04-38.21-71.29-91.66-98.97-156.86-2.03-4.8-2.69-11.88-4.67-16.81H343.59zm168.07 0c.23.56.69 1.31.93 1.87 26.55 62.56 57.91 113.12 91.5 146.59 27.69 27.58 56.8 40.89 85.9 45.75v-194.21H511.65h.01zm215.67 0v194.21c28.99-4.92 57.38-18.26 84.97-45.75 33.59-33.47 64.94-84.03 91.5-146.59.24-.56.69-1.31.93-1.87h-177.4zm215.68 0c-1.97 4.93-2.63 12.01-4.66 16.81-27.69 65.21-60.93 118.65-98.97 156.86 88.89-30.78 169.2-90 233.42-173.67H943.01zm174.6 0c-4.64 6.56-8.25 14.21-13.07 20.54-61.45 80.77-139.24 139.4-225.02 175.54 131.19-32.61 248.06-101.81 338.93-196.08h-100.84z" style="fill:#a0968c"/>
        <path d="M157.32 1326.56a51.024 51.024-180 1 0-102.04 0 51.024 51.024-180 1 0 102.04 0" style="stroke:#ff0000;stroke-linecap:butt;stroke-width:100"/>
      </g>
    </svg>
  </defs>
  <defs>
    <svg viewBox="0 0 1417.32 1417.32" color-interpolation-filters="sRGB" style="fill:none;fill-rule:evenodd;font-size:12px;overflow:visible;stroke-linecap:square;stroke-miterlimit:3" id="Device">
      <g transform="translate(329.949)">
        <path d="M62.53.07A69.034 69.034-180 0 0 0 69.04v1278.74a69.034 69.034-180 0 0 68.96 69.54h619.5a69.034 69.034-180 0 0 68.96-69.54V69.04A69.034 69.034-180 0 0 688.46.07H68.96a69.034 69.034-180 0 0-6.43 0zM46.17 82.48h665.08v1153.09H46.17V82.48zm301.57 1192.83a32.274 32.274 0 0 1 2.92 0h56.11a32.274 32.274 0 0 1 32.14 32.14v28.05a32.274 32.274 0 0 1-32.14 32.15h-56.11a32.274 32.274 0 0 1-32.14-32.15v-28.05a32.274 32.274 0 0 1 29.22-32.14z" style="fill:#a0968c;stroke:none;stroke-linecap:butt;stroke-width:5.53643"/>
      </g>
    </svg>
  </defs>
  <defs>
    <svg viewBox="0 0 1417.32 1417.32" color-interpolation-filters="sRGB" style="fill:none;fill-rule:evenodd;font-size:12px;overflow:visible;stroke-linecap:square;stroke-miterlimit:3" id="DownArrow">
      <g transform="translate(112.963)">
        <path d="M1191.39 823.02l-595.65 594.3L0 820.72l.14-330.55 460.73 456.74L461.04 0l264.97.29.06 952.85L1191.4 491.5l-.01 331.52z" style="fill:#a0968c;stroke:none;stroke-linecap:butt;stroke-width:0.434897"/>
      </g>
    </svg>
  </defs>
  <defs>
    <svg viewBox="0 0 1417.32 1417.32" color-interpolation-filters="sRGB" style="fill:none;fill-rule:evenodd;font-size:12px;overflow:visible;stroke-linecap:square;stroke-miterlimit:3" id="EndArrow">
      <g transform="translate(0 -.425)">
        <path d="M654.65.85l-1.7 1107.28-191.84-190.17-.06 137.63 248.05 248.42 248.02-247.46V918.51l-193.75 192.22L764.99.85H654.65zM.85 1417.32h1416.47v-113.31H.85v113.31z" style="fill:#000000;stroke:none;stroke-linecap:butt;stroke-width:0.434897"/>
      </g>
    </svg>
  </defs>
  <defs>
    <svg viewBox="0 0 1417.32 1417.32" color-interpolation-filters="sRGB" style="fill:none;fill-rule:evenodd;font-size:12px;overflow:visible;stroke-linecap:square;stroke-miterlimit:3" id="File">
      <g transform="translate(163.04)">
        <path d="M76.81 0C34.05 0 0 34.47 0 77.23V1340.1c0 42.76 34.05 77.22 76.81 77.22h937.63c42.76 0 76.8-34.46 76.8-77.22V391.17H808.78c-57.84 0-108.29-42.19-108.29-98.21V0H76.81zm677.41 0v292.96c0 23.02 21.91 44.49 54.56 44.49h282.46L754.22 0z" style="fill:#a0968c;stroke:none;stroke-linecap:butt;stroke-width:0.722702"/>
      </g>
    </svg>
  </defs>
  <defs>
    <svg viewBox="0 0 1417.32 1417.32" color-interpolation-filters="sRGB" style="fill:none;fill-rule:evenodd;font-size:12px;overflow:visible;stroke-linecap:square;stroke-miterlimit:3" id="Info">
      <g>
        <path d="M1417.32 708.66A708.66 708.66-180 1 0 0 708.66a708.66 708.66-180 1 0 1417.32 0zm-107.37 0a601.288 601.288-180 1 0-1202.58 0 601.288 601.288-180 1 0 1202.58 0zM651.97 914.17h113.38l28.35-666.14H623.62l28.35 666.14zm-14.17 262.21h141.73v-141.73H637.8v141.73z" style="fill:#000000;stroke:none;stroke-linecap:round;stroke-linejoin:round;stroke-width:0.75"/>
      </g>
    </svg>
  </defs>
  <defs>
    <svg viewBox="0 0 1417.32 1417.32" color-interpolation-filters="sRGB" style="fill:none;fill-rule:evenodd;font-size:12px;overflow:visible;stroke-linecap:square;stroke-miterlimit:3" id="Inquiry">
      <g transform="translate(.003 -178.922)">
        <path d="M12.58 801.4A14.034 14.034-180 0 0 0 815.66v507.97a14.034 14.034-180 0 0 13.84 14.26h803.69a14.034 14.034-180 0 0 13.84-14.26V815.66a14.034 14.034-180 0 0-13.84-14.26H13.84a14.034 14.034-180 0 0-1.26 0zm38.17 28.1h729.02l-260.06 221.48c-34.45 29.29-69.04 43.43-103.61 43.62-34.57.18-69.88-13.52-105.28-43.62l-1.26-.84L50.75 829.5zm752.51 17.2v444.63l-247.48-234.06L803.26 846.7zm-775.16.42l247.07 210.15L28.1 1291.33V847.12zm269.3 228.18c37.97 30.96 78.09 47.21 118.7 46.98 40.85-.22 81.09-16.48 118.29-46.98l247.9 234.48H49.07L297.4 1075.3zm525.44-455.72c-.92 16.71 6.03 29.7 20.89 38.98 12.06 9.29 27.38 13.93 45.94 13.93s34.34-4.64 47.33-13.93c13.93-9.28 20.42-22.27 19.5-38.98 0-55.69 6.49-91.88 19.49-108.59 18.56-22.28 61.72-33.41 129.47-33.42 57.55.01 101.63 15.32 132.26 45.95 30.63 29.7 45.95 71.47 45.95 125.3 0 48.26-12.07 88.64-36.2 121.12-26.92 36.2-68.22 59.87-123.91 71l-25.06 4.18c-25.99 5.57-42.69 10.21-50.12 13.92-11.14 4.64-18.1 12.53-20.88 23.67-1.85 6.5-2.79 15.78-2.79 27.84-.92 7.43-.92 22.28 0 44.56v121.12c-.92 12.07 5.57 21.35 19.49 27.84 12.07 6.5 26.92 9.75 44.56 9.75 17.63 0 32.02-3.25 43.15-9.75 13.93-6.49 20.42-15.77 19.5-27.84-2.79-18.56-3.72-36.2-2.79-52.91 0-13.92 1.4-32.02 4.18-54.29 79.82-25.06 139.68-56.15 179.59-93.28 56.62-53.83 84.93-129.01 84.93-225.54 0-101.17-25.06-174.95-75.18-221.36-50.12-47.34-129.01-71.01-236.68-71.01-101.16 0-174.49 22.28-219.97 66.83-41.76 41.77-62.65 106.74-62.65 194.91zm368.94 703.07c0-27.84-11.6-51.05-34.8-69.61-20.42-16.71-44.56-25.06-72.4-25.06-28.77 0-53.83 8.35-75.18 25.06-21.35 18.56-32.02 41.77-32.02 69.61 0 27.85 10.67 50.59 32.02 68.22 21.35 17.64 46.41 26.45 75.18 26.45 27.84 0 51.98-8.81 72.4-26.45 23.2-17.63 34.8-40.37 34.8-68.22z" style="fill:#a0968c;stroke:none;stroke-linecap:butt;stroke-width:1.5681"/>
      </g>
    </svg>
  </defs>
  <defs>
    <svg viewBox="0 0 1417.32 1417.32" color-interpolation-filters="sRGB" style="fill:none;fill-rule:evenodd;font-size:12px;overflow:visible;stroke-linecap:square;stroke-miterlimit:3" id="LeftArrow">
      <g transform="translate(0 -112.963)">
        <path d="M594.3 1417.32L0 821.67l596.6-595.74 330.55.14L470.42 686.8l946.9.16-.29 264.98-952.85.06 461.65 465.32H594.3z" style="fill:#a0968c;stroke:none;stroke-linecap:butt;stroke-width:0.434897"/>
      </g>
    </svg>
  </defs>
  <defs>
    <svg viewBox="0 0 1417.32 1417.32" color-interpolation-filters="sRGB" style="fill:none;fill-rule:evenodd;font-size:12px;overflow:visible;stroke-linecap:square;stroke-miterlimit:3" id="MessageFreebees">
      <g transform="translate(0 -269.584)">
        <path d="M492.38 988.6c69.44 56.6 142.79 86.31 217.05 85.9 74.68-.42 148.27-30.14 216.28-85.9l453.27 428.72H38.35L492.38 988.6zM0 571.38l451.73 384.24L0 1383.58v-812.2zm1417.32-.77v812.97l-452.5-427.96 452.5-385.01zM41.42 539.17h1332.95L898.86 944.12c-62.98 53.56-126.22 79.41-189.43 79.76-63.21.35-127.77-24.72-192.51-79.76l-2.3-1.54-473.2-403.41z" style="fill:#a0968c;stroke:none;stroke-linecap:butt;stroke-width:1.5681"/>
      </g>
    </svg>
  </defs>
  <defs>
    <svg viewBox="0 0 1417.32 1417.32" color-interpolation-filters="sRGB" style="fill:none;fill-rule:evenodd;font-size:12px;overflow:visible;stroke-linecap:square;stroke-miterlimit:3" id="MessageTariff">
      <g transform="translate(0 -134.792)">
        <path d="M492.38 719.01c69.44 56.61 142.79 86.31 217.05 85.9 74.68-.41 148.27-30.14 216.28-85.9l453.27 428.73H38.35l454.03-428.73zM0 301.79l451.73 384.25L0 1113.99v-812.2zm1417.32-.76V1114l-452.5-427.96 452.5-385.01zM41.42 269.58h1332.95L898.86 674.53c-62.98 53.57-126.22 79.42-189.43 79.77-63.21.34-127.77-24.72-192.51-79.77l-2.3-1.53-473.2-403.42z" style="fill:#a0968c"/>
        <path d="M157.32 1314.03a51.024 51.024-180 1 0-102.04 0 51.024 51.024-180 1 0 102.04 0" style="stroke:#ff0000;stroke-linecap:butt;stroke-width:100"/>
      </g>
    </svg>
  </defs>
  <defs>
    <svg viewBox="0 0 1417.32 1417.32" color-interpolation-filters="sRGB" style="fill:none;fill-rule:evenodd;font-size:12px;overflow:visible;stroke-linecap:square;stroke-miterlimit:3" id="Migrate">
      <g transform="translate(0 -265.497)">
        <path d="M0 530.99v886.33h602.95V1126.7H500.44v188.12H102.5V633.49h397.94V818h102.51V530.99H0zm814.78 0v152.35h102.1v-49.85h398.34v681.33H916.88V1269h-102.1v148.32h602.54V530.99H814.78zm48.24 228.72a51.223 51.223-180 0 0-27.34 92.45l88.84 65.52H420.05a51.225 51.225-180 0 0-5.22 0 51.317 51.317-180 1 0 5.22 102.5h507.28l-89.24 74.77a51.223 51.223-180 1 0 65.93 78.38l202.59-170.03a51.223 51.223-180 0 0-2.42-80.39L896.78 769.76a51.223 51.223-180 0 0-33.76-10.05z" style="fill:#a0968c;stroke:none;stroke-linecap:butt;stroke-width:5.973"/>
      </g>
    </svg>
  </defs>
  <defs>
    <svg viewBox="0 0 1417.32 1417.32" color-interpolation-filters="sRGB" style="fill:none;fill-rule:evenodd;font-size:12px;overflow:visible;stroke-linecap:square;stroke-miterlimit:3" id="Migration">
      <g transform="translate(0 -265.497)">
        <path d="M0 530.99v886.33h602.95V1126.7H500.44v188.12H102.5V633.49h397.94V818h102.51V530.99H0zm814.78 0v152.35h102.1v-49.85h398.34v681.33H916.88V1269h-102.1v148.32h602.54V530.99H814.78zm48.24 228.72a51.223 51.223-180 0 0-27.34 92.45l88.84 65.52H420.05a51.225 51.225-180 0 0-5.22 0 51.317 51.317-180 1 0 5.22 102.5h507.28l-89.24 74.77a51.223 51.223-180 1 0 65.93 78.38l202.59-170.03a51.223 51.223-180 0 0-2.42-80.39L896.78 769.76a51.223 51.223-180 0 0-33.76-10.05z" style="fill:#a0968c;stroke:none;stroke-linecap:butt;stroke-width:5.973"/>
      </g>
    </svg>
  </defs>
  <defs>
    <svg viewBox="0 0 1417.32 1417.32" color-interpolation-filters="sRGB" style="fill:none;fill-rule:evenodd;font-size:12px;overflow:visible;stroke-linecap:square;stroke-miterlimit:3" id="Notification">
      <g transform="translate(.003 -173.354)">
        <path d="M1417.32 1322.65c0-27.84-11.14-51.05-33.41-69.61-21.35-16.71-45.95-25.06-73.79-25.06-28.77 0-53.37 8.35-73.79 25.06-21.35 18.56-32.02 41.77-32.02 69.61 0 27.85 10.67 50.59 32.02 68.22 20.42 17.64 45.02 26.45 73.79 26.45 27.84 0 52.44-8.81 73.79-26.45 22.27-17.63 33.41-40.37 33.41-68.22zm-200.48-832.54l30.63 506.76c2.78 36.2 8.82 62.65 18.1 79.36 10.21 18.56 25.06 27.84 44.55 27.84 20.42 0 35.73-9.28 45.94-27.84 8.36-16.71 14.39-43.16 18.1-79.36l29.24-506.76c4.64-51.98-1.86-90.03-19.49-114.17-15.78-19.49-39.91-29.23-72.4-29.23-32.48 0-56.62 9.74-72.39 29.23-19.5 24.14-26.92 62.19-22.28 114.17zM297.4 1069.74c37.97 30.95 78.09 47.2 118.7 46.97 40.85-.22 81.09-16.48 118.29-46.97l247.9 234.47H49.08l248.32-234.47zM28.1 841.55l247.07 210.15L28.1 1285.76V841.55zm775.17-.42v444.63L555.78 1051.7l247.49-210.57zm-752.52-17.2h729.03l-260.07 221.48c-34.45 29.29-69.03 43.43-103.61 43.62-34.57.23-69.88-13.51-105.28-43.62l-1.26-.83-258.8-220.64-.01-.01zm-38.17-28.1A14.034 14.034-180 0 0 0 810.09v507.97a14.034 14.034-180 0 0 13.84 14.26h803.69a14.034 14.034-180 0 0 13.84-14.26V810.09a14.034 14.034-180 0 0-13.84-14.26H13.84a14.034 14.034-180 0 0-1.26 0z" style="fill:#a0968c;stroke:none;stroke-linecap:butt;stroke-width:1.5681"/>
      </g>
    </svg>
  </defs>
  <defs>
    <svg viewBox="0 0 1417.32 1417.32" color-interpolation-filters="sRGB" style="fill:none;fill-rule:evenodd;font-size:12px;overflow:visible;stroke-linecap:square;stroke-miterlimit:3" id="Project">
      <g transform="translate(1417.32 -169.221) scale(-1 1)">
        <path d="M795.17 338.76c-104.54-.32-202.43 27.9-274.87 70.18-97.95 57.26-165.25 131.08-218.63 239.32-13.07 26.46-37.41 82.93-53.99 163.75-14.37 70.02-15.64 113.86-17.99 187.14.01 3.54.58 7.3 1.35 10.8.06.29-.07.61 0 .9-2.51 13.32-10.76 33.38-32.84 56.23 169.72 117.28 404.02 189.84 662.64 189.84 42.44 0 84.11-2.05 125.07-5.84 7.06-.62 13.74-1.57 20.69-2.25 134.85-14.62 260.38-49.05 369.79-98.97 26.16-18.74 40.93-39.05 40.93-60.28-53.79-39.19-61.2-73.81-61.63-88.63-.14-4.94.45-7.64.45-7.64h-.9c-2.98-92.82-7.72-198-67.48-335.15-13.91-31.9-67.68-142.29-177.24-219.98-99.33-70.44-210.83-99.11-315.36-99.42h.01zm-618.11 747.22c-44.36 34.38-100.21 78.92-128.22 107.06C0 1242.25 175.95 1298.22 277.82 1325.3c101.74 27.19 297.16 92.02 407.13 53.54 99.09-34.74 176.75-68.2 229.43-92.67-17.66.67-35.64.89-53.54.89-264.34 0-503.66-74.8-677.94-197.03-1.95-1.38-3.9-2.67-5.84-4.05z" style="fill:#a0968c;stroke:none;stroke-linecap:butt;stroke-width:0.75"/>
      </g>
    </svg>
  </defs>
  <defs>
    <svg viewBox="0 0 1417.32 1417.32" color-interpolation-filters="sRGB" style="fill:none;fill-rule:evenodd;font-size:12px;overflow:visible;stroke-linecap:square;stroke-miterlimit:3" id="Provisioning">
      <g transform="translate(0 -109.861)">
        <path d="M602.63 219.72V425.57h138.5v-67.35h537.69v920.6H741.13v-61.91h-138.5v200.41h814.69V219.72H602.63zm65.17 309.04a69.212 69.212-180 0 0-36.39 125.47l119.49 87.98H69.27a69.25 69.25-180 1 0 0 138.5h685.98L634.67 981.73a69.212 69.212-180 1 0 89.08 105.91L996.94 857.9a69.212 69.212-180 0 0-3.26-108.63L713.43 542.34a69.212 69.212-180 0 0-45.63-13.58z" style="fill:#a0968c;stroke:none;stroke-linecap:butt;stroke-width:5.973"/>
      </g>
    </svg>
  </defs>
  <defs>
    <svg viewBox="0 0 1417.32 1417.32" color-interpolation-filters="sRGB" style="fill:none;fill-rule:evenodd;font-size:12px;overflow:visible;stroke-linecap:square;stroke-miterlimit:3" id="Report">
      <g transform="translate(0 -39.661)">
        <path d="M0 79.32v72.35h319.03V79.32H0zm391.38 0v72.35h333.84V79.32H391.38zm406.19 0v72.35h246.68V79.32H797.57zm319.03 0v72.35h300.72V79.32H1116.6zM0 290.26v72.35h319.03v-72.35H0zm391.38 0v72.35h333.84v-72.35H391.38zm406.19 0v72.35h246.68v-72.35H797.57zm319.03 0v72.35h300.72v-72.35H1116.6zM0 501.21v72.34h319.03v-72.34H0zm391.38 0v72.34h333.84v-72.34H391.38zm406.19 0v72.34h246.68v-72.34H797.57zm319.03 0v72.34h300.72v-72.34H1116.6zM0 712.15v72.35h319.03v-72.35H0zm391.38 0v72.35h333.84v-72.35H391.38zm406.19 0v72.35h246.68v-72.35H797.57zm319.03 0v72.35h300.72v-72.35H1116.6zM0 923.09v72.35h319.03v-72.35H0zm391.38 0v72.35h333.84v-72.35H391.38zm406.19 0v72.35h246.68v-72.35H797.57zm319.03 0v72.35h300.72v-72.35H1116.6zM0 1134.03v72.35h319.03v-72.35H0zm391.38 0v72.35h333.84v-72.35H391.38zm406.19 0v72.35h246.68v-72.35H797.57zm319.03 0v72.35h300.72v-72.35H1116.6zM0 1344.97v72.35h319.03v-72.35H0zm391.38 0v72.35h333.84v-72.35H391.38zm406.19 0v72.35h246.68v-72.35H797.57zm319.03 0v72.35h300.72v-72.35H1116.6z" style="fill:#a0968c;stroke:none;stroke-linecap:butt;stroke-width:1.95"/>
      </g>
    </svg>
  </defs>
  <defs>
    <svg viewBox="0 0 1417.32 1417.32" color-interpolation-filters="sRGB" style="fill:none;fill-rule:evenodd;font-size:12px;overflow:visible;stroke-linecap:square;stroke-miterlimit:3" id="Rewards">
      <g transform="translate(36.065)">
        <path d="M251.33 0c.65 29.12 1.23 59.03 1.87 89.57C168.53 74.98 99.68 65.9 11.87 53.25 0 369.03 40.79 687.87 342.99 693.07c47.25 104.04 120.23 184.84 233.72 222-12.16 346.24-217.98 172.06-263.99 502.25h719.76c-46.01-330.19-251.84-156.01-264-502.25 113.49-37.16 186.47-117.96 233.72-222 302.2-5.2 342.99-324.04 331.13-639.82-87.82 12.65-156.67 21.73-241.33 36.32.63-30.54 1.22-60.45 1.86-89.57H251.33zM120.55 165.99c17.12 3.82 123.01 21.75 135.27 22.97 4.57 131.69 14.91 268.09 46.57 387.86-215.74-9.07-199.34-414.59-181.84-410.83zm1104.09 0c17.51-3.76 33.91 401.76-181.83 410.83 31.65-119.77 41.99-256.17 46.57-387.86 12.26-1.22 118.15-19.15 135.26-22.97z" style="fill:#a0968c;stroke:none;stroke-linecap:butt;stroke-width:0.8"/>
      </g>
    </svg>
  </defs>
  <defs>
    <svg viewBox="0 0 1417.32 1417.32" color-interpolation-filters="sRGB" style="fill:none;fill-rule:evenodd;font-size:12px;overflow:visible;stroke-linecap:square;stroke-miterlimit:3" id="RightArrow">
      <g transform="translate(0 -112.963)">
        <path d="M823.02 225.93l594.3 595.65-596.6 595.74-330.55-.14 456.74-460.73L0 956.28l.29-264.97 952.85-.06L491.5 225.93h331.52z" style="fill:#a0968c;stroke:none;stroke-linecap:butt;stroke-width:0.434897"/>
      </g>
    </svg>
  </defs>
  <defs>
    <svg viewBox="0 0 1417.32 1417.32" color-interpolation-filters="sRGB" style="fill:none;fill-rule:evenodd;font-size:12px;overflow:visible;stroke-linecap:square;stroke-miterlimit:3" id="SIMCard">
      <g transform="translate(0 -219.74)">
        <path d="M69.27 439.48C30.82 439.48 0 470.3 0 508.75v839.31c0 38.44 30.82 69.26 69.27 69.26h1157.45l186.3-186.3c1.38-1.37 2.91-2.52 4.3-3.82V508.75c0-38.45-31.29-69.27-69.74-69.27H69.27zm74.04 41.08h235.02c29.78 37.97 38.11 92.73 38.7 131.85.27 49.16-11.4 97.6-27.71 118.46H73.57V549.83c0-38.45 31.29-69.27 69.74-69.27zm275.15 0h674.99c38.44 0 69.26 30.82 69.26 69.27V730.4H843.13c-9.97-.62-10.31.93-17.19 4.77-29.34 31.02-39.82 88.08-40.13 145.22-.27 50.01 7.44 100.41 30.09 132.8-23.63 32.31-32.67 84.17-32.96 136.15-.27 49.55 7.43 98.95 29.62 131.36H421.33c22.18-32.41 29.41-81.81 29.14-131.36-.29-51.83-8.99-103.82-32.49-136.15 22.56-32.39 29.89-82.8 29.62-132.8-.28-50.76-8.63-101.31-31.05-133.75 23.69-32.22 31.33-83.19 31.05-134.23-.27-49.56-7.91-99.34-29.14-131.85zm425.63 280.89h318.62v237.89H844.09c-16.32-20.87-27.98-69.77-27.71-118.95.27-48.64 12.18-97.35 27.71-118.94zm-770.52.47h315.75c15.53 21.54 27.44 69.84 27.71 118.47.27 49.17-11.4 98.08-27.71 118.95H73.57V761.92zm0 268.47H390.28c22.32 35.64 29.13 84.11 29.61 118.94-4.4 47.41-7.84 97.7-39.64 131.37H143.31c-38.45 0-69.74-30.82-69.74-69.26v-181.05zm769.56 0h319.58v181.05c0 38.44-30.82 69.26-69.26 69.26H853.64c-32.54-35.35-39.96-93.52-40.12-131.37.24-44.27 9.92-88.79 23.4-112.73 2.01-2.82 3.66-4.65 6.21-6.21z" style="fill:#a0968c;stroke:none;stroke-linecap:butt;stroke-width:0.75"/>
      </g>
    </svg>
  </defs>
  <defs>
    <svg viewBox="0 0 1417.32 1417.32" color-interpolation-filters="sRGB" style="fill:none;fill-rule:evenodd;font-size:12px;overflow:visible;stroke-linecap:square;stroke-miterlimit:3" id="SquareAim">
      <g>
        <path d="M0 0V646.55h93.17V93.17h553.38V0H0zm770.77 0v93.17h553.39v553.38h93.16V0H770.77zM0 770.77v646.55h646.55v-93.16H93.17V770.77H0zm1324.16 0v553.39H770.77v93.16h646.55V770.77h-93.16z" style="fill:#a0968c;stroke:none;stroke-linecap:butt;stroke-width:4.5"/>
      </g>
    </svg>
  </defs>
  <defs>
    <svg viewBox="0 0 1417.32 1417.32" color-interpolation-filters="sRGB" style="fill:none;fill-rule:evenodd;font-size:12px;overflow:visible;stroke-linecap:square;stroke-miterlimit:3" id="SquareDashed">
      <g>
        <path d="M0 0v377.03h93.17V93.17h283.86V0H0zm501.25 0v93.17h414.82V0H501.25zm539.04 0v93.17h283.87v283.86h93.16V0h-377.03zM0 501.25v414.82h93.17V501.25H0zm1324.16 0v414.82h93.16V501.25h-93.16zM0 1040.29v377.03h377.03v-93.16H93.17v-283.87H0zm1324.16 0v283.87h-283.87v93.16h377.03v-377.03h-93.16zm-822.91 283.87v93.16h414.82v-93.16H501.25z" style="fill:#a0968c;stroke:none;stroke-linecap:butt;stroke-width:4.5"/>
      </g>
    </svg>
  </defs>
  <defs>
    <svg viewBox="0 0 1417.32 1417.32" color-interpolation-filters="sRGB" style="fill:none;fill-rule:evenodd;font-size:12px;overflow:visible;stroke-linecap:square;stroke-miterlimit:3" id="Square">
      <g>
        <path d="M0 0v1417.32h1417.32V0H0zm93.17 93.17h1230.99v1230.99H93.17V93.17z" style="fill:#a0968c;stroke:none;stroke-linecap:butt;stroke-width:4.5"/>
      </g>
    </svg>
  </defs>
  <defs>
    <svg viewBox="0 0 1417.32 1417.32" color-interpolation-filters="sRGB" style="fill:none;fill-rule:evenodd;font-size:12px;overflow:visible;stroke-linecap:square;stroke-miterlimit:3" id="Stakeholder">
      <g transform="translate(82.132)">
        <path d="M626.61 0C440.78 0 289.96 146.55 289.96 327.42S440.78 780.7 626.61 780.7c185.82 0 336.41-272.41 336.41-453.28C963.02 146.55 812.43 0 626.61 0zM995.9 747.1c-145.07 5.05-238.06 101.97-373.55 101.97-166.76 0-212.91-131.45-483.33-88.48C0 782.68.15 1417.32.15 1417.32h1252.91s-28.7-624.52-147.15-656.73c-40.19-10.93-76.53-14.65-110.01-13.49z" style="fill:#a0968c;stroke:none;stroke-linecap:butt;stroke-width:0.75"/>
      </g>
    </svg>
  </defs>
  <defs>
    <svg viewBox="0 0 1417.32 1417.32" color-interpolation-filters="sRGB" style="fill:none;fill-rule:evenodd;font-size:12px;overflow:visible;stroke-linecap:square;stroke-miterlimit:3" id="Subscribe">
      <g transform="translate(0 -109.861)">
        <path d="M602.63 219.72V425.57h138.5v-67.35h537.69v920.6H741.13v-61.91h-138.5v200.41h814.69V219.72H602.63zm65.17 309.04a69.212 69.212-180 0 0-36.39 125.47l119.49 87.98H69.27a69.25 69.25-180 1 0 0 138.5h685.98L634.67 981.73a69.212 69.212-180 1 0 89.08 105.91L996.94 857.9a69.212 69.212-180 0 0-3.26-108.63L713.43 542.34a69.212 69.212-180 0 0-45.63-13.58z" style="fill:#a0968c;stroke:none;stroke-linecap:butt;stroke-width:5.973"/>
      </g>
    </svg>
  </defs>
  <defs>
    <svg viewBox="0 0 1417.32 1417.32" color-interpolation-filters="sRGB" style="fill:none;fill-rule:evenodd;font-size:12px;overflow:visible;stroke-linecap:square;stroke-miterlimit:3" id="Support">
      <g transform="translate(62.063)">
        <path d="M794.79 874.57c-83.94-8.84-119.15-126.34-55.06-180.56 56.21-56.9 167.43-19.14 174.64 61.46 11.98 67.09-52.17 132.24-119.58 119.1zm-426.5.13c-85.33-8.87-120.05-130.79-52.47-183.32 57.69-53.29 164.03-14.87 172.11 64.15 11.96 67.48-52.43 130.72-119.64 119.17zm227.88 529.07c-73.81-10.09-147.17-85.22-116.83-162.55 54.36-128.62 278.59-122.39 318.59 14.51 58.1 3.71 118.17-14.73 174.96-29.03 59.83-32.3 75.8-113.03 106.41-170.34 14.47-31.95 42.71-104.71-13.57-52.73-77.51 19.01-72.01 111.78-124.05 160.52-54.53 90.82-152.28-29.27-69.49-81.31 44.78-48.08 29.6-149.13 111.38-154.83 68.91-15.75 34.07-99.63 40.66-150-65.98-22.19-51.01-100.48-57.32-158.24 7.3-78.06-88.86-77.93-144.46-81.56-89.27-5.49-181.85 8.45-268.67-16.96-55.36-20.79-96.15-70.56-113.62-126.15-29.99 46.07-45.1 124.82-110.08 145.37-55.93 9.3-115.65 19.43-102.9 91.09-3.22 51.42 6.53 156.91-75.9 132.98-51.86-30.59-39.85 98.31-2.57 114.85 29.68 53.05 112.42 38.28 127.87 100.04 17.93 81.6 75.18 145.62 136.23 198.97 48.42 79.66-76.82 109.26-110.33 40.46-53.84-53.4-94.68-119.09-122.56-189.13C89.21 985.9 0 898.11 13.88 788.69c3.11-85.56 88.46-140.55 57.2-230.28C67 402.92 118.37 237.5 244.62 138.85 401.13 15.63 623.16 0 807.84 61.16c162.46 53.44 280.23 205.74 303.37 373.55 14.01 53.47-15.57 142.83 70 133.76 77 23.71 111.99 108.54 103.25 183.73-.18 62.78 5.99 134.22-42.95 182.24-70.32 33.3-60.71 117.42-95.17 177.46-27.73 58.81-55.4 119.77-96.42 170.41-81.77 44.89-177.82 50.99-268.69 62.38-46.92 48.89-117.65 72.63-185.06 59.08z" style="fill:#a0968c;stroke:none;stroke-linecap:butt;stroke-width:0.75"/>
      </g>
    </svg>
  </defs>
  <defs>
    <svg viewBox="0 0 1417.32 1417.32" color-interpolation-filters="sRGB" style="fill:none;fill-rule:evenodd;font-size:12px;overflow:visible;stroke-linecap:square;stroke-miterlimit:3" id="Unsubscribe">
      <g transform="translate(0 -150.299)">
        <path d="M0 300.6v1116.72H759.68V1051.16H630.53v237.02H129.15V429.74h501.38V662.2h129.15V300.6H0zm1087.35 288.17a64.538 64.538-180 0 0-33.93 116.99l111.42 82.04h-635.6a64.573 64.573-180 1 0 0 129.15h639.14l-111.92 94.2a64.538 64.538-180 1 0 82.55 98.76l255.25-214.23a64.538 64.538-180 0 0-3.04-101.29l-261.33-192.45a64.538 64.538-180 0 0-42.54-13.17z" style="fill:#a0968c;stroke:none;stroke-linecap:butt;stroke-width:5.973"/>
      </g>
    </svg>
  </defs>
  <defs>
    <svg viewBox="0 0 1417.32 1417.32" color-interpolation-filters="sRGB" style="fill:none;fill-rule:evenodd;font-size:12px;overflow:visible;stroke-linecap:square;stroke-miterlimit:3" id="UpArrow">
      <g transform="translate(1530.29) rotate(90)">
        <path d="M594.3 1417.32L0 821.67l596.6-595.74 330.55.14L470.42 686.8l946.9.16-.29 264.98-952.85.06 461.65 465.32H594.3z" style="fill:#a0968c;stroke:none;stroke-linecap:butt;stroke-width:0.434897"/>
      </g>
    </svg>
  </defs>
  <defs>
    <svg viewBox="0 0 1417.32 1417.32" color-interpolation-filters="sRGB" style="fill:none;fill-rule:evenodd;font-size:12px;overflow:visible;stroke-linecap:square;stroke-miterlimit:3" id="XOR">
      <g>
        <path d="M1417.32 708.66A708.66 708.66-180 1 0 0 708.66a708.66 708.66-180 1 0 1417.32 0zm-107.37 0a601.288 601.288-180 1 0-1202.58 0 601.288 601.288-180 1 0 1202.58 0zM765.93 651.4V236.22H651.4V651.4H236.22v114.53H651.4v415.17h114.53V765.93h415.17V651.4H765.93z" style="fill:#000000;stroke:none;stroke-linecap:round;stroke-linejoin:round;stroke-width:0.75"/>
      </g>
    </svg>
  </defs>
</svg>