<?xml version="1.0" encoding="UTF-8" standalone="yes"?>
<svg xmlns="http://www.w3.org/2000/svg" viewBox="0 0 584.486 290.927" width="100%" height="100%">
  <path id="ae" class="country" d="M371.2 121.51l4.6-4.68-2.1-1.87-3.3 3.71-4.17-0.82 1.74 3.19 3.23 0.46v0.01z"/>
  <path id="af" class="country" d="M383.16 106.24l7.83 0.08 7.3-6.75 2-8.67-1.3-3.66-5.59 2.88-4.21-1.13-7.8 4.01-1.61 3.4 3.39 9.84h-0.01z"/>
  <path id="al" class="country" d="M303.04 78.81l-0.51-0.73-0.7-0.96-1.98 1.06 1.12 4.82 0.31 0.37 2.06-0.68-0.3-3.88z"/>
  <path id="am" class="country" d="M352.67 85.14l-3.59-3.28h-2.38l1.72 3.7 4.25-0.42z"/>
  <path id="ao" class="country" d="M307.25 185.51h-4.13l-0.83 2.93-4.12 0.14-1.07-3.7-6.53 0.05v14.59l-3.73 6.13 0.32 4.01h23.06l-3.77-4.68v-5.21h4.6l-0.15-5.8-3.65-1.8v-6.66z"/>
  <path id="ar" class="country" d="M150.32 229.75v-4.4l-10.1-6.83-0.57 1.04h-8.43l-2.26 21 4.76 20.82 4.3 7.66 0.2 5.74 6.38 9.78 2.33 0.24-1.21-25.02 13.55-5.87-6.14-8.55v-9.41l5.98-6.14-0.16-2.3-0.02 0.01-3.67 2.23h-4.94z"/>
  <path id="at" class="country" d="M293.75 68.69l2.28-1.87 0.82-0.67-2.3-2.18h-5.67l1.35 1.8-3.96 1.17-0.47 0.14h-3.12l0.89 2.71 4.74-1.11h5.44v0.01z"/>
  <path id="au" class="country" d="M475.38 222.63v17.64l-2.49 5.97 1.86 2.24 30.21-6.59 4.97 4.35 5.22-2.24 1.86 10.32 15.29 0.87 17.65-18.27 0.98-10.32-9.69-13.67-3.1-14.91-2.74-0.87v8.32l-5.96 5.97-8.95-7.71 2.73-4.97-10.81 0.25-2.86 5.97-6.46-2.86-11.81 13.05-15.9 7.46z"/>
  <path id="az" class="country" d="M353.84 79.98l-0.03-0.01-2.91-0.72-1.82 2.62 3.58 3.27 3.89-0.39-2.71-4.77z m-0.03 0.01l-2.93-0.73 2.93 0.71 0.03 0.01-0.03 0.01z"/>
  <path id="ba" class="country" d="M300.11 71.58l-5.66 0.77 2.38 5.09 1.37 0.34 2.65-2.03-0.75-4.17h0.01z"/>
  <path id="bd" class="country" d="M448.17 123.34l-3.64-3.41-0.6-4.07-2.91 1.19-2.5-3.33-1.7 0.79 2.41 7.62 1.55-1.51 6.94 5.83 0.45-3.11z"/>
  <path id="be" class="country" d="M277.51 59.59l-3.64-1.94-2.28 1.36 4.56 2.39 1.31-0.71 0.03-0.62 0.02-0.48z"/>
  <path id="bf" class="country" d="M257.75 149.98v-2.78h5.47l2.53-0.93 0.63-0.23 3.19-1.17-6.06-5.52-10.93 4.42v5.18l5.17 1.03z"/>
  <path id="bg" class="country" d="M306.45 75.17l0.52 1.22 0.65 1.52 1.28 3 4.97-1.62 2.31-0.75 1.2-3.66-2.43-0.67-8.5 0.97v-0.01z"/>
  <path id="bi" class="country" d="M324.81 175.79l-2.78 0.59-0.56 2.32-0.2 0.87 1.28 1.82 2.26-5.6z"/>
  <path id="bj" class="country" d="M271.17 144.29l-1.59 0.59-3.2 1.17-0.63 0.23 1.77 10.68 1.1-0.32 0.77-3.73 1.78-8.62z"/>
  <path id="bo" class="country" d="M140.2 218.51l2.71-4.96 6.35-0.04-0.14-4.74-10.82-8.84-5.57-5.72-6.2 1.75v14.19l4.67 9.42h8.44l0.57-1.05-0.01-0.01z m0 0v0.01-0.01z"/>
  <path id="br" class="country" d="M123.23 177.99v2.13l-5.47 0.67-2.41 7.86 9.14 7.88 2.05-0.57 6.2-1.75 5.57 5.72 10.81 8.83 0.15 4.75 0.17 5.59 9.24 4.94 0.26 3.47-0.01 0.01 0.18 2.3-5.98 6.13 10.24 7.02 5.96-10.41 1.4-9.01 14.49-6.41 2.7-20.04 6.24-8.17v-4.95l-10.22-6.66-10.01-0.61 0.27-2.74-4.63-2-4.62 2.72 1.5-4.05-3.06-1.33-4.37 3.35 3.17-4.68-2.79-6.1-1.21 3.42-4.08 0.46-2.57 0.28-2.88 0.32-6.08 0.68 0.36-7.59-2.65 0.97-6.08 2.24 0.38 4.92-4.55 1.47-1.42-3.17-1.12 0.07-4.26 0.28v11.76h-0.01z"/>
  <path id="bt" class="country" d="M437.4 109.51l-0.58 2.63 4.2 1.05 1-2.1-2.11-0.72-2.5-0.87-0.01 0.01z"/>
  <path id="bw" class="country" d="M306.99 229.11l13.6-9.12-0.44-0.62-5.51-7.72h-10.98v13.61l3.33 3.85z"/>
  <path id="by" class="country" d="M319.29 56.57l2-1.28-3.47-5.63-4.52 0.02-1.47 1.26-0.01-0.01-4.75 4.04 1 2.75 8.95 1.43 5.56-1.22-3.32-1.35 0.03-0.01z"/>
  <path id="bz" class="country" d="M87.09 131.43l0.64 3.19 3.17-5.99-3.76 2.8h-0.05z"/>
  <path id="ca" class="country" d="M47.99 62.5l-3.27-2.66-1.4 1.2 2.28 2.98h2.39v-1.52z m0.2-15.51l0.03 0.03 2.36-2.55-2.06-2.14h-0.06l2.06 2.15-2.33 2.51z m46.34-27.27l12.52-4.26-2.89-1.33-11.84 3.01 2.21 2.58z m14.13-3.49l-6.75 2.3 3.98 1.67-6.2 1.59 7.7 3 5.31-2.3 5.91 1.4 4.42-1.02-4.33-2 3.33-4.29h-3.33l-2 2.58-0.8-2.58-3.54 1.36-3.7-1.71z m15.7 7.14l1.35 1.76 3.43-1.76-1.02-1.62-3.76 1.62z m2.6-5.87l2.19 2.22 4.7-1.57 1.22-3.29-8.11 2.64z m11.6 13.48l-3.68 2.99 7.27 0.77 0.77-1.88-4.36-1.88z m-2.64-14.8l0.59 2.1 6.41-1.7-1.3-1.71-5.7 1.31z m33.61 5.32l-14.33-5.85-2.14-0.03-4.99 4.1 1.67-4.13-2.42-0.01-5.8 6.17 14.1-0.77 8.62 7.71-5.79-0.1-2.92 2.39h-6.58v1.88h6.67l5.66 4.68 1.54-0.67-1.34-2.98 3.89 1.86 1.27-0.56v-5.8l4.48 1.59 2.57-1.71-1.46-2.72-2.58-0.95-0.12-4.1z m-17.29-9.68l-3.51-1.44-3.41 2.9 13.81 1.09 3.6-2.55h-10.49z m-1.41-6.08l5.33 1.01 3.06-1.96-2.21-1.65-6.18 2.6z m35.02-1.67l7.21-4.07-28.62 2.12v1.55l9.66-0.2-1.36 1.8-10.01 0.2 1.31 2.3-4.31-0.69 1.7 2.2h-7.4l1.1 1.1h8.11l1.3 1.1 11.8-5.51 9.51-1.9z m-17.24 55.47v-0.13l-7.13 7.23h0.13l7-7.1z m2.27 3.25l-2.21-0.52v-0.05l-0.06-0.01v-2.67l-7 7.1h11.66l-2.39-3.85z m-2.21-0.56v-2.76l-0.06 0.07v2.67l0.06 0.02z m-70.31 1.83l5.61 2.56 9.59-2.04 1.21 4.26 1.94 1.43 3.26-0.23 1.28 3.82h4.13l2.88-1.96h9.26l4.01-3.48h3.6l-0.02 0.07h0.08l-1.28 4.02 6.31-1.09-4.19 2.01 0.39 1.74 11.41-4.02-5.56-0.26-2.61-2.34 2.58-3.99-1.25-1.2-8.07 3.67v-2.11l7.72-3.7 12.36-0.53 9.3-4.95 0.04-2.26-6.76-1.17-0.83-11.08-8.86 3.49 0.06-5.21-4.27-3.63h-5.8l-15.7 22.84-3.8 0.01 0.07-7.52-13.52-7.33 13.52-10.01 7.67-1.4-1.6-2.37 11.8-1.3 4.81-5.01-4.51-0.5-6.2 4.11 0.7-3.5-2.9-0.31-0.68-4.23-5.02 2.23 1.3 2.71-6.71 3.19-11.71-2.19-6.19 2.9-15.03-6-28.67 0.59-19.61 16.93 2.28 2.62h2.34l2.06 2.13-2.37 2.55-0.02-0.02-0.04 0.03-2.39 11 4.3 3.9v2.1h48.25l0.05 0.03z"/>
  <path id="cd" class="country" d="M301.57 163.95l-0.92 7.18-5.8 9.63-5.52 2.52 1.24 1.65 6.54-0.05 1.07 3.7 4.11-0.14 0.84-2.93h4.12v6.66l3.66 1.8 11.76 5.81 1.39-2.8-4-1.61 1.21-5.4 6.66-1.01-0.67-0.94-4.71-6.64-1.28-1.81 0.21-0.87 0.55-2.33 1.04-4.41 2.28-9.55 0.12-0.51-6.12-2.24-17.29 0.48-0.49 3.81z"/>
  <path id="cf" class="country" d="M295.81 163.95h5.76l0.49-3.81 17.28-0.48-11.45-13.18-14.51 6.86-1.34 5.34 3.74 5.27h0.03z m5.76-0.01v0.01-0.01z"/>
  <path id="cg" class="country" d="M295.8 163.94l-0.56 1.61h-5.35l2.95 9.54h-5.79v5.16l2.28 3.04 5.51-2.53 5.8-9.63 0.93-7.19h-5.77z"/>
  <path id="ch" class="country" d="M283.57 69.79l-0.9-2.7h-2.35l-1.52 0.7-0.31 1.5-0.18 0.88 2.76 0.19 2.5-0.57z"/>
  <path id="ci" class="country" d="M247.16 162.83l10.59-3.06v-9.79l-5.17-1.02-5.17-1.02v5.15l-1.68 1.46 1.43 1.6v6.68z"/>
  <path id="cl" class="country" d="M131.2 219.56l-4.67-9.42-1.04 2.39 1.95 47.55 5.13 4.15 0.24 8.52 8.9 11.51 2.88 0.3-6.38-9.79-0.19-5.74-4.3-7.65-4.76-20.82 2.26-21h-0.02z m14.8 68.54l2.73 2.51 8.43 0.32-9.1-4.76-2.06 1.93z"/>
  <path id="cm" class="country" d="M294.85 149l-3.61-7.68v4.25l-5.2 10.77-4.54 0.26-0.63 4.43h1.96l-0.1 4.53h12.52l0.56-1.61-3.77-5.27 1.35-5.33-1.47-4.34h2.93z"/>
  <path id="cn" class="country" d="M472.65 66.38l5.6 0.9-0.53 3-8.07 1.69-3 6.12-24.96-0.27-21.57-12.6-9.34 7.11 1.56 7.23-9.35 3.47 0.83 2.02 1.85 4.52 0.93 0.42 5.92 2.7 3.08 1.41 0.4 8.01 3.53 1.22 4.75 1.64 11.92 4.12 1.2 0.42 4.63 1.6 4.79-4.4 2.37 1.02 4.71 2.03 3.14 1.35-1.41 3.8 5.41 9.01 2.72-1.38 6.75-3.41 6.19 5.29 2.63-1.49 0.09 2.55 15.51-5.55 5.07-11.34-9.04-14.89 4.64-5.08h-5.34l-1.72 1.12-3.36-5.51 4.29-3.74 2.93 5.6 4.11-2.84 7.89-5.43v-10.55l-13.07-3.33-9.61-9.41h-9.33l2.12 7.54-4 0.81 2.14 3.5z m9.8 61.05l-3.2 0.71v1.88l1.3 1.59 1.9-2.38v-1.8z"/>
  <path id="co" class="country" d="M112.93 172.09l10.31 5.9v-11.76l4.27-0.29v-9.33l-7-0.72-3.05-3.37-0.59-7.1-2.14-0.01-4.46 6.03-2.24 0.14 0.05 0.14 0.46 1.73 0.1 0.32-1.2 1.7 0.93 3.05-0.87 5.71-2.6 3.27 8.03 4.59z"/>
  <path id="cr" class="country" d="M97.32 147.49l-5.4-0.56 3.6 4.85 1.29 0.47 1.83-2.37-1.28-0.71-0.04-1.68z"/>
  <path id="cs" class="country" d="M305.34 78.36l2.28-0.45-0.65-1.52-0.52-1.22-3.4-5.65-3.22 0.56 0.04 0.26 0.23 1.23 0.75 4.17 0.42 0.6 0.2 0.27-0.2-0.27-0.42-0.6-2.65 2.03 1.65 0.41 1.99-1.06 0.69 0.96 0.52 0.73 2.29-0.45z"/>
  <path id="cu" class="country" d="M98.89 121.67h6.15l4.96 3.31-1.89 2.1h8.6l-10.28-7.41h-5.44l-2.1 2z"/>
  <path id="cy" class="country" d="M329.53 92.84l-4.46 1.65 3.19 0.81 1.27-2.46z"/>
  <path id="cz" class="country" d="M297.31 62.21l-5.41-2.13-4.85 1.49 1.82 2.41 5.67-0.01 2.77-1.77v0.01z"/>
  <path id="de" class="country" d="M282.68 67.08h3.12l0.47-0.14 3.97-1.16-1.36-1.8-1.82-2.4 4.85-1.51-0.51-6.91-7.39-0.09-0.33-1.3h-2.59l0.52 1.26-3.87 2.32-0.22 4.24-0.03 0.48-0.03 0.62-0.07 1.35 2.35 1.23-0.31 1.48-0.62 3.04 1.52-0.71h2.35z"/>
  <path id="dj" class="country" d="M348.55 143.4l-1.31 1.09-1.29 1.09 2.2 2.45 2.18-1.57-1.78-3.06z"/>
  <path id="dk" class="country" d="M281.09 51.77h2.59l-0.14-0.56 0.85-4.75-2.33-0.04-1.65 3.73 0.68 1.62z m6.9-1.67l-1.45-1.44-1.3 0.53-0.4 2.05 2.42-0.03 0.73-1.11z"/>
  <path id="do" class="country" d="M121.44 130.01v0.82l2.03-1.51h3.23l0.8-1.17-6.06-0.67v2.53z"/>
  <path id="dz" class="country" d="M255.9 117.02l12.2 8.98 4.33 3.19 12.81-8.7h0.22l-1.51-7.27-1.92-9.21-1.9-9.14-0.92-4.42-7.36-0.21-9.83 3.76v5.95l-15.21 8.31v2.04l9.09 6.72z"/>
  <path id="ec" class="country" d="M112.94 172.09l-8.03-4.58-3.81 4.8-0.46 7.34 4.4 2.12 7.9-9.68z m-0.01 0v0.01-0.01z"/>
  <path id="ee" class="country" d="M306.55 45.19l1.41-0.34 2.85 1.61 1.97-0.61-0.61-4.32-1.12 1.05-5.72 0.13-0.47 1.2 1.69 1.28z"/>
  <path id="eg" class="country" d="M330.13 103.05l-17.45-2.37-0.09 2.12-0.84 19.04h19.13l3.85-2.21-7.93-13.62 4.34 3.54 1.18-2.77 0.04-0.1-2.23-3.62v-0.01z"/>
  <path id="eh" class="country" d="M240.66 120.48v-7.05h6.16l-0.02-3.14 0.02-1.14h-6.77l-9.12 11.9-0.1 2.87h7.57l2.26-3.43v-0.01z"/>
  <path id="er" class="country" d="M348.55 143.4l-8.67-14.87-4.47 10.56h8.41l3.42 5.41 1.31-1.1z"/>
  <path id="es" class="country" d="M253.21 79.25l-1.29 10.86 8.76 0.66 8.65-11.11-6.12-3.92-14.13 0.11-0.07 2.7 4.2 0.7z m18.12 6.19v-2.36l-2.71 2.36h2.71z"/>
  <path id="et" class="country" d="M347.24 144.5l-3.42-5.41h-8.41l-5.95 14.05 0.81 0.85 6.09 6.37 1.33 1.39h11.73l9.76-8.12-8.81-3.12-2.22-2.49-2.2-2.45 1.29-1.07z m-10.88 15.86l0.01 0.01-0.01-0.01z"/>
  <path id="fi" class="country" d="M304.22 29.52h1.29l-3.9 8.84 4.56 2.31h6.95l3.9-4.51-6.48-14.49-3.62 0.18v2.3h-4.91l2.21 5.37z"/>
  <path id="fr" class="country" d="M281.48 77.21v2.03l1.14 0.44 0.51-2.47h-1.65z m-2.68-9.43l0.62-3.04 0.31-1.48-2.35-1.23-1.23-0.64-4.56-2.39-9.55 5.72h-3.5v1.47l4.13 2.23 0.54 7.32 6.12 3.91 1.89-2.44 8.95 0.06 0.26-3.74h0.23l-2.78-1.27 0.43-2.11 0.18-0.88 0.31-1.49z"/>
  <path id="ga" class="country" d="M286.18 165.54v3.29h-3.52l-0.11 5.38 4.51 6.04v-5.16h5.79l-2.96-9.55h-3.71z"/>
  <path id="ge" class="country" d="M350.91 79.26l-6.77-3.07-2.75 0.59v3.75l5.24 1.34 0.07 0.01h2.38l1.83-2.62z"/>
  <path id="gf" class="country" d="M159.39 161.89l-1.6-3.52-3.4-0.29-0.28 7.69 4.08-0.47 1.2-3.41z"/>
  <path id="gg" class="country" d="M282.74 165.55l-0.09 3.3h3.52v-3.3h-3.45 0.02z"/>
  <path id="gh" class="country" d="M257.75 159.78l7.18-2.08-1.71-10.49h-5.47v12.57z"/>
  <path id="gl" class="country" d="M178.26 9.23v2.8l14.02 0.21 3.59 6.19v5.61l-6.72 3.82 0.2 7.6 4.22 4.28h5l7.63-8.07 10.77-3.18 4.04-3.09 8.16-0.51 5.7-1.68 10.75-17.09 6.62-1.35 2.34-2.35-19.1-1.92-16.5 1.92h-19.99l-11.52 4-9.21 2.81z"/>
  <path id="gm" class="country" d="M230.21 141.33h6.19l-6.12-1.8-0.07 1.8z"/>
  <path id="gn" class="country" d="M247.4 147.93l-0.8-3.66h-10.68l-3.02 3.17 3.59 3.87 3.37-3.38 3.46 3.91 2.41 2.71 1.67-1.47v-5.15z"/>
  <path id="gr" class="country" d="M308.91 80.9l-5.56 1.79-2.06 0.67 1.77 2.04 3.4 0.95-2.07 0.88 2.74 3.46 1.73-2.74-1.93-4.2 3.83-1.89h3.16l-0.04-2.57-4.97 1.61z"/>
  <path id="gt" class="country" d="M79.49 138.22l4.89 2.47 1.05-1.91 1.64-2.96 0.67-1.2-0.64-3.18h-2.95l0.5 3.84h-3.51l-1.66 2.96 0.01-0.02z"/>
  <path id="gw" class="country" d="M235.93 144.28h-5.83v0.13l2.81 3.04 3.02-3.17z"/>
  <path id="gy" class="country" d="M140.29 160.42l2.65-0.97-0.36 7.6 6.08-0.69-2.08-5.32 1.87-3.48-6.36-6.04-1.79 8.9h-0.01z"/>
  <path id="hn" class="country" d="M85.44 138.77l3.04 1.36-0.6 2.12 0.9 0.42 8.29-6.94-9.98 0.1-1.66 2.94h0.01z"/>
  <path id="hr" class="country" d="M294.62 69l-1.18 2.03-2.61 1.37 0.91-0.05 4.21 4.87 0.87 0.22-2.37-5.1 5.65-0.76-0.23-1.24-0.04-0.26-1.58 0.28-3.63-1.35v-0.01z"/>
  <path id="ht" class="country" d="M121.44 130.01v-2.53h-3.78l1.23 1.74h-2.2v0.79h4.75z"/>
  <path id="hu" class="country" d="M305.42 65.53h-0.07v-0.95l-8.49 1.57-0.82 0.66-2.28 1.89 0.87 0.32 3.63 1.35 1.58-0.28 3.22-0.55 3.8-4-1.44-0.01v0.01-0.01z"/>
  <path id="id" class="country" d="M476.26 181.47v-4.1l-16.02-16.62-5.48-2.1 18.55 25.27 2.95-2.45z m18.71 7.3l-7.2-3.5-4.51 1-5-1.91-3.01 2.41 20.02 3.4-0.3-1.4z m2.5-27.53l-2.81 5.31-9.41 2.1-2.02-1.23-0.06 0.02 0.19 5.37 3.05 5.35h9.72l4.81-6.14v-11.14l-3.47 0.36z m5.96 22.03l2.3-0.71-0.7-4.05 1.36-1.51 1.14 3.01 2.76 0.96v-2.16l-1.55-3.43 2.94-2.48-4.7 0.2-0.96-1.34 1.86-2.05 3.45 1.19 1.71-0.15 2.54-3.01-2.24-0.05-1.45 0.96-4.81-1.17-3.18 2.87 0.23 4.55-1.86 2.46 1.16 5.91z m-1.06 8.75l0.91 1.11h2.15l-0.74-1.61-2.32 0.5z m5.41-3.25h-3.09l0.59 2h2.96l1.24-1.01-1.7-0.99z m5.95 0.6l-3.1 3.46 2.35 0.3 2.1-1.89-1.35-1.87z m8.16-24.67l-1.73 1.71-0.67 4.28 2.4 0.59-0.54-3.8 1.4-1.74-0.86-1.04z m-1.2 12.11l-0.53 1.89 5.2-0.54v-1.35h-4.67z m12.99-0.74l-0.69-3.7-5.7 0.8 6.39 2.9z m13.18 1.04l-5.54-2.89-5.16 4.19-5.45-2.15-0.61 3 3.21-0.1 7.95 3.31 1.43 4.06-2.65 1.63 6.82 2.36v-13.41z"/>
  <path id="ie" class="country" d="M255.71 53.76l-2.1-2.81-3.7 2.72v5.48l2.1-0.02v-1.87l4 0.55-0.3-4.05z"/>
  <path id="in" class="country" d="M412.53 92.68h-2.85l-4.23 3.01-0.11 2.55 2.56 1.46 1.22 4.99-5.56 5.11h-3.55v3.78l2.66 1.01v3.26l-4.8 1.28 0.41 0.48 3.97 1.26-1.86 1.9 1.75 2.27 3.15 0.38 0.56-2.61h1.24l10.1 29.07 6.42-3.94 0.99-11.68 14.63-14.14-2.41-7.61 1.7-0.8 2.5 3.33 2.91-1.2 0.59 4.08 3.65 3.41 1.52-10.55 4.21-3.02-4.71-2.04-2.37-1.01-4.8 4.39-1 2.08-4.2-1.04 0.58-2.64-1.2-0.41-2.57 4.09-14.13-5.35 0.03-4.51-3.53-1.22-0.39-8.01-3.08-1.4v-0.01z"/>
  <path id="iq" class="country" d="M343.88 88.88l-1.79 7.03-3.26 1.94 0.57 2.39 0.03 0.11 11.79 6.17 2.03 0.01 0.51-2.02h2.2l2.13-0.02-9.74-16.51-4.48 0.89 0.01 0.01z"/>
  <path id="ir" class="country" d="M378.83 89.44l-7.76-2.46-4.85 1.62-0.09 2.16-6.18-0.01-3.4-6-3.89 0.38-4.25 0.42v2.4l9.88 16.77 2.94 0.28 6.8 7.1 12.55 3.75h3.47l2.52-4.34-2.79-3.51-0.03-0.08-0.59-1.7-3.38-9.83 1.59-3.4-2.09-3.4-0.45-0.15z"/>
  <path id="is" class="country" d="M242.48 34.85l5.64-2.75v-0.77l-2.8-2.84-3.91 1.3-4.71-0.1-0.98 1.36-2.68-0.07v2.52l9.44 1.35z"/>
  <path id="it" class="country" d="M280.33 80.61v4.95h2.3v-4.28l-2.3-0.67z m12.61 6.78h-4.81v1.21l1.8 1.22 3.01 0.48v-2.91z m-9.37-17.6l-2.5 0.57-2.75-0.2-0.44 2.12 2.78 1.27h3.23l9.95 9.92 0.51 4.22 1.83-1.06 0.56-3.04 2.26-0.45-12.12-10.5 3.44-0.21-2.02-3.74-4.73 1.09v0.01z"/>
  <path id="jm" class="country" d="M107.5 130.88l1.29 1.11h3.7v-1.31l-1.29-1.3h-3.7v1.5z"/>
  <path id="jo" class="country" d="M338.84 97.84l-4.02 2.39-2.41-1.67v8.01l1.68 0.21 1.42-0.67 1.07-0.5 0.03-0.16 0.74-4.35 1.03-0.43 0.93-0.39 0.1-0.05-0.57-2.39z"/>
  <path id="jp" class="country" d="M512.93 98.21l2.81 4.34 1.04-3.31-0.94-1.4-2.91 0.37z m1.42-3.99l-0.6 2.07 8.04-1.19 0.63 3.11 1.82-0.78 0.2-2.44 5.39-1.39-0.28-7.05-2.45-4.28-2.44-0.7 1.4 6.4-4.99 4.52-6.72 1.73z m6.34 2.62l-3.26 0.44 1.85 2.11 1.41-2.55z m3.75-18.11l3.65-0.06 1.55-2.64-8.11-3.41 0.16 6.71 1.61 0.95 1.14-1.55z"/>
  <path id="ke" class="country" d="M336.36 160.37l-3.77 0.52 1.08 4.66-0.53 3.94-1.69 2.98 10.34 6.83 3.63-4.24v-9.97l4.01-3.34h-11.74l-1.32-1.38h-0.01z"/>
  <path id="kg" class="country" d="M412.34 79.55l-5.99-2.78-9.36 0.41-3.96 3.25 4.77-0.21-0.34 2.55-4.02 1.15 5.02 1.64 5.37-0.52-0.83-2.02 9.34-3.47z"/>
  <path id="kh" class="country" d="M470.35 139.93l-1.5 1.51v3.99l2.4 2.39 2.7-0.38 4.01-3v-4.5h-7.61v-0.01z"/>
  <path id="kp" class="country" d="M496.51 83.25l2.31 4.38 3.05 0.86 2.37-2.2-2.37-1.94 3.07-0.4-0.54-6.14-7.89 5.44z"/>
  <path id="kr" class="country" d="M501.87 88.5l3.21 6.94 3.87-0.27 0.66-4.47-5.36-4.4-2.38 2.2z"/>
  <path id="kw" class="country" d="M356.37 108.32h1.92l-2.33-3.81h-2.2l-0.51 2.01 1.74 0.01 1.38 1.79z"/>
  <path id="kz" class="country" d="M420.12 65.21l-5.38-3.14-31.37-11.07-12.37 2.79v5.59h-21.92v7.22l2.93 3.67 6.28-2.53 3.74 2.53-4.54 2.21-0.13 3.27 2.99 2.48 3.81-1.05 3.39 2.82-0.59-7.33 5.21-1.2 6.86 4.71 5.74-1.1 4.2 5.54 4.05-0.18 3.97-3.26 9.36-0.41 5.99 2.78-1.56-7.22 9.34-7.12z"/>
  <path id="la" class="country" d="M461.05 123.92v2.1l2.66 1.56v4.01h6.41l3.63 4.94-3.39 3.41h7.61v-1.94l-7.41-7.88-1.64-5.08-5.15-2.51-2.72 1.39z m2.73-1.39v0.01-0.01z"/>
  <path id="lb" class="country" d="M332.4 98.55l1.82-3.36-1.98-0.68-0.72 3.4 0.88 0.64z"/>
  <path id="lr" class="country" d="M247.16 162.83v-6.68l-1.43-1.6-2.4-2.71-3.39 3.19 7.22 7.8z"/>
  <path id="ls" class="country" d="M316.6 235.19v2.63h2.93l1.74-1.82v-2.28h-2.39l-2.28 1.47z"/>
  <path id="lt" class="country" d="M302.59 47.79l0.01 2.67 2.95 1.01 0.05-0.01 0.82 1.7 0.64 1.81 4.76-4.04-3.86-1.77-5.37-1.37z"/>
  <path id="lu" class="country" d="M277.47 60.69l-1.31 0.7 1.23 0.65 0.07-1.35h0.01z m-0.01 0z"/>
  <path id="lv" class="country" d="M302.58 47.8l5.37 1.36 3.87 1.78 1.49-1.28-0.53-3.8-1.97 0.6-2.86-1.61-1.4 0.34 0.36 0.27-0.4 1.8-3.94-1.8 0.01 2.34z"/>
  <path id="ly" class="country" d="M282.04 104.01l1.92 9.21 1.51 7.27h13.38l12.61 8.09 0.3-6.73 0.83-19.05 0.1-2.11-7.34-0.99-3.03 4.53-6.67-1.34-2.65-3.2-5.68-1.36-5.28 5.68z m0 0z"/>
  <path id="ma" class="country" d="M246.81 109.17v-0.91l15.22-8.3v-5.96l-11.21 1.17-10.77 14 1.42-0.01h5.34v0.01z"/>
  <path id="md" class="country" d="M313.87 65.54l2.66 5.51 2.1-3.3-1.17-2.21h-3.59z"/>
  <path id="mg" class="country" d="M348.98 221.21l2.12 4.99 5.05 0.23 8.61-27.63h-3.07l-10 10.38-1.01 7.21-1.7 4.82z"/>
  <path id="mk" class="country" d="M305.33 78.37l-2.28 0.45 0.3 3.89 5.55-1.81-1.28-2.98-2.29 0.45z"/>
  <path id="ml" class="country" d="M252.58 148.97v-5.19l10.93-4.42 8.92-3.62v-6.55l-4.33-3.19-12.19-8.97h-5.9l1.07 19.11h-11.21v2.4l2.54 5.74h4.2l0.81 3.66 5.16 1.03z"/>
  <path id="mm" class="country" d="M453.9 109.75l-4.2 3.02-1.53 10.55-0.45 3.11 3.12 2.61 1.19 6.24 2.2 0.66 1.58-1.98 2.93 3.3 1.63 6.04-0.39 6.25 2.53-4.95-4.54-16.36 3.07-2.22v-2.11l-5.4-9.01 1.4-3.81-3.14-1.35v0.01z"/>
  <path id="mn" class="country" d="M472.66 66.38l-2.14-3.51h-10.68l-21.82-5.41-2.4 5.41-8.88-2.7-6.62 5.04 21.58 12.61 24.95 0.27 3.01-6.12 8.06-1.69 0.54-3-5.6-0.9z"/>
  <path id="mr" class="country" d="M240.67 120.48l-2.27 3.43h-7.57l-0.28 7.92 9.32 6.71v-2.4h11.21l-1.07-19.12h5.9l-9.11-6.72v3.14h-6.12l-0.01 7.05z"/>
  <path id="mt" class="country" d="M292.69 94.45l0.02-2.67-3.03-0.08-0.02 1.96 3.03 0.79z"/>
  <path id="mw" class="country" d="M334.88 201.65l-2.81-1.88v-8.66h-2.61v10.05l0.07-0.05 2.68 2.19v4.69l2.67-2.34v-4z"/>
  <path id="mx" class="country" d="M40.07 99.54l0.87 9.13 6.23 11.81 2.56-1.98-4.92-10.49v-5.9h2.9l0.12 5.49 9.32 21.9 15.2 6.34 3.79-1.01 3.28 3.35 1.66-2.95h3.5l-0.5-3.85h3l3.9-2.91-0.08 0.16 0.14-0.11 0.17-4.23-4.27-0.08-3.39 5.57h-9.35l-4.54-9.79 3.77-4.73-4.7-9.24-5.71 0.2-2.7-4.11-20.25-2.6v0.03z"/>
  <path id="my" class="country" d="M497.47 161.24l3.46-0.36v-4.08l-3.56 0.3-4.28 5.76-9.86 4.56 2.02 1.23 9.41-2.1 2.81-5.31z m-32.81-4.13l1.72 5.57 7.05 6.02 0.55-2.14-6.66-9.85-2.66 0.4z"/>
  <path id="mz" class="country" d="M326.3 227.45v0.72l2.28-0.05 0.16-1.1 4.73-3.3-0.35-9.96 11.11-9.11-1.1-10.39-11.07 2.3v3.21l2.82 1.87v4.01l-2.68 2.33v-4.68l-2.67-2.19-0.08 0.05-5.04 3.51 5.04 3.31v4.62l-3.15 7.39v7.46z"/>
  <path id="na" class="country" d="M303.66 225.32v-13.68h10.99l-1.32-1.84-0.11-0.15h-26.05l8.21 23.16h8.28l-0.01-7.5 0.01 0.01z"/>
  <path id="ne" class="country" d="M291.23 141.32l4.39-8.99-1.73-11.85h-8.65l-12.81 8.7v6.55l-8.93 3.61 6.06 5.53 1.61-0.59 0.61-2.96h19.45z"/>
  <path id="ng" class="country" d="M291.24 141.33h-19.46l-0.61 2.96-1.77 8.61-0.77 3.74 5.8 0.84 0.8 3.55h5.64l0.63-4.43 4.54-0.26 5.2-10.77v-4.24z"/>
  <path id="ni" class="country" d="M88.78 142.67l3.15 4.25 5.39 0.58-0.26-11.76-8.28 6.93z"/>
  <path id="nl" class="country" d="M277.74 55.33l-3.87 2.32 3.64 1.94 0.23-4.25v-0.01z"/>
  <path id="no" class="country" d="M287.4 41.55v-8.2l12.56-9.2h6.95v-2.3l-7.12 0.37-24.42 16.9 2.45 5.75 7.34-1.21 0.51 0.59 1.73-2.7z"/>
  <path id="np" class="country" d="M419.54 103.32l-0.04 4.51 14.13 5.36 2.58-4.1-11.93-4.12-4.74-1.65z"/>
  <path id="nz" class="country" d="M552.8 271.71l4.35 2.49 14.54-9.58v-2.48l-18.89 9.57z m23.86-13.05l-1.24 3.98 9.07-6.46-2.61-3.49v-3.97l-1.49 0.62v5.59l-3.73 3.73z"/>
  <path id="om" class="country" d="M368.17 129.06v3.33l3.08 2.1 10.19-12.63-5.64-5.02-4.6 4.67 2.5 0.35v5.73l-5.53 1.47z"/>
  <path id="pa" class="country" d="M108.54 153.45l-0.56-1.86h0.05l-0.64-2.32-4.81 0.43-1.7 1.41-2.25-1.24-1.82 2.36 5.36 1.91 1.3-1.93 3.07 0.3 0.89 2.96 1.2-1.7-0.09-0.32z"/>
  <path id="pe" class="country" d="M112.94 172.09l-7.88 9.68-4.44-2.12-0.14 2.26 13.42 22.86 11.59 7.77 1.05-2.4v-14.18l-2.03 0.57-9.16-7.88 2.42-7.87 5.46-0.67v-2.13l-10.3-5.88 0.01-0.01z"/>
  <path id="pg" class="country" d="M546.85 177.1v13.41l2.47 0.88 4.74-4.35 6.14 5.99 5.6 1.15-6.93-6.94 0.33-3.67-12.35-6.46v-0.01z m15.47 7.1l2.5 1.5 4.31-2.43v-2.5l-6.81 3.43z m3.48-7.04l5.03 3.61 2.02-0.69-5.11-3.04-1.94 0.12z"/>
  <path id="ph" class="country" d="M512.22 144.46l2.01 2.6h2.21l-2.11-3.38-2.11 0.78z m0 2.19l-1.37 0.78 1.59 2.4 0.91-1.21-1.13-1.97z m1 9.22v2.78l2.9-0.87-0.98-1.79 2.33-0.6-1.98-6.2-1.47 3.82h-4.8l4 2.86z m-3.41-7.22l-1.17 1.35 1.17 1.45 1.03-1.24-1.03-1.56z m-3.06-1.66l1.47 1 1.6-2.43-2.14-0.26-0.93 1.69z m-2.06-4.95l-0.28 1.64 1.67 1.63 0.67-1.25-2.06-2.02z m7.2-1.66l-4.41-0.46-1.6-2 1.6-3.68-1.59-3.53-2.91-0.06-0.71 6.22 4.12 4.96 4.82 0.61 0.68-2.06z m-13.89 11.03l1.95 0.39 3.47-2.89-0.08-2.36-5.34 4.86z"/>
  <path id="pk" class="country" d="M406.6 89.98l-6.31 0.91-2 8.67-7.3 6.75-7.83-0.08 0.6 1.7 0.02 0.08 2.8 3.51-2.53 4.33h10.94l2.88 3.29 4.8-1.29v-3.25l-2.66-1.01v-3.78h3.56l5.55-5.11-1.22-4.99-2.55-1.46 0.11-2.56 4.22-3h2.85l-5.93-2.7v-0.01z"/>
  <path id="pl" class="country" d="M302.55 52.47l-4 0.13-0.91-0.83-5.74 1.4-0.51-0.01 0.51 6.91 5.41 2.14 0.33 0.13 7.71 0.94 3.2-4.01-0.56-1.55-0.99-2.74-0.65-1.81-3.79-0.69-0.01-0.01z"/>
  <path id="pr" class="country" d="M130.31 129.85l-0.76 1.26h2.08l0.76-1.26h-2.08z"/>
  <path id="ps" class="country" d="M332.41 106.56v-8.01l-0.89-0.63-1.39 5.14 2.22 3.63 0.06-0.13z"/>
  <path id="pt" class="country" d="M253.21 79.25l-4.2-0.7-0.21 7.94 2 3.53 1.12 0.09 1.29-10.86z"/>
  <path id="py" class="country" d="M140.21 218.52l10.1 6.83v4.41h4.95l3.67-2.24-0.25-3.48-9.25-4.94-0.17-5.59-6.35 0.04-2.71 4.96 0.01 0.01z"/>
  <path id="qa" class="country" d="M363.25 115.88l1.69 1.12 1.11-1.15-1.94-2.73-0.86 2.76z"/>
  <path id="ro" class="country" d="M306.85 65.53l-3.8 4 3.4 5.66 8.51-0.98 2.42 0.67 0.99-3.07-1.78-0.77h-0.06l-2.66-5.51h-7.02z"/>
  <path id="ru" class="country" d="M305.54 51.46l-2.99-0.98 0.01 1.99 3.81 0.7-0.83-1.7z m164.98 11.41l3.99-0.81-2.15-7.52h0.03l9.34-0.02 9.6 9.41 13.08 3.34v10.54l5.7-0.99 3.08-4.6v-8.55l-8.81-10-8.54-0.14 1.47-10.54 17.61 0.13 1.91-5.98 7.44 2.81 0.02-2.75 1.84 0.19 3.2 3.07-3.09 2.1-0.38 6.31 12.54 11.88v-11.48l-7.06-6.81 16.75-5.3 0.21-1.71-8.43-2.3 3.28-2.55 7.54 1.55 5.1 0.1-4.1-4.4-26.3-5.2-40.76-1.17-2.29-3.12-14.22-2.33-4.01 3.61h-11.51l-4.79-3.61h-26.03l-1.6-5.73h-24.02l-21.18 9.47 4.64 5.74-4.01 4.14-3.61-11.82-6.39-0.51 3.07 6.98-24.69 0.67-23.08 9.47-3.05-5.8 8.77 0.34 4.28-2.14-16.82-5.36-3.57 0.19 6.5 14.48-3.91 4.5-0.96 0.89 0.63 4.32 0.54 3.79 4.47 0.02 3.49 5.62-2 1.27 3.33 1.35 13.63 5.56-1.9 4.27 0.87 2.14-2.2 0.6 0.38 3.51 7.97 2.79 2.78-0.6 6.77 3.07 2.9 0.74-1.82-3.21v-6.5l-2.91-3.68v-7.22h21.93v-5.59l12.36-2.79 31.37 11.07 5.38 3.15 6.62-5.05 8.88 2.71 2.39-5.4 21.83 5.4h10.68z m46.92 1.53h2.4l-8.46-8.67-2.4-0.07 6.8 8.41 3.32 6.21h2.48l-4.14-5.88z"/>
  <path id="rw" class="country" d="M326.36 171.96h-3.28l-1.05 4.42 2.78-0.59 1.55-3.83z"/>
  <path id="sa" class="country" d="M363.25 115.88l-0.54-0.35-4.41-7.22h-1.93l-1.38-1.78h-1.74l-2.03-0.01-11.79-6.17-0.12-0.06-0.93 0.38-1.03 0.44-0.74 4.36-0.03 0.14-1.07 0.5-1.42 0.67-1.68-0.2 15.55 27.03 0.3 1 1.63-2.77 5.51 0.7-0.51 2.1 7.82-4.11 5.47-1.46 5.53-1.48v-5.73l-2.5-0.35-3.23-0.46-1.74-3.19-1.29-0.86-1.7-1.12z"/>
  <path id="sd" class="country" d="M331.28 148.84l4.12-9.74 4.48-10.57-5.16-8.87-3.85 2.19h-19.13l-0.3 6.74-0.32 7.25-3.23 3.18v7.47l2.32 2.67 3.82-1.7 10.63 0.81 1.64-4.08h1.63l3.35 4.65z"/>
  <path id="se" class="country" d="M287.4 41.54l-1.73 2.71 4.73 5.44 7.7-6.83-3.6-4.47 8.11-8.88h1.6l-2.21-5.37h-2.05l-12.55 9.21v8.19z"/>
  <path id="si" class="country" d="M293.75 68.69h-5.44l2.01 3.75 0.51-0.03 2.61-1.37 1.18-2.03-0.87-0.31v-0.01z"/>
  <path id="sk" class="country" d="M305.35 64.58v-1.31l-7.7-0.94-0.33-0.12-2.77 1.76 2.3 2.18 8.5-1.57z"/>
  <path id="sl" class="country" d="M243.32 151.84l-3.46-3.9-3.37 3.38 3.45 3.72 3.38-3.2z"/>
  <path id="sn" class="country" d="M230.55 131.83l-0.28 7.71 6.13 1.79h-6.19l-0.11 2.95h12.31l-2.54-5.75-9.32-6.7z"/>
  <path id="so" class="country" d="M350.33 146.46l-2.18 1.56 2.21 2.49 8.82 3.12-9.75 8.12-4.01 3.33v9.98l21.56-25.08-0.88-4.41-14.99 2.23-0.78-1.34z"/>
  <path id="sr" class="country" d="M148.66 166.37l2.88-0.33 2.57-0.28 0.28-7.68-5.95-0.52-1.86 3.48 2.08 5.32v0.01z"/>
  <path id="ss" class="country" d="M331.28 148.83l-3.34-4.66h-1.64l-1.63 4.1-10.64-0.82-3.82 1.7 9.13 10.51 6.12 2.24 7.13-1 3.76-0.54-6.08-6.36-0.82-0.85 1.83-4.32z"/>
  <path id="sv" class="country" d="M84.38 140.67l3.5 1.59 0.61-2.13-3.05-1.35-1.06 1.89z"/>
  <path id="sy" class="country" d="M343.87 88.86l-10.9 2.23-0.73 3.43 1.98 0.68-1.82 3.36 2.41 1.69 4.02-2.4 3.25-1.95 1.79-7.01v-0.03z"/>
  <path id="sz" class="country" d="M324.06 227.46h2.24v-0.05h-2.24v0.05z m0 2l0.45 0.27-0.45-0.26v0.04l2.24 1.35v-3.4h-2.24v2z"/>
  <path id="td" class="country" d="M294.85 149.01h-2.94l1.47 4.34 14.52-6.86v-7.48l3.23-3.17 0.32-7.27-12.6-8.09h-4.96l1.72 11.85-4.38 8.99 3.62 7.69z"/>
  <path id="tg" class="country" d="M267.53 156.95l-1.77-10.68-2.54 0.94 1.72 10.49 2.59-0.75z"/>
  <path id="th" class="country" d="M464.67 157.12l2.66-0.4-4.28-6.31 0.99-9.74 4.81 4.77v-4l1.51-1.5 3.39-3.41-3.63-4.93h-6.41v-4.02l-2.66-1.55-3.07 2.23 4.54 16.35-2.53 4.95-0.15 2.46 4.41 3.73 0.42 1.37z"/>
  <path id="tj" class="country" d="M403.82 85.05l-5.37 0.5-5.02-1.62-1.95 0.56 1.91 5.63 5.6-2.88 1.29 3.66 6.31-0.92-0.93-0.42-1.84-4.51z"/>
  <path id="tl" class="country" d="M513.73 189.37l1.35 1.87 3.8-0.47v-1.4h-5.15z"/>
  <path id="tm" class="country" d="M364.17 77.18l-3.82 1.06 6.09 5.05-0.22 5.33 4.85-1.62 7.76 2.46 0.43 0.14 2.12 3.41 7.8-4.01-12.86-10.29h-5.46l-3.31 1.29-3.38-2.83v0.01z"/>
  <path id="tn" class="country" d="M282.03 104.01l5.29-5.69-2.08-0.48 0.26-7.22-6.29-0.18 0.92 4.43 1.9 9.14z"/>
  <path id="tr" class="country" d="M346.63 81.86l-5.25-1.34-0.05-0.01-21.43 0.7-1.84 2.2-4.14-0.04 3.4 6.85 15.65 0.87 10.9-2.23 4.48-0.91v-2.4l-1.72-3.69z m-32.76-2.57l0.04 2.57h3.81l-1.54-3.32-2.31 0.75z"/>
  <path id="tw" class="country" d="M503.37 117.43l-1.62-1.71-2.68 3.81 2.68 2.5 1.62-4.6z"/>
  <path id="tz" class="country" d="M343.13 194.26l-1.34-14.97-10.34-6.82-0.65 1.13h-3.71l0.96-1.64h-1.7l-1.54 3.82-2.26 5.59 4.71 6.64 0.67 0.95 1.53 2.15h2.61v5.46l11.06-2.31z"/>
  <path id="ua" class="country" d="M336.22 63.47l-13.63-5.54-5.57 1.2-8.96-1.43 0.56 1.56-3.21 4v2.26h12.12l1.17 2.22-2.1 3.29 1.78 0.74 0.06 0.03 0.49-1.53h7.18l-1.59 1.65 2.22 1.26 2.98-0.24-2.84-3.62 7.46-1.58 1.91-4.27h-0.03z"/>
  <path id="ug" class="country" d="M333.67 165.55l-1.08-4.65-7.12 1-0.12 0.51-2.28 9.56h4.97l1.42-2.48h3.68l0.53-3.94z"/>
  <path id="uk" class="country" d="M255.71 53.75l1.56-0.55v-2l-3.66-0.25 2.1 2.8z m5.51-2.76l0.04 3.07-2.09 1.15 1.85 2.7-3.75 3.56 4.95-0.9 5.05-0.8 0.33-1.86h1.03l0.22-2.07-3.27-0.68-4.09-9.4-3.12-0.1v5.06l2.85 0.27z"/>
  <path id="us" class="country" d="M124.57 76.02h-2.2l3.07-2.1h-6.05l-2.62 2.03-2.68 0.27 0.54-4.6h-2.06l-2.42 1.6-4.47 6.61h-2.64l5.08-8.21 5.97-1.28-0.33-1.12-3.94-0.13-1.86-1.14-2.34 1.14h-2.74l1.12-2.43-5.65-2.58h-48.23l-15.89 16.75v12.88l5.8 5.8h0.04l20.24 2.61 2.71 4.1 5.7-0.2 4.71 9.25 8.77-11.02 20.86 0.07 1.38 10.42 3.3 0.09 0.09-12.97 33.76-28.86 2.29-0.4 0.03-0.08-0.09 0.01 1.28-4.04h-3.51l-4.01 3.46h-9.27l-2.87 1.97h2.21l-3.08 2.1z m-4.63 1.67l-3.11 2.13h-3.79l3.13-2.13h3.77z m-71.75-30.7l2.33-2.51-2.07-2.14-2.27-0.01-0.06 0.01-2.28-2.61 19.62-16.94-4.48-1.87-23.75 0.13-9.61 3.87v4.27l-10.81-0.13-2.04 2.86 9.11-0.33-11.74 4.4-5.67 7.7 4.87-0.09-9.34 6.14 3.42 0.27 17.88-8.54 20.64-0.72 6.25 6.24z"/>
  <path id="uy" class="country" d="M153.13 245.36l7.31 2.69 2.93-5.09-10.24-7.01v9.41z"/>
  <path id="uz" class="country" d="M367.54 80.01l3.32-1.31h5.46l12.86 10.29 4.21 1.13-1.91-5.64 1.95-0.56 4.02-1.15 0.35-2.55-4.78 0.21-4.05 0.19-4.2-5.54-5.74 1.09-6.87-4.7-5.2 1.2 0.58 7.33v0.01z"/>
  <path id="ve" class="country" d="M127.5 165.94l1.11-0.07 1.42 3.17 4.55-1.47-0.37-4.92 6.09-2.24 1.8-8.9-2.05-1.96-8.14-0.8-4.54-3.23-10.51-0.1 0.6 7.09 3.04 3.38 7 0.72v9.33z"/>
  <path id="vn" class="country" d="M463.76 122.53l5.15 2.51 1.63 5.07 7.41 7.88v6.43l-4.01 3.01 0.1 4.31 7.68-5.08-0.26-7.54-8.02-8.46 0.4-4.64 2.86-1.62-6.19-5.29-6.74 3.42h-0.01z"/>
  <path id="ye" class="country" d="M348.26 134.61l2.76 9 20.23-9.13-3.08-2.09v-3.33l-5.47 1.47-7.82 4.1 0.51-2.1-5.52-0.69-1.61 2.77z"/>
  <path id="za" class="country" d="M324.06 229.46v-2.05h2.24v-7.37h-5.72l-13.59 9.11-0.02-0.02-3.32-3.82v7.54h-8.27l4.8 13.15h15.74l12.12-14.03 0.55-3.78-2.29 0.03v2.64l-2.24-1.34v-0.06z m-7.47 5.73v-0.05l2.28-1.46h2.4v2.37l-1.74 1.81h-2.94v-2.67z"/>
  <path id="zm" class="country" d="M310.22 209.66h7.04l2.16-1.51 4.99-3.47 5.05-3.51v-10.06l-1.54-2.15-6.66 1.01-1.2 5.4 4 1.61-1.39 2.79-11.77-5.8 0.15 5.8h-4.6v5.21l3.77 4.68z"/>
  <path id="zw" class="country" d="M324.4 204.68l-4.98 3.48-2.16 1.49h-4.05l0.11 0.15 1.32 1.84 5.5 7.73 0.44 0.63 5.71-0.01 3.16-7.38v-4.62l-5.05-3.31z"/>
</svg>