<?xml version="1.0" encoding="UTF-8" standalone="no"?>
<!DOCTYPE svg PUBLIC "-//W3C//DTD SVG 1.1//EN" "http://www.w3.org/Graphics/SVG/1.1/DTD/svg11.dtd">
<!-- Generated by Microsoft Visio, SVG Export world-map-simple-frags-labeled=.svg world-map -->
<svg xmlns="http://www.w3.org/2000/svg" xmlns:xlink="http://www.w3.org/1999/xlink" xmlns:ev="http://www.w3.org/2001/xml-events"
		width="8.11786in" height="4.04066in" viewBox="0 0 584.486 290.927" xml:space="preserve" color-interpolation-filters="sRGB"
		class="st2">
	<style type="text/css">
	<![CDATA[
		.st1 {fill:#000000;stroke:none;stroke-linecap:butt;stroke-width:0.726937}
		.st2 {fill:none;fill-rule:evenodd;font-size:12px;overflow:visible;stroke-linecap:square;stroke-miterlimit:3}
	]]>
	</style>

	<g>
		<title>world-map</title>
		<g id="shape1-1" transform="translate(233.041,-256.078)">
			<title>is</title>
			<path d="M9.44 290.93 L15.08 288.18 L15.08 287.41 L12.28 284.57 L8.37 285.87 L3.66 285.77 L2.68 287.13 L0 287.06 L0 289.58
						 L9.44 290.93 Z" class="st1"/>
		</g>
		<g id="shape2-3" transform="translate(289.662,-196.484)">
			<title>mt</title>
			<path d="M3.03 290.93 L3.05 288.26 L0.02 288.18 L0 290.14 L3.03 290.93 Z" class="st1"/>
		</g>
		<g id="shape3-5" transform="translate(178.259,-251.186)">
			<title>gl</title>
			<path d="M0 260.42 L0 263.22 L14.02 263.43 L17.61 269.62 L17.61 275.23 L10.89 279.05 L11.09 286.65 L15.31 290.93 L20.31
						 290.93 L27.94 282.86 L38.71 279.68 L42.75 276.59 L50.91 276.08 L56.61 274.4 L67.36 257.31 L73.98 255.96
						 L76.32 253.61 L57.22 251.69 L40.72 253.61 L20.73 253.61 L9.21 257.61 L0 260.42 Z" class="st1"/>
		</g>
		<g id="shape4-7" transform="translate(499.071,-168.904)">
			<title>tw</title>
			<path d="M4.3 286.33 L2.68 284.62 L0 288.43 L2.68 290.93 L4.3 286.33 Z" class="st1"/>
		</g>
		<g id="shape5-9" transform="translate(325.072,-195.626)">
			<title>cy</title>
			<path d="M4.46 288.47 L0 290.12 L3.19 290.93 L4.46 288.47 Z" class="st1"/>
		</g>
		<g id="shape6-11" transform="translate(348.98,-64.5011)">
			<title>mg</title>
			<path d="M0 285.71 L2.12 290.7 L7.17 290.93 L15.78 263.3 L12.71 263.3 L2.71 273.68 L1.7 280.89 L0 285.71 Z" class="st1"/>
		</g>
		<g id="shape7-13" transform="translate(98.8852,-163.852)">
			<title>cu</title>
			<path d="M0 285.52 L6.15 285.52 L11.11 288.83 L9.22 290.93 L17.82 290.93 L7.54 283.52 L2.1 283.52 L0 285.52 Z"
					class="st1"/>
		</g>
		<g id="shape8-15" transform="translate(107.499,-158.945)">
			<title>jm</title>
			<path d="M0 289.82 L1.29 290.93 L4.99 290.93 L4.99 289.62 L3.7 288.32 L0 288.32 L0 289.82 Z" class="st1"/>
		</g>
		<g id="shape9-17" transform="translate(129.547,-159.817)">
			<title>pr</title>
			<path d="M0.76 289.67 L0 290.93 L2.08 290.93 L2.84 289.67 L0.76 289.67 Z" class="st1"/>
		</g>
		<g id="shape10-19" transform="translate(116.688,-160.922)">
			<title>ht</title>
			<path d="M4.75 290.93 L4.75 288.4 L0.97 288.4 L2.2 290.14 L0 290.14 L0 290.93 L4.75 290.93 Z" class="st1"/>
		</g>
		<g id="shape11-21" transform="translate(121.435,-160.101)">
			<title>do</title>
			<path d="M0 290.11 L0 290.93 L2.03 289.42 L5.26 289.42 L6.06 288.25 L0 287.58 L0 290.11 Z" class="st1"/>
		</g>
		<g id="shape12-23" transform="translate(154.111,-125.164)">
			<title>gf</title>
			<path d="M5.28 287.05 L3.68 283.53 L0.28 283.24 L0 290.93 L4.08 290.46 L5.28 287.05 Z" class="st1"/>
		</g>
		<g id="shape13-25" transform="translate(146.58,-124.561)">
			<title>sr</title>
			<path d="M2.08 290.93 L4.96 290.6 L7.53 290.32 L7.81 282.64 L1.86 282.12 L0 285.6 L2.08 290.92 L2.08 290.93 Z"
					class="st1"/>
		</g>
		<g id="shape14-27" transform="translate(140.292,-123.885)">
			<title>gy</title>
			<path d="M0 284.3 L2.65 283.33 L2.29 290.93 L8.37 290.24 L6.29 284.92 L8.16 281.44 L1.8 275.4 L0.01 284.3 L0 284.3 Z"
					class="st1"/>
		</g>
		<g id="shape15-29" transform="translate(153.129,-42.882)">
			<title>uy</title>
			<path d="M0 288.24 L7.31 290.93 L10.24 285.84 L0 278.83 L0 288.24 Z" class="st1"/>
		</g>
		<g id="shape16-31" transform="translate(126.531,-71.3634)">
			<title>bo</title>
			<path d="M13.67 289.87 L16.38 284.91 L22.73 284.87 L22.59 280.13 L11.77 271.29 L6.2 265.57 L0 267.32 L0 281.51 L4.67
						 290.93 L13.11 290.93 L13.68 289.88 L13.67 289.87 ZM13.67 289.87 L13.67 289.88 L13.67 289.87 Z" class="st1"/>
		</g>
		<g id="shape17-33" transform="translate(140.204,-61.1717)">
			<title>py</title>
			<path d="M0.01 279.69 L10.11 286.52 L10.11 290.93 L15.06 290.93 L18.73 288.69 L18.48 285.21 L9.23 280.27 L9.06 274.68
						 L2.71 274.72 L0 279.68 L0.01 279.69 Z" class="st1"/>
		</g>
		<g id="shape18-35" transform="translate(116.862,-121.885)">
			<title>ve</title>
			<path d="M10.64 287.83 L11.75 287.76 L13.17 290.93 L17.72 289.46 L17.35 284.54 L23.44 282.3 L25.24 273.4 L23.19 271.44
						 L15.05 270.64 L10.51 267.41 L0 267.31 L0.6 274.4 L3.64 277.78 L10.64 278.5 L10.64 287.83 Z" class="st1"/>
		</g>
		<g id="shape19-37" transform="translate(115.35,-47.9633)">
			<title>br</title>
			<path d="M7.88 225.95 L7.88 228.08 L2.41 228.75 L0 236.61 L9.14 244.49 L11.19 243.92 L17.39 242.17 L22.96 247.89 L33.77
						 256.72 L33.92 261.47 L34.09 267.06 L43.33 272 L43.59 275.47 L43.58 275.48 L43.76 277.78 L37.78 283.91 L48.02
						 290.93 L53.98 280.52 L55.38 271.51 L69.87 265.1 L72.57 245.06 L78.81 236.89 L78.81 231.94 L68.59 225.28
						 L58.58 224.67 L58.85 221.93 L54.22 219.93 L49.6 222.65 L51.1 218.6 L48.04 217.27 L43.67 220.62 L46.84 215.94
						 L44.05 209.84 L42.84 213.26 L38.76 213.72 L36.19 214 L33.31 214.32 L27.23 215 L27.59 207.41 L24.94 208.38
						 L18.86 210.62 L19.24 215.54 L14.69 217.01 L13.27 213.84 L12.15 213.91 L7.89 214.19 L7.89 225.95 L7.88 225.95
						 Z" class="st1"/>
		</g>
		<g id="shape20-39" transform="translate(96.8134,-135.457)">
			<title>pa</title>
			<path d="M11.73 288.91 L11.17 287.05 L11.22 287.05 L10.58 284.73 L5.77 285.16 L4.07 286.57 L1.82 285.33 L0 287.69 L5.36
						 289.6 L6.66 287.67 L9.73 287.97 L10.62 290.93 L11.82 289.23 L11.73 288.91 Z" class="st1"/>
		</g>
		<g id="shape21-41" transform="translate(100.477,-78.3856)">
			<title>pe</title>
			<path d="M12.46 250.48 L4.58 260.16 L0.14 258.04 L0 260.3 L13.42 283.16 L25.01 290.93 L26.06 288.53 L26.06 274.35 L24.03
						 274.92 L14.87 267.04 L17.29 259.17 L22.75 258.5 L22.75 256.37 L12.45 250.49 L12.46 250.48 Z" class="st1"/>
		</g>
		<g id="shape22-43" transform="translate(104.897,-112.937)">
			<title>co</title>
			<path d="M8.03 285.03 L18.34 290.93 L18.34 279.17 L22.61 278.88 L22.61 269.55 L15.61 268.83 L12.56 265.46 L11.97 258.36
						 L9.83 258.35 L5.37 264.38 L3.13 264.52 L3.18 264.66 L3.64 266.39 L3.74 266.71 L2.54 268.41 L3.47 271.46
						 L2.6 277.17 L0 280.44 L8.03 285.03 Z" class="st1"/>
		</g>
		<g id="shape23-45" transform="translate(100.637,-109.157)">
			<title>ec</title>
			<path d="M12.3 281.25 L4.27 276.67 L0.46 281.47 L0 288.81 L4.4 290.93 L12.3 281.25 ZM12.29 281.25 L12.29 281.26 L12.29
						 281.25 Z" class="st1"/>
		</g>
		<g id="shape24-47" transform="translate(91.9211,-138.685)">
			<title>cr</title>
			<path d="M5.4 286.17 L0 285.61 L3.6 290.46 L4.89 290.93 L6.72 288.56 L5.44 287.85 L5.4 286.17 Z" class="st1"/>
		</g>
		<g id="shape25-49" transform="translate(88.7808,-143.432)">
			<title>ni</title>
			<path d="M0 286.1 L3.15 290.35 L8.54 290.93 L8.28 279.17 L0 286.1 Z" class="st1"/>
		</g>
		<g id="shape26-51" transform="translate(85.4296,-148.259)">
			<title>hn</title>
			<path d="M0.01 287.03 L3.05 288.39 L2.45 290.51 L3.35 290.93 L11.64 283.99 L1.66 284.09 L0 287.03 L0.01 287.03 Z"
					class="st1"/>
		</g>
		<g id="shape27-53" transform="translate(84.3755,-148.666)">
			<title>sv</title>
			<path d="M0 289.34 L3.5 290.93 L4.11 288.8 L1.06 287.45 L0 289.34 Z" class="st1"/>
		</g>
		<g id="shape28-55" transform="translate(279.209,-186.917)">
			<title>tn</title>
			<path d="M2.82 290.93 L8.11 285.24 L6.03 284.76 L6.29 277.54 L0 277.36 L0.92 281.79 L2.82 290.93 Z" class="st1"/>
		</g>
		<g id="shape29-57" transform="translate(230.206,-149.596)">
			<title>gm</title>
			<path d="M0 290.93 L6.19 290.93 L0.07 289.13 L0 290.93 Z" class="st1"/>
		</g>
		<g id="shape30-59" transform="translate(240.049,-181.763)">
			<title>ma</title>
			<path d="M6.76 290.93 L6.76 290.02 L21.98 281.72 L21.98 275.76 L10.77 276.93 L0 290.93 L1.42 290.92 L6.76 290.92 L6.76
						 290.93 Z" class="st1"/>
		</g>
		<g id="shape31-61" transform="translate(230.097,-143.483)">
			<title>gw</title>
			<path d="M5.83 287.76 L0 287.76 L0 287.89 L2.81 290.93 L5.83 287.76 Z" class="st1"/>
		</g>
		<g id="shape32-63" transform="translate(246.81,-161.743)">
			<title>dz</title>
			<path d="M9.09 278.76 L21.29 287.74 L25.62 290.93 L38.43 282.23 L38.65 282.23 L37.14 274.96 L35.22 265.75 L33.32 256.61
						 L32.4 252.19 L25.04 251.98 L15.21 255.74 L15.21 261.69 L0 270 L0 272.04 L9.09 278.76 Z" class="st1"/>
		</g>
		<g id="shape33-65" transform="translate(282.037,-162.347)">
			<title>ly</title>
			<path d="M0 266.36 L1.92 275.57 L3.43 282.84 L16.81 282.84 L29.42 290.93 L29.72 284.2 L30.55 265.15 L30.65 263.04 L23.31
						 262.05 L20.28 266.58 L13.61 265.24 L10.96 262.04 L5.28 260.68 L0 266.36 ZM0 266.36 L0 266.36 L0 266.36 Z"
					class="st1"/>
		</g>
		<g id="shape34-67" transform="translate(230.097,-146.652)">
			<title>sn</title>
			<path d="M0.45 278.48 L0.17 286.19 L6.3 287.98 L0.11 287.98 L0 290.93 L12.31 290.93 L9.77 285.18 L0.45 278.48 Z"
					class="st1"/>
		</g>
		<g id="shape35-69" transform="translate(230.831,-167.006)">
			<title>eh</title>
			<path d="M9.83 287.49 L9.83 280.44 L15.99 280.44 L15.97 277.3 L15.99 276.16 L9.22 276.16 L0.1 288.06 L0 290.93 L7.57
						 290.93 L9.83 287.5 L9.83 287.49 Z" class="st1"/>
		</g>
		<g id="shape36-71" transform="translate(230.548,-152.395)">
			<title>mr</title>
			<path d="M10.12 272.88 L7.85 276.31 L0.28 276.31 L0 284.22 L9.32 290.93 L9.32 288.53 L20.53 288.53 L19.46 269.41 L25.36
						 269.41 L16.25 262.69 L16.25 265.83 L10.13 265.83 L10.12 272.88 Z" class="st1"/>
		</g>
		<g id="shape37-73" transform="translate(321.27,-109.542)">
			<title>bi</title>
			<path d="M3.54 285.33 L0.76 285.92 L0.2 288.24 L0 289.11 L1.28 290.93 L3.54 285.33 Z" class="st1"/>
		</g>
		<g id="shape38-75" transform="translate(322.026,-114.551)">
			<title>rw</title>
			<path d="M4.33 286.51 L1.05 286.51 L0 290.93 L2.78 290.34 L4.33 286.51 Z" class="st1"/>
		</g>
		<g id="shape39-77" transform="translate(323.072,-118.963)">
			<title>ug</title>
			<path d="M10.6 284.51 L9.52 279.86 L2.4 280.86 L2.28 281.37 L0 290.93 L4.97 290.93 L6.39 288.45 L10.07 288.45 L10.6 284.51
						 Z" class="st1"/>
		</g>
		<g id="shape40-79" transform="translate(322.549,-94.3564)">
			<title>tz</title>
			<path d="M20.58 288.62 L19.24 273.65 L8.9 266.83 L8.25 267.96 L4.54 267.96 L5.5 266.32 L3.8 266.32 L2.26 270.14 L0 275.73
						 L4.71 282.37 L5.38 283.32 L6.91 285.47 L9.52 285.47 L9.52 290.93 L20.58 288.62 Z" class="st1"/>
		</g>
		<g id="shape41-81" transform="translate(313.215,-70.9272)">
			<title>zw</title>
			<path d="M11.19 275.61 L6.21 279.09 L4.05 280.58 L0 280.58 L0.11 280.73 L1.43 282.57 L6.93 290.3 L7.37 290.93 L13.08
						 290.92 L16.24 283.54 L16.24 278.92 L11.19 275.61 Z" class="st1"/>
		</g>
		<g id="shape42-83" transform="translate(329.455,-82.9362)">
			<title>mw</title>
			<path d="M5.42 284.59 L2.61 282.71 L2.61 274.05 L0 274.05 L0 284.1 L0.07 284.05 L2.75 286.24 L2.75 290.93 L5.42 288.59
						 L5.42 284.59 Z" class="st1"/>
		</g>
		<g id="shape43-85" transform="translate(345.419,-115.866)">
			<title>so</title>
			<path d="M4.91 262.33 L2.73 263.89 L4.94 266.38 L13.76 269.5 L4.01 277.62 L0 280.95 L0 290.93 L21.56 265.85 L20.68 261.44
						 L5.69 263.67 L4.91 262.33 Z" class="st1"/>
		</g>
		<g id="shape44-87" transform="translate(331.447,-111.628)">
			<title>ke</title>
			<path d="M4.91 272 L1.14 272.52 L2.22 277.18 L1.69 281.12 L0 284.1 L10.34 290.93 L13.97 286.69 L13.97 276.72 L17.98 273.38
						 L6.24 273.38 L4.92 272 L4.91 272 Z" class="st1"/>
		</g>
		<g id="shape45-89" transform="translate(329.455,-129.177)">
			<title>et</title>
			<path d="M17.78 273.68 L14.36 268.27 L5.95 268.27 L0 282.32 L0.81 283.17 L6.9 289.54 L8.23 290.93 L19.96 290.93 L29.72
						 282.81 L20.91 279.69 L18.69 277.2 L16.49 274.75 L17.78 273.68 ZM6.9 289.54 L6.91 289.55 L6.9 289.54 Z"
					class="st1"/>
		</g>
		<g id="shape46-91" transform="translate(345.949,-142.901)">
			<title>dj</title>
			<path d="M2.6 286.3 L1.29 287.39 L0 288.48 L2.2 290.93 L4.38 289.36 L2.6 286.3 Z" class="st1"/>
		</g>
		<g id="shape47-93" transform="translate(335.409,-146.427)">
			<title>er</title>
			<path d="M13.14 289.83 L4.47 274.96 L0 285.52 L8.41 285.52 L11.83 290.93 L13.14 289.83 Z" class="st1"/>
		</g>
		<g id="shape48-95" transform="translate(306.455,-81.2715)">
			<title>zm</title>
			<path d="M3.77 290.93 L10.81 290.93 L12.97 289.42 L17.96 285.95 L23.01 282.44 L23.01 272.38 L21.47 270.23 L14.81 271.24
						 L13.61 276.64 L17.61 278.25 L16.22 281.04 L4.45 275.24 L4.6 281.04 L0 281.04 L0 286.25 L3.77 290.93 Z"
					class="st1"/>
		</g>
		<g id="shape49-97" transform="translate(286.842,-81.2715)">
			<title>ao</title>
			<path d="M20.41 266.78 L16.28 266.78 L15.45 269.71 L11.33 269.85 L10.26 266.15 L3.73 266.2 L3.73 280.79 L0 286.92 L0.32
						 290.93 L23.38 290.93 L19.61 286.25 L19.61 281.04 L24.21 281.04 L24.06 275.24 L20.41 273.44 L20.41 266.78
						 Z" class="st1"/>
		</g>
		<g id="shape50-99" transform="translate(236.494,-135.894)">
			<title>sl</title>
			<path d="M6.83 287.73 L3.37 283.83 L0 287.21 L3.45 290.93 L6.83 287.73 Z" class="st1"/>
		</g>
		<g id="shape51-101" transform="translate(232.903,-136.381)">
			<title>gn</title>
			<path d="M14.5 284.31 L13.7 280.65 L3.02 280.65 L0 283.82 L3.59 287.69 L6.96 284.31 L10.42 288.22 L12.83 290.93 L14.5
						 289.46 L14.5 284.31 Z" class="st1"/>
		</g>
		<g id="shape52-103" transform="translate(239.867,-141.963)">
			<title>ml</title>
			<path d="M12.71 290.93 L12.71 285.74 L23.64 281.32 L32.56 277.7 L32.56 271.15 L28.23 267.96 L16.04 258.99 L10.14 258.99
						 L11.21 278.1 L0 278.1 L0 280.5 L2.54 286.24 L6.74 286.24 L7.55 289.9 L12.71 290.93 Z" class="st1"/>
		</g>
		<g id="shape53-105" transform="translate(252.581,-140.946)">
			<title>bf</title>
			<path d="M5.17 290.93 L5.17 288.15 L10.64 288.15 L13.17 287.22 L13.8 286.99 L16.99 285.82 L10.93 280.3 L0 284.72 L0 289.9
						 L5.17 290.93 Z" class="st1"/>
		</g>
		<g id="shape54-107" transform="translate(257.75,-131.154)">
			<title>gh</title>
			<path d="M0 290.93 L7.18 288.85 L5.47 278.36 L0 278.36 L0 290.93 Z" class="st1"/>
		</g>
		<g id="shape55-109" transform="translate(239.94,-128.101)">
			<title>lr</title>
			<path d="M7.22 290.93 L7.22 284.25 L5.79 282.65 L3.39 279.94 L0 283.13 L7.22 290.93 Z" class="st1"/>
		</g>
		<g id="shape56-111" transform="translate(245.734,-128.101)">
			<title>ci</title>
			<path d="M1.43 290.93 L12.02 287.87 L12.02 278.08 L6.85 277.06 L1.68 276.04 L1.68 281.19 L0 282.65 L1.43 284.25 L1.43
						 290.93 Z" class="st1"/>
		</g>
		<g id="shape57-113" transform="translate(265.754,-133.974)">
			<title>bj</title>
			<path d="M5.42 278.26 L3.83 278.85 L0.63 280.02 L0 280.25 L1.77 290.93 L2.87 290.61 L3.64 286.88 L5.42 278.26 Z"
					class="st1"/>
		</g>
		<g id="shape58-115" transform="translate(292.04,-126.981)">
			<title>cf</title>
			<path d="M3.77 290.93 L9.53 290.93 L10.02 287.12 L27.3 286.64 L15.85 273.46 L1.34 280.32 L0 285.66 L3.74 290.93 L3.77
						 290.93 ZM9.53 290.92 L9.53 290.93 L9.53 290.92 Z" class="st1"/>
		</g>
		<g id="shape59-117" transform="translate(289.328,-91.1506)">
			<title>cd</title>
			<path d="M12.24 255.1 L11.32 262.28 L5.52 271.91 L0 274.43 L1.24 276.08 L7.78 276.03 L8.85 279.73 L12.96 279.59 L13.8
						 276.66 L17.92 276.66 L17.92 283.32 L21.58 285.12 L33.34 290.93 L34.73 288.13 L30.73 286.52 L31.94 281.12
						 L38.6 280.11 L37.93 279.17 L33.22 272.53 L31.94 270.72 L32.15 269.85 L32.7 267.52 L33.74 263.11 L33.74 263.11
						 L36.02 253.56 L36.14 253.05 L30.02 250.81 L12.73 251.29 L12.24 255.1 Z" class="st1"/>
		</g>
		<g id="shape60-119" transform="translate(282.546,-110.676)">
			<title>ga</title>
			<path d="M3.63 276.22 L3.63 279.51 L0.11 279.51 L0 284.89 L4.51 290.93 L4.51 285.77 L10.3 285.77 L7.34 276.22 L3.63 276.22
						 Z" class="st1"/>
		</g>
		<g id="shape61-121" transform="translate(282.655,-122.082)">
			<title>gg</title>
			<path d="M0.09 287.63 L0 290.93 L3.52 290.93 L3.52 287.63 L0.07 287.63 L0.09 287.63 Z" class="st1"/>
		</g>
		<g id="shape62-123" transform="translate(263.5,-146.056)">
			<title>ne</title>
			<path d="M27.73 287.38 L32.12 278.39 L30.39 266.54 L21.74 266.54 L8.93 275.24 L8.93 281.79 L0 285.4 L6.06 290.93 L7.67
						 290.34 L8.28 287.38 L27.73 287.38 Z" class="st1"/>
		</g>
		<g id="shape63-125" transform="translate(268.625,-129.904)">
			<title>ng</title>
			<path d="M22.61 271.23 L3.15 271.23 L2.54 274.19 L0.77 282.8 L0 286.54 L5.8 287.38 L6.6 290.93 L12.24 290.93 L12.87 286.5
						 L17.41 286.24 L22.61 275.47 L22.61 271.23 Z" class="st1"/>
		</g>
		<g id="shape64-127" transform="translate(291.233,-137.58)">
			<title>td</title>
			<path d="M3.62 286.59 L0.68 286.59 L2.15 290.93 L16.67 284.07 L16.67 276.59 L19.9 273.42 L20.22 266.15 L7.62 258.06 L2.66
						 258.06 L4.38 269.91 L0 278.9 L3.62 286.59 Z" class="st1"/>
		</g>
		<g id="shape65-129" transform="translate(280.867,-125.375)">
			<title>cm</title>
			<path d="M13.98 274.38 L10.37 266.7 L10.37 270.95 L5.17 281.72 L0.63 281.98 L0 286.4 L1.96 286.4 L1.86 290.93 L14.38
						 290.93 L14.94 289.32 L11.17 284.05 L12.52 278.72 L11.05 274.38 L13.98 274.38 Z" class="st1"/>
		</g>
		<g id="shape66-131" transform="translate(287.053,-107.645)">
			<title>cg</title>
			<path d="M8.75 271.58 L8.19 273.19 L2.84 273.19 L5.79 282.73 L0 282.73 L0 287.89 L2.28 290.93 L7.79 288.4 L13.59 278.77
						 L14.52 271.58 L8.75 271.58 Z" class="st1"/>
		</g>
		<g id="shape67-133" transform="translate(311.747,-169.085)">
			<title>eg</title>
			<path d="M18.38 272.14 L0.93 269.77 L0.84 271.89 L0 290.93 L19.13 290.93 L22.98 288.72 L15.05 275.1 L19.39 278.64 L20.57
						 275.87 L20.61 275.77 L18.38 272.15 L18.38 272.14 Z" class="st1"/>
		</g>
		<g id="shape68-135" transform="translate(366.231,-169.42)">
			<title>ae</title>
			<path d="M4.97 290.93 L9.57 286.25 L7.47 284.38 L4.17 288.09 L0 287.27 L1.74 290.46 L4.97 290.92 L4.97 290.93 Z"
					class="st1"/>
		</g>
		<g id="shape69-137" transform="translate(368.172,-156.444)">
			<title>om</title>
			<path d="M0 285.5 L0 288.83 L3.08 290.93 L13.27 278.3 L7.63 273.28 L3.03 277.95 L5.53 278.3 L5.53 284.03 L0 285.5 Z"
					class="st1"/>
		</g>
		<g id="shape70-139" transform="translate(348.261,-147.321)">
			<title>ye</title>
			<path d="M0 281.93 L2.76 290.93 L22.99 281.8 L19.91 279.71 L19.91 276.38 L14.44 277.85 L6.62 281.95 L7.13 279.85 L1.61
						 279.16 L0 281.93 Z" class="st1"/>
		</g>
		<g id="shape71-141" transform="translate(353.248,-182.614)">
			<title>kw</title>
			<path d="M3.12 290.93 L5.04 290.93 L2.71 287.12 L0.51 287.12 L0 289.13 L1.74 289.14 L3.12 290.93 Z" class="st1"/>
		</g>
		<g id="shape72-143" transform="translate(331.519,-192.377)">
			<title>lb</title>
			<path d="M0.88 290.93 L2.7 287.57 L0.72 286.89 L0 290.29 L0.88 290.93 Z" class="st1"/>
		</g>
		<g id="shape73-145" transform="translate(330.131,-184.235)">
			<title>ps</title>
			<path d="M2.28 290.8 L2.28 282.79 L1.39 282.16 L0 287.3 L2.22 290.93 L2.28 290.8 Z" class="st1"/>
		</g>
		<g id="shape74-147" transform="translate(363.25,-173.927)">
			<title>qa</title>
			<path d="M0 289.81 L1.69 290.93 L2.8 289.78 L0.86 287.05 L0 289.81 Z" class="st1"/>
		</g>
		<g id="shape75-149" transform="translate(332.406,-156.291)">
			<title>sa</title>
			<path d="M30.84 272.17 L30.3 271.82 L25.89 264.6 L23.96 264.6 L22.58 262.82 L20.84 262.82 L18.81 262.81 L7.02 256.64
						 L6.9 256.58 L5.97 256.96 L4.94 257.4 L4.2 261.76 L4.17 261.9 L3.1 262.4 L1.68 263.07 L0 262.87 L15.55 289.9
						 L15.85 290.9 L17.48 288.13 L22.99 288.83 L22.48 290.93 L30.3 286.82 L35.77 285.36 L41.3 283.88 L41.3 278.15
						 L38.8 277.8 L35.57 277.34 L33.83 274.15 L32.54 273.29 L30.84 272.17 Z" class="st1"/>
		</g>
		<g id="shape76-151" transform="translate(332.239,-190.683)">
			<title>sy</title>
			<path d="M11.63 279.54 L0.73 281.77 L0 285.2 L1.98 285.88 L0.16 289.24 L2.57 290.93 L6.59 288.53 L9.84 286.58 L11.63
						 279.57 L11.63 279.55 L11.63 279.54 Z" class="st1"/>
		</g>
		<g id="shape77-153" transform="translate(332.406,-184.148)">
			<title>jo</title>
			<path d="M6.43 281.99 L2.41 284.38 L0 282.71 L0 290.72 L1.68 290.93 L3.1 290.26 L4.17 289.76 L4.2 289.6 L4.94 285.25
						 L5.97 284.82 L6.9 284.43 L7 284.38 L6.43 281.99 Z" class="st1"/>
		</g>
		<g id="shape78-155" transform="translate(338.825,-184.402)">
			<title>iq</title>
			<path d="M5.05 273.28 L3.26 280.31 L0 282.25 L0.57 284.64 L0.6 284.75 L12.39 290.92 L14.42 290.93 L14.93 288.91 L17.13
						 288.91 L19.26 288.89 L9.52 272.38 L5.04 273.27 L5.05 273.28 Z" class="st1"/>
		</g>
		<g id="shape79-157" transform="translate(299.854,-207.555)">
			<title>al</title>
			<path d="M3.19 286.37 L2.68 285.64 L1.98 284.68 L0 285.74 L1.12 290.56 L1.43 290.93 L3.49 290.25 L3.19 286.37 Z"
					class="st1"/>
		</g>
		<g id="shape80-159" transform="translate(301.286,-200.235)">
			<title>gr</title>
			<path d="M7.62 281.14 L2.06 282.93 L0 283.6 L1.77 285.64 L5.17 286.59 L3.1 287.47 L5.84 290.93 L7.57 288.19 L5.64 283.99
						 L9.47 282.1 L12.63 282.1 L12.59 279.53 L7.62 281.14 Z" class="st1"/>
		</g>
		<g id="shape81-161" transform="translate(249.906,-231.776)">
			<title>ie</title>
			<path d="M5.8 285.54 L3.7 282.73 L0 285.45 L0 290.93 L2.1 290.91 L2.1 289.04 L6.1 289.59 L5.8 285.54 Z" class="st1"/>
		</g>
		<g id="shape82-163" transform="translate(276.156,-228.891)">
			<title>lu</title>
			<path d="M1.31 289.58 L0 290.28 L1.23 290.93 L1.3 289.58 L1.31 289.58 ZM1.3 289.58 L1.3 289.58 L1.3 289.58 Z"
					class="st1"/>
		</g>
		<g id="shape83-165" transform="translate(271.591,-229.53)">
			<title>be</title>
			<path d="M5.92 289.12 L2.28 287.18 L0 288.54 L4.56 290.93 L5.87 290.22 L5.9 289.6 L5.92 289.12 Z" class="st1"/>
		</g>
		<g id="shape84-167" transform="translate(273.866,-231.34)">
			<title>nl</title>
			<path d="M3.87 286.67 L0 288.99 L3.64 290.93 L3.87 286.68 L3.87 286.67 Z" class="st1"/>
		</g>
		<g id="shape85-169" transform="translate(306.455,-210.019)">
			<title>bg</title>
			<path d="M0 285.19 L0.52 286.41 L1.17 287.93 L2.45 290.93 L7.42 289.31 L9.73 288.56 L10.93 284.9 L8.5 284.23 L0 285.2
						 L0 285.19 Z" class="st1"/>
		</g>
		<g id="shape86-171" transform="translate(248.801,-200.816)">
			<title>pt</title>
			<path d="M4.41 280.07 L0.21 279.37 L0 287.31 L2 290.84 L3.12 290.93 L4.41 280.07 L4.41 280.07 Z" class="st1"/>
		</g>
		<g id="shape87-173" transform="translate(277.385,-223.14)">
			<title>de</title>
			<path d="M5.29 290.22 L8.41 290.22 L8.88 290.08 L12.85 288.92 L11.49 287.12 L9.67 284.72 L14.52 283.21 L14.01 276.3 L6.62
						 276.21 L6.29 274.91 L3.7 274.91 L4.22 276.17 L0.35 278.49 L0.13 282.73 L0.1 283.21 L0.07 283.83 L0 285.18
						 L2.35 286.41 L2.04 287.89 L1.42 290.93 L2.94 290.22 L5.29 290.22 Z" class="st1"/>
		</g>
		<g id="shape88-175" transform="translate(278.315,-220.574)">
			<title>ch</title>
			<path d="M5.26 290.36 L4.36 287.66 L2.01 287.66 L0.49 288.36 L0.18 289.86 L0 290.74 L2.76 290.93 L5.26 290.36 Z"
					class="st1"/>
		</g>
		<g id="shape89-177" transform="translate(287.053,-226.95)">
			<title>cz</title>
			<path d="M10.26 289.16 L4.85 287.03 L0 288.52 L1.82 290.93 L7.49 290.92 L10.26 289.15 L10.26 289.16 Z" class="st1"/>
		</g>
		<g id="shape90-179" transform="translate(294.547,-224.776)">
			<title>sk</title>
			<path d="M10.8 289.36 L10.8 288.05 L3.1 287.11 L2.77 286.99 L0 288.75 L2.3 290.93 L10.8 289.36 Z" class="st1"/>
		</g>
		<g id="shape91-181" transform="translate(290.833,-213.487)">
			<title>hr</title>
			<path d="M3.79 282.49 L2.61 284.52 L0 285.89 L0.91 285.84 L5.12 290.71 L5.99 290.93 L3.62 285.83 L9.27 285.07 L9.04 283.83
						 L9 283.57 L7.42 283.85 L3.79 282.5 L3.79 282.49 L3.79 282.49 Z" class="st1"/>
		</g>
		<g id="shape92-183" transform="translate(294.446,-213.152)">
			<title>ba</title>
			<path d="M5.66 284.73 L0 285.5 L2.38 290.59 L3.75 290.93 L6.4 288.9 L5.65 284.73 L5.66 284.73 Z" class="st1"/>
		</g>
		<g id="shape93-185" transform="translate(282.677,-221.141)">
			<title>at</title>
			<path d="M11.07 289.83 L13.35 287.96 L14.17 287.29 L11.87 285.11 L6.2 285.11 L7.55 286.91 L3.59 288.08 L3.12 288.22 L0
						 288.22 L0.89 290.93 L5.63 289.82 L11.07 289.82 L11.07 289.83 Z" class="st1"/>
		</g>
		<g id="shape94-187" transform="translate(291.393,-227.655)">
			<title>pl</title>
			<path d="M11.16 280.12 L7.16 280.25 L6.25 279.42 L0.51 280.82 L0 280.81 L0.51 287.72 L5.92 289.86 L6.25 289.99 L13.96
						 290.93 L17.16 286.92 L16.6 285.37 L15.61 282.63 L14.96 280.82 L11.17 280.13 L11.16 280.12 Z" class="st1"/>
		</g>
		<g id="shape95-189" transform="translate(301.606,-250.262)">
			<title>fi</title>
			<path d="M2.61 279.78 L3.9 279.78 L0 288.62 L4.56 290.93 L11.51 290.93 L15.41 286.42 L8.93 271.93 L5.31 272.11 L5.31
						 274.41 L0.4 274.41 L2.61 279.78 Z" class="st1"/>
		</g>
		<g id="shape96-191" transform="translate(275.371,-246.061)">
			<title>no</title>
			<path d="M12.03 287.61 L12.03 279.41 L24.59 270.21 L31.54 270.21 L31.54 267.91 L24.42 268.28 L0 285.18 L2.45 290.93 L9.79
						 289.72 L10.3 290.31 L12.03 287.61 Z" class="st1"/>
		</g>
		<g id="shape97-193" transform="translate(285.672,-241.241)">
			<title>se</title>
			<path d="M1.73 282.78 L0 285.49 L4.73 290.93 L12.43 284.1 L8.83 279.63 L16.94 270.75 L18.54 270.75 L16.33 265.38 L14.28
						 265.38 L1.73 274.59 L1.73 282.78 Z" class="st1"/>
		</g>
		<g id="shape98-195" transform="translate(313.869,-219.884)">
			<title>md</title>
			<path d="M0 285.42 L2.66 290.93 L4.76 287.63 L3.59 285.42 L0 285.42 Z" class="st1"/>
		</g>
		<g id="shape99-197" transform="translate(303.045,-215.74)">
			<title>ro</title>
			<path d="M3.8 281.27 L0 285.27 L3.4 290.93 L11.91 289.95 L14.33 290.62 L15.32 287.55 L13.54 286.78 L13.48 286.78 L10.82
						 281.27 L3.8 281.27 Z" class="st1"/>
		</g>
		<g id="shape100-199" transform="translate(293.755,-220.56)">
			<title>hu</title>
			<path d="M11.66 286.09 L11.59 286.09 L11.59 285.14 L3.1 286.71 L2.28 287.37 L0 289.26 L0.87 289.58 L4.5 290.93 L6.08
						 290.65 L9.3 290.1 L13.1 286.1 L11.66 286.09 L11.66 286.1 L11.66 286.09 Z" class="st1"/>
		</g>
		<g id="shape101-201" transform="translate(304.863,-244.469)">
			<title>ee</title>
			<path d="M1.69 289.66 L3.1 289.32 L5.95 290.93 L7.92 290.32 L7.31 286 L6.19 287.05 L0.47 287.18 L0 288.38 L1.69 289.66
						 Z" class="st1"/>
		</g>
		<g id="shape102-203" transform="translate(302.587,-235.956)">
			<title>lt</title>
			<path d="M0 283.75 L0.01 286.42 L2.96 287.43 L3.01 287.42 L3.83 289.12 L4.47 290.93 L9.23 286.89 L5.37 285.12 L0 283.75
						 Z" class="st1"/>
		</g>
		<g id="shape103-205" transform="translate(302.573,-239.991)">
			<title>lv</title>
			<path d="M0.01 287.79 L5.38 289.15 L9.25 290.93 L10.74 289.65 L10.21 285.85 L8.24 286.45 L5.38 284.84 L3.98 285.18 L4.34
						 285.45 L3.94 287.25 L0 285.45 L0.01 287.79 Z" class="st1"/>
		</g>
		<g id="shape104-207" transform="translate(341.391,-209.052)">
			<title>ge</title>
			<path d="M9.52 288.31 L2.75 285.24 L0 285.83 L0 289.58 L5.24 290.92 L5.31 290.93 L7.69 290.93 L9.52 288.31 Z"
					class="st1"/>
		</g>
		<g id="shape105-209" transform="translate(379.781,-184.613)">
			<title>af</title>
			<path d="M3.38 290.85 L11.21 290.93 L18.51 284.18 L20.51 275.51 L19.21 271.85 L13.62 274.73 L9.41 273.6 L1.61 277.61
						 L0 281.01 L3.39 290.85 L3.38 290.85 Z" class="st1"/>
		</g>
		<g id="shape106-211" transform="translate(346.698,-205.367)">
			<title>am</title>
			<path d="M5.97 290.51 L2.38 287.23 L0 287.23 L1.72 290.93 L5.97 290.51 Z" class="st1"/>
		</g>
		<g id="shape107-213" transform="translate(348.413,-175.075)">
			<title>ir</title>
			<path d="M30.42 264.52 L22.66 262.06 L17.81 263.68 L17.72 265.84 L11.54 265.83 L8.14 259.83 L4.25 260.21 L0 260.63 L0
						 263.03 L9.88 279.8 L12.82 280.08 L19.62 287.18 L32.17 290.93 L35.64 290.93 L38.16 286.59 L35.37 283.08 L35.34
						 283 L34.75 281.3 L31.37 271.47 L32.96 268.07 L30.87 264.67 L30.42 264.52 Z" class="st1"/>
		</g>
		<g id="shape108-215" transform="translate(366.965,-200.809)">
			<title>uz</title>
			<path d="M0.58 280.82 L3.9 279.51 L9.36 279.51 L22.22 289.8 L26.43 290.93 L24.52 285.29 L26.47 284.73 L30.49 283.58 L30.84
						 281.03 L26.06 281.24 L22.01 281.43 L17.81 275.89 L12.07 276.98 L5.2 272.28 L0 273.48 L0.58 280.81 L0.58
						 280.82 Z" class="st1"/>
		</g>
		<g id="shape109-217" transform="translate(360.35,-197.923)">
			<title>tm</title>
			<path d="M3.82 275.1 L0 276.16 L6.09 281.21 L5.87 286.54 L10.72 284.92 L18.48 287.38 L18.91 287.52 L21.03 290.93 L28.83
						 286.92 L15.97 276.63 L10.51 276.63 L7.2 277.92 L3.82 275.09 L3.82 275.1 Z" class="st1"/>
		</g>
		<g id="shape110-219" transform="translate(468.852,-143.112)">
			<title>kh</title>
			<path d="M1.5 283.04 L0 284.55 L0 288.54 L2.4 290.93 L5.1 290.55 L9.11 287.55 L9.11 283.05 L1.5 283.05 L1.5 283.04 Z"
					class="st1"/>
		</g>
		<g id="shape111-221" transform="translate(436.824,-164.484)">
			<title>bd</title>
			<path d="M11.35 287.82 L7.71 284.41 L7.11 280.34 L4.2 281.53 L1.7 278.2 L0 278.99 L2.41 286.61 L3.96 285.1 L10.9 290.93
						 L11.35 287.82 Z" class="st1"/>
		</g>
		<g id="shape112-223" transform="translate(457.977,-133.815)">
			<title>th</title>
			<path d="M6.69 290.93 L9.35 290.53 L5.07 284.22 L6.06 274.48 L10.87 279.25 L10.87 275.25 L12.38 273.75 L15.77 270.34
						 L12.14 265.41 L5.73 265.41 L5.73 261.39 L3.07 259.84 L0 262.07 L4.54 278.42 L2.01 283.37 L1.86 285.83 L6.27
						 289.56 L6.69 290.93 Z" class="st1"/>
		</g>
		<g id="shape113-225" transform="translate(501.87,-195.495)">
			<title>kr</title>
			<path d="M0 283.99 L3.21 290.93 L7.08 290.66 L7.74 286.19 L2.38 281.79 L0 283.99 Z" class="st1"/>
		</g>
		<g id="shape114-227" transform="translate(513.726,-99.6921)">
			<title>tl</title>
			<path d="M0 289.06 L1.35 290.93 L5.15 290.46 L5.15 289.06 L0 289.06 Z" class="st1"/>
		</g>
		<g id="shape115-229" transform="translate(496.512,-202.437)">
			<title>kp</title>
			<path d="M0 285.69 L2.31 290.07 L5.36 290.93 L7.73 288.73 L5.36 286.79 L8.43 286.39 L7.89 280.25 L0 285.69 Z"
					class="st1"/>
		</g>
		<g id="shape116-231" transform="translate(463.764,-139.187)">
			<title>vn</title>
			<path d="M0 261.72 L5.15 264.23 L6.78 269.3 L14.19 277.18 L14.19 283.61 L10.18 286.62 L10.28 290.93 L17.96 285.85 L17.7
						 278.31 L9.68 269.85 L10.08 265.21 L12.94 263.59 L6.75 258.3 L0.01 261.72 L0 261.72 Z" class="st1"/>
		</g>
		<g id="shape117-233" transform="translate(461.045,-150.992)">
			<title>la</title>
			<path d="M0 274.91 L0 277.01 L2.66 278.57 L2.66 282.58 L9.07 282.58 L12.7 287.52 L9.31 290.93 L16.92 290.93 L16.92 288.99
						 L9.51 281.11 L7.87 276.03 L2.72 273.52 L0 274.91 ZM2.73 273.52 L2.73 273.53 L2.73 273.52 Z" class="st1"/>
		</g>
		<g id="shape118-235" transform="translate(447.72,-141.375)">
			<title>mm</title>
			<path d="M6.18 251.13 L1.98 254.15 L0.45 264.7 L0 267.81 L3.12 270.42 L4.31 276.66 L6.51 277.32 L8.09 275.34 L11.02 278.64
						 L12.65 284.68 L12.26 290.93 L14.79 285.98 L10.25 269.62 L13.32 267.4 L13.32 265.29 L7.92 256.28 L9.32 252.47
						 L6.18 251.12 L6.18 251.13 Z" class="st1"/>
		</g>
		<g id="shape119-237" transform="translate(436.824,-177.736)">
			<title>bt</title>
			<path d="M0.58 287.25 L0 289.88 L4.2 290.93 L5.2 288.83 L3.09 288.11 L0.59 287.24 L0.58 287.25 Z" class="st1"/>
		</g>
		<g id="shape120-239" transform="translate(419.501,-177.736)">
			<title>np</title>
			<path d="M0.04 281.06 L0 285.57 L14.13 290.93 L16.71 286.83 L4.78 282.71 L0.04 281.06 L0.04 281.06 Z" class="st1"/>
		</g>
		<g id="shape121-241" transform="translate(397.874,-139.048)">
			<title>in</title>
			<path d="M14.66 231.73 L11.81 231.73 L7.58 234.74 L7.47 237.29 L10.03 238.75 L11.25 243.74 L5.69 248.85 L2.14 248.85
						 L2.14 252.63 L4.8 253.64 L4.8 256.9 L0 258.18 L0.41 258.66 L4.38 259.92 L2.52 261.82 L4.27 264.09 L7.42
						 264.47 L7.98 261.86 L9.22 261.86 L19.32 290.93 L25.74 286.99 L26.73 275.31 L41.36 261.17 L38.95 253.56 L40.65
						 252.76 L43.15 256.09 L46.06 254.89 L46.65 258.97 L50.3 262.38 L51.82 251.83 L56.03 248.81 L51.32 246.77
						 L48.95 245.76 L44.15 250.15 L43.15 252.23 L38.95 251.19 L39.53 248.55 L38.33 248.14 L35.76 252.23 L21.63
						 246.88 L21.66 242.37 L18.13 241.15 L17.74 233.14 L14.66 231.74 L14.66 231.73 Z" class="st1"/>
		</g>
		<g id="shape122-243" transform="translate(383.161,-171.79)">
			<title>pk</title>
			<path d="M23.44 261.77 L17.13 262.68 L15.13 271.35 L7.83 278.1 L0 278.02 L0.6 279.72 L0.62 279.8 L3.42 283.31 L0.89 287.64
						 L11.83 287.64 L14.71 290.93 L19.51 289.64 L19.51 286.39 L16.85 285.38 L16.85 281.6 L20.41 281.6 L25.96 276.49
						 L24.74 271.5 L22.19 270.04 L22.3 267.48 L26.52 264.48 L29.37 264.48 L23.44 261.78 L23.44 261.77 Z"
					class="st1"/>
		</g>
		<g id="shape123-245" transform="translate(391.484,-200.031)">
			<title>tj</title>
			<path d="M12.34 285.08 L6.97 285.58 L1.95 283.96 L0 284.52 L1.91 290.15 L7.51 287.27 L8.8 290.93 L15.11 290.01 L14.18
						 289.59 L12.34 285.08 L12.34 285.08 Z" class="st1"/>
		</g>
		<g id="shape124-247" transform="translate(393.026,-205.367)">
			<title>kg</title>
			<path d="M19.31 284.92 L13.32 282.14 L3.96 282.55 L0 285.8 L4.77 285.59 L4.43 288.14 L0.41 289.29 L5.43 290.93 L10.8
						 290.41 L9.97 288.39 L19.31 284.92 L19.31 284.92 Z" class="st1"/>
		</g>
		<g id="shape125-249" transform="translate(349.082,-210.31)">
			<title>kz</title>
			<path d="M71.04 275.52 L65.66 272.38 L34.29 261.31 L21.92 264.1 L21.92 269.69 L0 269.69 L0 276.91 L2.93 280.58 L9.21
						 278.05 L12.95 280.58 L8.41 282.79 L8.28 286.06 L11.27 288.54 L15.08 287.49 L18.47 290.31 L17.88 282.98 L23.09
						 281.78 L29.95 286.49 L35.69 285.39 L39.89 290.93 L43.94 290.75 L47.91 287.49 L57.27 287.08 L63.26 289.86
						 L61.7 282.64 L71.04 275.52 Z" class="st1"/>
		</g>
		<g id="shape126-251" transform="translate(349.082,-205.789)">
			<title>az</title>
			<path d="M4.76 285.77 L4.73 285.76 L1.82 285.04 L0 287.66 L3.58 290.93 L7.47 290.54 L4.76 285.77 ZM4.73 285.78 L1.8 285.05
						 L4.73 285.76 L4.76 285.77 L4.73 285.78 Z" class="st1"/>
		</g>
		<g id="shape127-253" transform="translate(305.408,-217.747)">
			<title>ua</title>
			<path d="M30.81 281.22 L17.18 275.68 L11.61 276.88 L2.65 275.45 L3.21 277.01 L0 281.01 L0 283.27 L12.12 283.27 L13.29
						 285.49 L11.19 288.78 L12.97 289.52 L13.03 289.55 L13.52 288.02 L20.7 288.02 L19.11 289.67 L21.33 290.93
						 L24.31 290.69 L21.47 287.07 L28.93 285.49 L30.84 281.22 L30.81 281.22 Z" class="st1"/>
		</g>
		<g id="shape128-255" transform="translate(307.065,-231.784)">
			<title>by</title>
			<path d="M12.22 288.35 L14.22 287.07 L10.75 281.44 L6.23 281.46 L4.76 282.72 L4.75 282.71 L0 286.75 L1 289.5 L9.95 290.93
						 L15.51 289.71 L12.19 288.36 L12.22 288.35 Z" class="st1"/>
		</g>
		<g id="shape129-257" transform="translate(420.119,-212.84)">
			<title>mn</title>
			<path d="M52.54 279.22 L50.4 275.71 L39.72 275.71 L17.9 270.3 L15.5 275.71 L6.62 273.01 L0 278.05 L21.58 290.66 L46.53
						 290.93 L49.54 284.81 L57.6 283.12 L58.14 280.12 L52.54 279.22 Z" class="st1"/>
		</g>
		<g id="shape130-259" transform="translate(87.0943,-156.306)">
			<title>bz</title>
			<path d="M0 287.74 L0.64 290.93 L3.81 284.94 L0.05 287.74 L0 287.74 Z" class="st1"/>
		</g>
		<g id="shape131-261" transform="translate(79.476,-150.243)">
			<title>gt</title>
			<path d="M0.01 288.46 L4.9 290.93 L5.95 289.02 L7.59 286.06 L8.26 284.86 L7.62 281.68 L4.67 281.68 L5.17 285.52 L1.66
						 285.52 L0 288.48 L0.01 288.46 Z" class="st1"/>
		</g>
		<g id="shape132-263" transform="translate(40.0688,-152.751)">
			<title>mx</title>
			<path d="M0 252.29 L0.87 261.42 L7.1 273.23 L9.66 271.25 L4.74 260.76 L4.74 254.86 L7.64 254.86 L7.76 260.35 L17.08 282.25
						 L32.28 288.59 L36.07 287.58 L39.35 290.93 L41.01 287.98 L44.51 287.98 L44.01 284.13 L47.01 284.13 L50.91
						 281.22 L50.83 281.38 L50.97 281.27 L51.14 277.04 L46.87 276.96 L43.48 282.53 L34.13 282.53 L29.59 272.74
						 L33.36 268.01 L28.66 258.77 L22.95 258.97 L20.25 254.86 L0 252.26 L0 252.29 Z" class="st1"/>
		</g>
		<g id="shape133-265" transform="translate(287.169,-58.1186)">
			<title>na</title>
			<path d="M16.49 283.44 L16.49 269.76 L27.48 269.76 L26.16 267.92 L26.05 267.77 L0 267.77 L8.21 290.93 L16.49 290.93 L16.48
						 283.43 L16.49 283.44 Z" class="st1"/>
		</g>
		<g id="shape134-267" transform="translate(303.656,-61.8187)">
			<title>bw</title>
			<path d="M3.33 290.93 L16.93 281.81 L16.49 281.19 L10.98 273.47 L0 273.47 L0 287.08 L3.33 290.93 Z" class="st1"/>
		</g>
		<g id="shape135-269" transform="translate(324.41,-62.7564)">
			<title>mz</title>
			<path d="M1.89 290.21 L1.89 290.93 L4.17 290.88 L4.33 289.78 L9.06 286.48 L8.71 276.52 L19.82 267.41 L18.72 257.02 L7.65
						 259.32 L7.65 262.53 L10.47 264.4 L10.47 268.41 L7.79 270.74 L7.79 266.06 L5.12 263.87 L5.04 263.92 L0 267.43
						 L5.04 270.74 L5.04 275.36 L1.89 282.75 L1.89 290.21 Z" class="st1"/>
		</g>
		<g id="shape136-271" transform="translate(295.383,-44.932)">
			<title>za</title>
			<path d="M28.68 274.39 L28.68 272.34 L30.92 272.34 L30.92 264.97 L25.2 264.97 L11.61 274.08 L11.59 274.06 L8.27 270.24
						 L8.27 277.78 L0 277.78 L4.8 290.93 L20.54 290.93 L32.66 276.9 L33.21 273.12 L30.92 273.15 L30.92 275.79
						 L28.68 274.45 L28.68 274.4 L28.68 274.39 ZM21.21 280.12 L21.21 280.07 L23.49 278.61 L25.89 278.61 L25.89
						 280.98 L24.15 282.79 L21.21 282.79 L21.21 280.12 Z" class="st1"/>
		</g>
		<g id="shape137-273" transform="translate(316.595,-53.11)">
			<title>ls</title>
			<path d="M0 288.3 L0 290.93 L2.93 290.93 L4.67 289.11 L4.67 286.83 L2.28 286.83 L0 288.3 Z" class="st1"/>
		</g>
		<g id="shape138-275" transform="translate(43.3182,-215.762)">
			<title>ca</title>
			<path d="M4.67 278.26 L1.4 275.6 L0 276.8 L2.28 279.78 L4.67 279.78 L4.67 278.26 ZM4.87 262.75 L4.9 262.78 L7.26 260.23
						 L5.2 258.09 L5.14 258.09 L7.2 260.24 L4.87 262.75 ZM51.21 235.48 L63.73 231.22 L60.84 229.89 L49 232.9 L51.21
						 235.48 ZM65.34 231.99 L58.59 234.29 L62.57 235.96 L56.37 237.55 L64.07 240.55 L69.38 238.25 L75.29 239.65
						 L79.71 238.63 L75.38 236.63 L78.71 232.34 L75.38 232.34 L73.38 234.92 L72.58 232.34 L69.04 233.7 L65.34
						 231.99 ZM81.04 239.13 L82.39 240.89 L85.82 239.13 L84.8 237.51 L81.04 239.13 ZM83.64 233.26 L85.83 235.48
						 L90.53 233.91 L91.75 230.62 L83.64 233.26 ZM95.24 246.74 L91.56 249.73 L98.83 250.5 L99.6 248.62 L95.24
						 246.74 ZM92.6 231.94 L93.19 234.04 L99.6 232.34 L98.3 230.63 L92.6 231.94 ZM126.21 237.26 L111.88 231.41
						 L109.74 231.38 L104.75 235.48 L106.42 231.35 L104 231.34 L98.2 237.51 L112.3 236.74 L120.92 244.45 L115.13
						 244.35 L112.21 246.74 L105.63 246.74 L105.63 248.62 L112.3 248.62 L117.96 253.3 L119.5 252.63 L118.16 249.65
						 L122.05 251.51 L123.32 250.95 L123.32 245.15 L127.8 246.74 L130.37 245.03 L128.91 242.31 L126.33 241.36
						 L126.21 237.26 ZM108.92 227.58 L105.41 226.14 L102 229.04 L115.81 230.13 L119.41 227.58 L108.92 227.58 ZM107.51
						 221.5 L112.84 222.51 L115.9 220.55 L113.69 218.9 L107.51 221.5 ZM142.53 219.83 L149.74 215.76 L121.12 217.88
						 L121.12 219.43 L130.78 219.23 L129.42 221.03 L119.41 221.23 L120.72 223.53 L116.41 222.84 L118.11 225.04
						 L110.71 225.04 L111.81 226.14 L119.92 226.14 L121.22 227.24 L133.02 221.73 L142.53 219.83 ZM125.29 275.3
						 L125.29 275.17 L118.16 282.4 L118.29 282.4 L125.29 275.3 ZM127.56 278.55 L125.35 278.03 L125.35 277.98 L125.29
						 277.97 L125.29 275.3 L118.29 282.4 L129.95 282.4 L127.56 278.55 ZM125.35 277.99 L125.35 275.23 L125.29 275.3
						 L125.29 277.97 L125.35 277.99 ZM55.04 279.82 L60.65 282.38 L70.24 280.34 L71.45 284.6 L73.39 286.03 L76.65
						 285.8 L77.93 289.62 L82.06 289.62 L84.94 287.66 L94.2 287.66 L98.21 284.18 L101.81 284.18 L101.79 284.25
						 L101.87 284.25 L100.59 288.27 L106.9 287.18 L102.71 289.19 L103.1 290.93 L114.51 286.91 L108.95 286.65 L106.34
						 284.31 L108.92 280.32 L107.67 279.12 L99.6 282.79 L99.6 280.68 L107.32 276.98 L119.68 276.45 L128.98 271.5
						 L129.02 269.24 L122.26 268.07 L121.43 256.99 L112.57 260.48 L112.63 255.27 L108.36 251.64 L102.56 251.64
						 L86.86 274.48 L83.06 274.49 L83.13 266.97 L69.61 259.64 L83.13 249.63 L90.8 248.23 L89.2 245.86 L101 244.56
						 L105.81 239.55 L101.3 239.05 L95.1 243.16 L95.8 239.66 L92.9 239.35 L92.22 235.12 L87.2 237.35 L88.5 240.06
						 L81.79 243.25 L70.08 241.06 L63.89 243.96 L48.86 237.96 L20.19 238.55 L0.58 255.48 L2.86 258.1 L5.2 258.1
						 L7.26 260.23 L4.89 262.78 L4.87 262.76 L4.83 262.79 L2.44 273.79 L6.74 277.69 L6.74 279.79 L54.99 279.79
						 L55.04 279.82 Z" class="st1"/>
		</g>
		<g id="shape139-277" transform="translate(125.491,-5.68434E-014)">
			<title>cl</title>
			<path d="M5.71 219.56 L1.04 210.14 L0 212.53 L1.95 260.08 L7.08 264.23 L7.32 272.75 L16.22 284.26 L19.1 284.56 L12.72
						 274.77 L12.53 269.03 L8.23 261.38 L3.47 240.56 L5.73 219.56 L5.71 219.56 ZM20.51 288.1 L23.24 290.61 L31.67
						 290.93 L22.57 286.17 L20.51 288.1 Z" class="st1"/>
		</g>
		<g id="shape140-279" transform="translate(253.606,-229.458)">
			<title>uk</title>
			<path d="M2.1 283.21 L3.66 282.66 L3.66 280.66 L0 280.41 L2.1 283.21 ZM7.61 280.45 L7.65 283.52 L5.56 284.67 L7.41 287.37
						 L3.66 290.93 L8.61 290.03 L13.66 289.23 L13.99 287.37 L15.02 287.37 L15.24 285.3 L11.97 284.62 L7.88 275.22
						 L4.76 275.12 L4.76 280.18 L7.61 280.45 Z" class="st1"/>
		</g>
		<g id="shape141-281" transform="translate(249.012,-200.162)">
			<title>es</title>
			<path d="M4.2 279.41 L2.91 290.27 L11.67 290.93 L20.32 279.82 L14.2 275.9 L0.07 276.01 L0 278.71 L4.2 279.41 ZM22.32
						 285.6 L22.32 283.24 L19.61 285.6 L22.32 285.6 Z" class="st1"/>
		</g>
		<g id="shape142-283" transform="translate(277.879,-200.635)">
			<title>it</title>
			<path d="M2.45 281.24 L2.45 286.19 L4.75 286.19 L4.75 281.91 L2.45 281.24 ZM15.06 288.02 L10.25 288.02 L10.25 289.23
						 L12.05 290.45 L15.06 290.93 L15.06 288.02 ZM5.69 270.42 L3.19 270.99 L0.44 270.79 L0 272.91 L2.78 274.18
						 L6.01 274.18 L15.96 284.1 L16.47 288.32 L18.3 287.26 L18.86 284.22 L21.12 283.77 L9 273.27 L12.44 273.06
						 L10.42 269.32 L5.69 270.41 L5.69 270.42 Z" class="st1"/>
		</g>
		<g id="shape143-285" transform="translate(302.551,-210.935)">
			<title>ru</title>
			<path d="M2.99 262.4 L0 261.41 L0.01 263.4 L3.82 264.1 L2.99 262.4 ZM167.97 273.81 L171.96 273 L169.81 265.48 L169.84
						 265.48 L179.18 265.46 L188.78 274.87 L201.86 278.21 L201.86 288.75 L207.56 287.76 L210.64 283.16 L210.64
						 274.61 L201.83 264.61 L193.29 264.47 L194.76 253.93 L212.37 254.06 L214.28 248.08 L221.72 250.89 L221.74
						 248.14 L223.58 248.33 L226.78 251.4 L223.69 253.5 L223.31 259.81 L235.85 271.69 L235.85 260.21 L228.79 253.4
						 L245.54 248.1 L245.75 246.39 L237.32 244.09 L240.6 241.54 L248.14 243.09 L253.24 243.19 L249.14 238.79 L222.84
						 233.59 L182.08 232.42 L179.79 229.3 L165.57 226.97 L161.56 230.58 L150.05 230.58 L145.26 226.97 L119.23
						 226.97 L117.63 221.24 L93.61 221.24 L72.43 230.71 L77.07 236.45 L73.06 240.59 L69.45 228.77 L63.06 228.26
						 L66.13 235.24 L41.44 235.91 L18.36 245.38 L15.31 239.58 L24.08 239.92 L28.36 237.78 L11.54 232.42 L7.97
						 232.61 L14.47 247.09 L10.56 251.59 L9.6 252.48 L10.23 256.8 L10.77 260.59 L15.24 260.61 L18.73 266.23 L16.73
						 267.5 L20.06 268.85 L33.69 274.41 L31.79 278.68 L32.66 280.82 L30.46 281.42 L30.84 284.93 L38.81 287.72
						 L41.59 287.12 L48.36 290.19 L51.26 290.93 L49.44 287.72 L49.44 281.22 L46.53 277.54 L46.53 270.32 L68.46
						 270.32 L68.46 264.73 L80.82 261.94 L112.19 273 L117.57 276.15 L124.19 271.1 L133.07 273.81 L135.46 268.41
						 L157.29 273.81 L167.97 273.81 ZM214.89 275.34 L217.29 275.34 L208.83 266.67 L206.43 266.6 L213.23 275.01
						 L216.55 281.22 L219.03 281.22 L214.89 275.34 Z" class="st1"/>
		</g>
		<g id="shape144-287" transform="translate(512.934,-188.378)">
			<title>jp</title>
			<path d="M0 286.59 L2.81 290.93 L3.85 287.62 L2.91 286.22 L0 286.59 ZM1.42 282.6 L0.82 284.67 L8.86 283.48 L9.49 286.59
						 L11.31 285.81 L11.51 283.37 L16.9 281.98 L16.62 274.93 L14.17 270.65 L11.73 269.95 L13.13 276.35 L8.14 280.87
						 L1.42 282.6 ZM7.76 285.22 L4.5 285.66 L6.35 287.77 L7.76 285.22 ZM11.51 267.11 L15.16 267.05 L16.71 264.41
						 L8.6 261 L8.76 267.71 L10.37 268.66 L11.51 267.11 Z" class="st1"/>
		</g>
		<g id="shape145-289" transform="translate(464.658,-122.227)">
			<title>my</title>
			<path d="M32.81 283.47 L36.27 283.11 L36.27 279.03 L32.71 279.33 L28.43 285.09 L18.57 289.65 L20.59 290.88 L30 288.78
						 L32.81 283.47 ZM0 279.34 L1.72 284.91 L8.77 290.93 L9.32 288.79 L2.66 278.94 L0 279.34 Z" class="st1"/>
		</g>
		<g id="shape146-291" transform="translate(472.887,-35.7435)">
			<title>au</title>
			<path d="M2.49 258.37 L2.49 276.01 L0 281.98 L1.86 284.22 L32.07 277.63 L37.04 281.98 L42.26 279.74 L44.12 290.06 L59.41
						 290.93 L77.06 272.66 L78.04 262.34 L68.35 248.67 L65.25 233.76 L62.51 232.89 L62.51 241.21 L56.55 247.18
						 L47.6 239.47 L50.33 234.5 L39.52 234.75 L36.66 240.72 L30.2 237.86 L18.39 250.91 L2.49 258.37 Z"
					class="st1"/>
		</g>
		<g id="shape147-293" transform="translate(552.799,-16.7268)">
			<title>nz</title>
			<path d="M0 288.44 L4.35 290.93 L18.89 281.35 L18.89 278.87 L0 288.44 ZM23.86 275.39 L22.62 279.37 L31.69 272.91 L29.08
						 269.42 L29.08 265.45 L27.59 266.07 L27.59 271.66 L23.86 275.39 Z" class="st1"/>
		</g>
		<g id="shape148-295" transform="translate(454.757,-97.8021)">
			<title>id</title>
			<path d="M21.5 279.27 L21.5 275.17 L5.48 258.55 L0 256.45 L18.55 281.72 L21.5 279.27 ZM40.21 286.57 L33.01 283.07 L28.5
						 284.07 L23.5 282.16 L20.49 284.57 L40.51 287.97 L40.21 286.57 ZM42.71 259.04 L39.9 264.35 L30.49 266.45
						 L28.47 265.22 L28.41 265.24 L28.6 270.61 L31.65 275.96 L41.37 275.96 L46.18 269.82 L46.18 258.68 L42.71
						 259.04 ZM48.67 281.07 L50.97 280.36 L50.27 276.31 L51.63 274.8 L52.77 277.81 L55.53 278.77 L55.53 276.61
						 L53.98 273.18 L56.92 270.7 L52.22 270.9 L51.26 269.56 L53.12 267.51 L56.57 268.7 L58.28 268.55 L60.82 265.54
						 L58.58 265.49 L57.13 266.45 L52.32 265.28 L49.14 268.15 L49.37 272.7 L47.51 275.16 L48.67 281.07 ZM47.61
						 289.82 L48.52 290.93 L50.67 290.93 L49.93 289.32 L47.61 289.82 ZM53.02 286.57 L49.93 286.57 L50.52 288.57
						 L53.48 288.57 L54.72 287.56 L53.02 286.57 ZM58.97 287.17 L55.87 290.63 L58.22 290.93 L60.32 289.04 L58.97
						 287.17 ZM67.13 262.5 L65.4 264.21 L64.73 268.49 L67.13 269.08 L66.59 265.28 L67.99 263.54 L67.13 262.5 ZM65.93
						 274.61 L65.4 276.5 L70.6 275.96 L70.6 274.61 L65.93 274.61 ZM78.92 273.87 L78.23 270.17 L72.53 270.97 L78.92
						 273.87 ZM92.1 274.91 L86.56 272.02 L81.4 276.21 L75.95 274.06 L75.34 277.06 L78.55 276.96 L86.5 280.27 L87.93
						 284.33 L85.28 285.96 L92.1 288.32 L92.1 274.91 Z" class="st1"/>
		</g>
		<g id="shape149-297" transform="translate(546.845,-96.7553)">
			<title>pg</title>
			<path d="M0 273.85 L0 287.26 L2.47 288.14 L7.21 283.79 L13.35 289.78 L18.95 290.93 L12.02 283.99 L12.35 280.32 L0 273.86
						 L0 273.85 ZM15.47 280.95 L17.97 282.45 L22.28 280.02 L22.28 277.52 L15.47 280.95 ZM18.95 273.91 L23.98 277.52
						 L26 276.83 L20.89 273.79 L18.95 273.91 Z" class="st1"/>
		</g>
		<g id="shape150-299" transform="translate(324.061,-60.074)">
			<title>sz</title>
			<path d="M0 287.53 L2.24 287.53 L2.24 287.48 L0 287.48 L0 287.53 ZM0 289.53 L0.45 289.8 L0 289.54 L0 289.58 L2.24 290.93
						 L2.24 287.53 L0 287.53 L0 289.53 Z" class="st1"/>
		</g>
		<g id="shape151-301" transform="translate(263.217,-133.233)">
			<title>tg</title>
			<path d="M4.31 290.18 L2.54 279.5 L0 280.44 L1.72 290.93 L4.31 290.18 Z" class="st1"/>
		</g>
		<g id="shape152-303" transform="translate(313.869,-199.835)">
			<title>tr</title>
			<path d="M32.76 281.7 L27.51 280.36 L27.46 280.35 L6.03 281.05 L4.19 283.25 L0.05 283.21 L3.45 290.06 L19.1 290.93 L30
						 288.7 L34.48 287.79 L34.48 285.39 L32.76 281.7 ZM0 279.13 L0.04 281.7 L3.85 281.7 L2.31 278.38 L0 279.13
						 Z" class="st1"/>
		</g>
		<g id="shape153-305" transform="translate(280.409,-239.162)">
			<title>dk</title>
			<path d="M0.68 290.93 L3.27 290.93 L3.13 290.37 L3.98 285.62 L1.65 285.58 L0 289.31 L0.68 290.93 ZM7.58 289.26 L6.13
						 287.82 L4.83 288.35 L4.43 290.4 L6.85 290.37 L7.58 289.26 Z" class="st1"/>
		</g>
		<g id="shape154-307" transform="translate(0,-175.657)">
			<title>us</title>
			<path d="M124.57 251.68 L122.37 251.68 L125.44 249.58 L119.39 249.58 L116.77 251.61 L114.09 251.88 L114.63 247.28 L112.57
						 247.28 L110.15 248.88 L105.68 255.49 L103.04 255.49 L108.12 247.28 L114.09 246 L113.76 244.88 L109.82 244.75
						 L107.96 243.61 L105.62 244.75 L102.88 244.75 L104 242.32 L98.35 239.74 L50.12 239.74 L34.23 256.49 L34.23
						 269.37 L40.03 275.17 L40.07 275.17 L60.31 277.78 L63.02 281.88 L68.72 281.68 L73.43 290.93 L82.2 279.91
						 L103.06 279.98 L104.44 290.4 L107.74 290.49 L107.83 277.52 L141.59 248.66 L143.88 248.26 L143.91 248.18
						 L143.82 248.19 L145.1 244.15 L141.59 244.15 L137.58 247.61 L128.31 247.61 L125.44 249.58 L127.65 249.58
						 L124.57 251.68 ZM119.94 253.35 L116.83 255.48 L113.04 255.48 L116.17 253.35 L119.94 253.35 ZM48.19 222.65
						 L50.52 220.14 L48.45 218 L46.18 217.99 L46.12 218 L43.84 215.39 L63.46 198.45 L58.98 196.58 L35.23 196.71
						 L25.62 200.58 L25.62 204.85 L14.81 204.72 L12.77 207.58 L21.88 207.25 L10.14 211.65 L4.47 219.35 L9.34 219.26
						 L0 225.4 L3.42 225.67 L21.3 217.13 L41.94 216.41 L48.19 222.65 Z" class="st1"/>
		</g>
		<g id="shape155-309" transform="translate(310.213,-129.031)">
			<title>ss</title>
			<path d="M21.07 277.86 L17.73 273.2 L16.09 273.2 L14.46 277.3 L3.82 276.48 L0 278.18 L9.13 288.69 L15.25 290.93 L22.38
						 289.93 L26.14 289.39 L20.06 283.03 L19.24 282.18 L21.07 277.86 Z" class="st1"/>
		</g>
		<g id="shape156-311" transform="translate(307.894,-141.774)">
			<title>sd</title>
			<path d="M23.39 290.61 L27.51 280.87 L31.99 270.3 L26.83 261.43 L22.98 263.62 L3.85 263.62 L3.55 270.36 L3.23 277.61
						 L0 280.79 L0 288.26 L2.32 290.93 L6.14 289.23 L16.77 290.04 L18.41 285.96 L20.04 285.96 L23.39 290.61 Z"
					class="st1"/>
		</g>
		<g id="shape157-313" transform="translate(303.053,-208.224)">
			<title>mk</title>
			<path d="M2.28 286.59 L0 287.04 L0.3 290.93 L5.85 289.12 L4.57 286.14 L2.28 286.59 Z" class="st1"/>
		</g>
		<g id="shape158-315" transform="translate(298.204,-212.12)">
			<title>cs</title>
			<path d="M7.14 290.48 L9.42 290.03 L8.77 288.51 L8.25 287.29 L4.85 281.64 L1.63 282.2 L1.67 282.46 L1.9 283.69 L2.65
						 287.86 L3.07 288.46 L3.27 288.73 L3.07 288.46 L2.65 287.86 L0 289.89 L1.65 290.3 L3.64 289.24 L4.33 290.2
						 L4.85 290.93 L7.14 290.48 Z" class="st1"/>
		</g>
		<g id="shape159-317" transform="translate(288.31,-218.495)">
			<title>si</title>
			<path d="M5.44 287.18 L0 287.18 L2.01 290.93 L2.52 290.9 L5.13 289.53 L6.31 287.5 L5.44 287.19 L5.44 287.18 Z"
					class="st1"/>
		</g>
		<g id="shape160-319" transform="translate(258.542,-211.248)">
			<title>fr</title>
			<path d="M22.94 288.46 L22.94 290.49 L24.08 290.93 L24.59 288.46 L22.94 288.46 ZM20.26 279.03 L20.88 275.99 L21.19 274.51
						 L18.84 273.28 L17.61 272.64 L13.05 270.25 L3.5 275.97 L0 275.97 L0 277.44 L4.13 279.67 L4.67 286.99 L10.79
						 290.9 L12.68 288.46 L21.63 288.52 L21.89 284.78 L22.12 284.78 L19.34 283.51 L19.77 281.4 L19.95 280.52 L20.26
						 279.03 Z" class="st1"/>
		</g>
		<g id="shape161-321" transform="translate(497.995,-132.281)">
			<title>ph</title>
			<path d="M14.22 276.74 L16.23 279.34 L18.44 279.34 L16.33 275.96 L14.22 276.74 ZM14.22 278.93 L12.85 279.71 L14.44 282.11
						 L15.35 280.9 L14.22 278.93 ZM15.22 288.15 L15.22 290.93 L18.12 290.06 L17.14 288.27 L19.47 287.67 L17.49
						 281.47 L16.02 285.29 L11.22 285.29 L15.22 288.15 ZM11.81 280.93 L10.64 282.28 L11.81 283.73 L12.84 282.49
						 L11.81 280.93 ZM8.75 279.27 L10.22 280.27 L11.82 277.84 L9.68 277.58 L8.75 279.27 ZM6.69 274.32 L6.41 275.96
						 L8.08 277.59 L8.75 276.34 L6.69 274.32 ZM13.89 272.66 L9.48 272.2 L7.88 270.2 L9.48 266.52 L7.89 262.99
						 L4.98 262.93 L4.27 269.15 L8.39 274.11 L13.21 274.72 L13.89 272.66 ZM0 283.69 L1.95 284.08 L5.42 281.19
						 L5.34 278.83 L0 283.69 Z" class="st1"/>
		</g>
		<g id="shape162-323" transform="translate(402.992,-159.323)">
			<title>cn</title>
			<path d="M69.66 225.7 L75.26 226.6 L74.73 229.6 L66.66 231.29 L63.66 237.41 L38.7 237.14 L17.13 224.54 L7.79 231.65 L9.35
						 238.88 L0 242.35 L0.83 244.37 L2.68 248.89 L3.61 249.31 L9.53 252.01 L12.61 253.42 L13.01 261.43 L16.54
						 262.65 L21.29 264.29 L33.21 268.41 L34.41 268.83 L39.04 270.43 L43.83 266.03 L46.2 267.05 L50.91 269.08
						 L54.05 270.43 L52.64 274.23 L58.05 283.24 L60.77 281.86 L67.52 278.45 L73.71 283.74 L76.34 282.25 L76.43
						 284.8 L91.94 279.25 L97.01 267.91 L87.97 253.02 L92.61 247.94 L87.27 247.94 L85.55 249.06 L82.19 243.55
						 L86.48 239.81 L89.41 245.41 L93.52 242.57 L101.41 237.14 L101.41 226.59 L88.34 223.26 L78.73 213.85 L69.4
						 213.85 L71.52 221.39 L67.52 222.2 L69.66 225.7 ZM79.46 286.75 L76.26 287.46 L76.26 289.34 L77.56 290.93
						 L79.46 288.55 L79.46 286.75 Z" class="st1"/>
		</g>
		<g id="shape163-325" transform="translate(128.959,-6.12808)">
			<title>ar</title>
			<path d="M21.36 235.88 L21.36 231.48 L11.26 224.65 L10.69 225.69 L2.26 225.69 L0 246.69 L4.76 267.51 L9.06 275.17 L9.26
						 280.91 L15.64 290.69 L17.97 290.93 L16.76 265.91 L30.31 260.04 L24.17 251.49 L24.17 242.08 L30.15 235.94
						 L29.99 233.64 L29.97 233.65 L26.3 235.88 L21.36 235.88 Z" class="st1"/>
		</g>
	</g>
</svg>
