<?xml version="1.0" encoding="UTF-8" standalone="no"?>
<!DOCTYPE svg PUBLIC "-//W3C//DTD SVG 1.1//EN" "http://www.w3.org/Graphics/SVG/1.1/DTD/svg11.dtd">
<!-- Generated by Microsoft Visio, SVG Export CallTariff.svg Call Tariff -->
<svg xmlns="http://www.w3.org/2000/svg" xmlns:xlink="http://www.w3.org/1999/xlink" xmlns:ev="http://www.w3.org/2001/xml-events"
		xmlns:v="http://schemas.microsoft.com/visio/2003/SVGExtensions/" width="19.685in" height="19.685in"
		viewBox="0 0 1417.32 1417.32" xml:space="preserve" color-interpolation-filters="sRGB" class="st3">
	<v:documentProperties v:langID="1033" v:metric="true" v:viewMarkup="false">
		<v:userDefs>
			<v:ud v:nameU="msvNoAutoConnect" v:val="VT0(1):26"/>
		</v:userDefs>
	</v:documentProperties>

	<style type="text/css">
	<![CDATA[
		.st1 {fill:#a0968c}
		.st2 {stroke:#ff0000;stroke-linecap:butt;stroke-width:100}
		.st3 {fill:none;fill-rule:evenodd;font-size:12px;overflow:visible;stroke-linecap:square;stroke-miterlimit:3}
	]]>
	</style>

	<g v:mID="12" v:index="8" v:groupContext="foregroundPage">
		<title>Call Tariff</title>
		<v:pageProperties v:drawingScale="0.0393701" v:pageScale="0.0393701" v:drawingUnits="24" v:shadowOffsetX="9"
				v:shadowOffsetY="-9"/>
		<g id="shape4-1" v:mID="4" v:groupContext="shape" transform="translate(49.3827,0)">
			<title>Call Tariff</title>
			<path d="M671.59 751.97 C839.9 989.36 899.89 978.44 925.33 960.23 L932.62 955.01 L1181.21 1302.31 L1172.14 1308.8 C1126.95
						 1341.15 848.36 1417.32 473.57 893.71 C98.77 370.09 260.71 130.94 305.9 98.6 L314.97 92.1 L563.56 439.4 L556.27
						 444.62 C530.83 462.83 503.05 515 671.59 751.97 ZM590.96 419.79 L677.79 357.64 C702.52 339.94 708 305.88
						 690.56 281.5 L505.26 22.63 C487.81 -1.74 453.93 -7.36 429.2 10.34 L342.37 72.49 L590.96 419.79 ZM960.15
						 935.58 L1046.98 873.43 C1071.71 855.73 1105.46 861.16 1123.04 885.71 L1308.33 1144.59 C1325.91 1169.14 1320.3
						 1203.02 1295.56 1220.73 L1208.74 1282.87 L960.15 935.58 Z" class="st1"/>
			<path d="M156.51 1303.94 A51.0236 51.0236 -180 1 0 54.46 1303.94 A51.0236 51.0236 -180 1 0 156.51 1303.94" class="st2"/>
		</g>
	</g>
</svg>
