<?xml version="1.0" encoding="UTF-8" standalone="no"?>
<!DOCTYPE svg PUBLIC "-//W3C//DTD SVG 1.1//EN" "http://www.w3.org/Graphics/SVG/1.1/DTD/svg11.dtd">
<!-- Generated by Microsoft Visio, SVG Export Constraint.svg Constraint -->
<svg xmlns="http://www.w3.org/2000/svg" xmlns:xlink="http://www.w3.org/1999/xlink" xmlns:ev="http://www.w3.org/2001/xml-events"
		xmlns:v="http://schemas.microsoft.com/visio/2003/SVGExtensions/" width="19.685in" height="19.685in"
		viewBox="0 0 1417.32 1417.32" xml:space="preserve" color-interpolation-filters="sRGB" class="st2">
	<v:documentProperties v:langID="1033" v:metric="true" v:viewMarkup="false">
		<v:userDefs>
			<v:ud v:nameU="msvNoAutoConnect" v:val="VT0(1):26"/>
		</v:userDefs>
	</v:documentProperties>

	<style type="text/css">
	<![CDATA[
		.st1 {fill:#a0968c;stroke:none;stroke-linecap:butt;stroke-width:6}
		.st2 {fill:none;fill-rule:evenodd;font-size:12px;overflow:visible;stroke-linecap:square;stroke-miterlimit:3}
	]]>
	</style>

	<g v:mID="49" v:index="27" v:groupContext="foregroundPage">
		<title>Constraint</title>
		<v:pageProperties v:drawingScale="0.0393701" v:pageScale="0.0393701" v:drawingUnits="24" v:shadowOffsetX="9"
				v:shadowOffsetY="-9"/>
		<g id="shape2-1" v:mID="2" v:groupContext="shape" transform="translate(0,-515.986)">
			<title>Constraint</title>
			<path d="M0 1031.97 L0 1118.05 L148.29 1118.05 C184.46 1118.05 212.33 1145.6 212.85 1181.61 L176.2 1181.61 A43.0452 43.0452
						 -180 1 0 176.2 1267.69 L212.85 1267.69 C212.33 1303.7 184.46 1331.24 148.29 1331.24 L0 1331.24 L0 1417.32
						 L148.29 1417.32 C230.66 1417.32 298.38 1349.94 298.93 1267.69 L455.29 1267.69 C455.84 1349.94 523.56 1417.32
						 605.93 1417.32 L803.99 1417.32 C886.37 1417.32 954.08 1349.94 954.63 1267.69 L1128.48 1267.69 C1129.03 1349.94
						 1196.75 1417.32 1279.12 1417.32 L1417.32 1417.32 L1417.32 1331.24 L1279.12 1331.24 C1242.95 1331.24 1215.08
						 1303.7 1214.56 1267.69 L1248.86 1267.69 A43.0452 43.0452 -180 1 0 1248.86 1181.61 L1214.56 1181.61 C1215.08
						 1145.6 1242.95 1118.05 1279.12 1118.05 L1417.32 1118.05 L1417.32 1031.97 L1279.12 1031.97 C1196.75 1031.97
						 1129.03 1099.35 1128.48 1181.61 L954.63 1181.61 C954.08 1099.35 886.37 1031.97 803.99 1031.97 L605.93 1031.97
						 C523.56 1031.97 455.84 1099.35 455.29 1181.61 L298.93 1181.61 C298.38 1099.35 230.66 1031.97 148.29 1031.97
						 L0 1031.97 ZM605.93 1118.05 L803.99 1118.05 C840.16 1118.05 868.03 1145.6 868.55 1181.61 L837.95 1181.61
						 A43.0452 43.0452 -180 1 0 837.95 1267.69 L868.55 1267.69 C868.03 1303.7 840.16 1331.24 803.99 1331.24 L605.93
						 1331.24 C569.76 1331.24 541.89 1303.7 541.37 1267.69 L586.77 1267.69 A43.0452 43.0452 -180 1 0 586.77 1181.61
						 L541.37 1181.61 C541.89 1145.6 569.76 1118.05 605.93 1118.05 Z" class="st1"/>
		</g>
	</g>
</svg>
