<?xml version="1.0" encoding="UTF-8" standalone="no"?>
<!DOCTYPE svg PUBLIC "-//W3C//DTD SVG 1.1//EN" "http://www.w3.org/Graphics/SVG/1.1/DTD/svg11.dtd">
<!-- Generated by Microsoft Visio, SVG Export Migration.svg Migration -->
<svg xmlns="http://www.w3.org/2000/svg" xmlns:xlink="http://www.w3.org/1999/xlink" xmlns:ev="http://www.w3.org/2001/xml-events"
		xmlns:v="http://schemas.microsoft.com/visio/2003/SVGExtensions/" width="19.685in" height="19.685in"
		viewBox="0 0 1417.32 1417.32" xml:space="preserve" color-interpolation-filters="sRGB" class="st2">
	<v:documentProperties v:langID="1033" v:metric="true" v:viewMarkup="false">
		<v:userDefs>
			<v:ud v:nameU="msvNoAutoConnect" v:val="VT0(1):26"/>
		</v:userDefs>
	</v:documentProperties>

	<style type="text/css">
	<![CDATA[
		.st1 {fill:#a0968c;stroke:none;stroke-linecap:butt;stroke-width:5.973}
		.st2 {fill:none;fill-rule:evenodd;font-size:12px;overflow:visible;stroke-linecap:square;stroke-miterlimit:3}
	]]>
	</style>

	<g v:mID="43" v:index="22" v:groupContext="foregroundPage">
		<title>Migration</title>
		<v:pageProperties v:drawingScale="0.0393701" v:pageScale="0.0393701" v:drawingUnits="24" v:shadowOffsetX="9"
				v:shadowOffsetY="-9"/>
		<g id="shape2-1" v:mID="2" v:groupContext="shape" transform="translate(0,-265.497)">
			<title>Migration</title>
			<path d="M0 530.99 L0 582.04 L0 1365.87 L0 1417.32 L51.05 1417.32 L551.49 1417.32 L602.95 1417.32 L602.95 1365.87 L602.95
						 1126.7 L500.44 1126.7 L500.44 1314.82 L102.5 1314.82 L102.5 633.49 L500.44 633.49 L500.44 818 L602.95 818
						 L602.95 582.04 L602.95 530.99 L551.49 530.99 L51.05 530.99 L0 530.99 ZM814.78 530.99 L814.78 582.04 L814.78
						 683.34 L916.88 683.34 L916.88 633.49 L1315.22 633.49 L1315.22 1314.82 L916.88 1314.82 L916.88 1269 L814.78
						 1269 L814.78 1365.87 L814.78 1417.32 L865.83 1417.32 L1366.27 1417.32 L1417.32 1417.32 L1417.32 1365.87
						 L1417.32 582.04 L1417.32 530.99 L1366.27 530.99 L865.83 530.99 L814.78 530.99 ZM863.02 759.71 A51.2231 51.2231
						 -180 0 0 835.68 852.16 L924.52 917.68 L420.05 917.68 A51.2249 51.2249 -180 0 0 414.83 917.68 A51.3169 51.3169
						 -180 1 0 420.05 1020.18 L927.33 1020.18 L838.09 1094.95 A51.2231 51.2231 -180 1 0 904.02 1173.33 L1106.61
						 1003.3 A51.2231 51.2231 -180 0 0 1104.19 922.91 L896.78 769.76 A51.2231 51.2231 -180 0 0 863.02 759.71 Z"
					class="st1"/>
		</g>
	</g>
</svg>
