<?xml version="1.0" encoding="UTF-8" standalone="no"?>
<!DOCTYPE svg PUBLIC "-//W3C//DTD SVG 1.1//EN" "http://www.w3.org/Graphics/SVG/1.1/DTD/svg11.dtd">
<!-- Generated by Microsoft Visio, SVG Export Add-on.svg Add-on -->
<svg xmlns="http://www.w3.org/2000/svg" xmlns:xlink="http://www.w3.org/1999/xlink" xmlns:ev="http://www.w3.org/2001/xml-events"
		xmlns:v="http://schemas.microsoft.com/visio/2003/SVGExtensions/" width="19.685in" height="19.685in"
		viewBox="0 0 1417.32 1417.32" xml:space="preserve" color-interpolation-filters="sRGB" class="st2">
	<v:documentProperties v:langID="1033" v:metric="true" v:viewMarkup="false">
		<v:userDefs>
			<v:ud v:nameU="msvNoAutoConnect" v:val="VT0(1):26"/>
		</v:userDefs>
	</v:documentProperties>

	<style type="text/css">
	<![CDATA[
		.st1 {fill:#a0968c}
		.st2 {fill:none;fill-rule:evenodd;font-size:12px;overflow:visible;stroke-linecap:square;stroke-miterlimit:3}
	]]>
	</style>

	<g v:mID="21" v:index="5" v:groupContext="foregroundPage">
		<title>Add-on</title>
		<v:pageProperties v:drawingScale="0.0393701" v:pageScale="0.0393701" v:drawingUnits="24" v:shadowOffsetX="9"
				v:shadowOffsetY="-9"/>
		<g id="shape3-1" v:mID="3" v:groupContext="shape" transform="translate(0,-241.964)">
			<title>Add-on</title>
			<path d="M0.69 965.14 C2.56 1015.93 19.58 1072.91 56.04 1103.3 C150.23 1147.51 106.74 1040.12 171.95 1027.49 C237.16
						 1014.85 240.77 1090.67 240.77 1090.67 L240.77 1417.32 C240.77 1417.32 564.71 1416.91 564.71 1416.91 C564.71
						 1416.91 640.52 1413.3 627.89 1348.09 C617.62 1295.1 544.75 1313.89 541.52 1272.27 C540.78 1262.66 543.78
						 1249.83 552.07 1232.17 C582.46 1195.71 639.44 1178.69 690.23 1176.82 C708.98 1176.13 726.61 1177.77 742.03
						 1181 C742.71 1181.08 743.43 1181.22 744.11 1181.31 C787.94 1186.97 832.4 1203.91 858.05 1234.67 C902.25
						 1328.87 794.86 1285.38 782.23 1350.59 C773.03 1398.11 810.56 1412.78 831.73 1417.32 L1175.61 1417.32 L1175.61
						 1077.82 C1179.68 1057.1 1193.96 1016.86 1242.86 1026.34 C1308.08 1038.97 1264.58 1146.26 1358.78 1102.05
						 C1389.55 1076.4 1406.48 1031.94 1412.14 988.12 C1412.23 987.43 1412.37 986.71 1412.46 986.03 C1415.69 970.61
						 1417.32 952.98 1416.63 934.23 C1414.76 883.44 1397.74 826.46 1361.29 796.07 C1267.09 751.86 1310.58 859.25
						 1245.37 871.89 C1180.16 884.52 1176.55 808.71 1176.55 808.71 L1175.61 483.93 C1175.61 483.93 847.29 486.02
						 847.29 486.02 C847.29 486.02 771.48 489.62 784.11 554.84 C796.74 620.05 904.13 576.56 859.93 670.75 C829.53
						 707.21 772.56 724.23 721.77 726.1 C703.02 726.79 685.38 725.15 669.97 721.92 C669.29 721.84 668.57 721.7
						 667.88 721.61 C624.06 715.95 579.6 699.01 553.95 668.25 C545.66 650.58 542.66 637.75 543.4 628.15 C546.63
						 586.52 619.4 605.32 629.66 552.33 C641.45 491.48 578.4 484.62 569.62 483.93 L240.77 483.93 L240.77 825.31
						 C235.82 846.72 220.75 882 174.46 873.03 C109.25 860.4 152.74 753.11 58.54 797.32 C27.78 822.97 10.84 867.43
						 5.18 911.26 C5.09 911.94 4.95 912.66 4.87 913.34 C1.64 928.76 0 946.39 0.69 965.14 L0.69 965.14 Z"
					class="st1"/>
		</g>
	</g>
</svg>
