<?xml version="1.0" encoding="UTF-8" standalone="no"?>
<!DOCTYPE svg PUBLIC "-//W3C//DTD SVG 1.1//EN" "http://www.w3.org/Graphics/SVG/1.1/DTD/svg11.dtd">
<!-- Generated by Microsoft Visio, SVG Export MessageFreebees.svg Message Freebees -->
<svg xmlns="http://www.w3.org/2000/svg" xmlns:xlink="http://www.w3.org/1999/xlink" xmlns:ev="http://www.w3.org/2001/xml-events"
		xmlns:v="http://schemas.microsoft.com/visio/2003/SVGExtensions/" width="19.685in" height="19.685in"
		viewBox="0 0 1417.32 1417.32" xml:space="preserve" color-interpolation-filters="sRGB" class="st2">
	<v:documentProperties v:langID="1033" v:metric="true" v:viewMarkup="false">
		<v:userDefs>
			<v:ud v:nameU="msvNoAutoConnect" v:val="VT0(1):26"/>
		</v:userDefs>
	</v:documentProperties>

	<style type="text/css">
	<![CDATA[
		.st1 {fill:#a0968c;stroke:none;stroke-linecap:butt;stroke-width:1.5681}
		.st2 {fill:none;fill-rule:evenodd;font-size:12px;overflow:visible;stroke-linecap:square;stroke-miterlimit:3}
	]]>
	</style>

	<g v:mID="13" v:index="9" v:groupContext="foregroundPage">
		<title>Message Freebees</title>
		<v:pageProperties v:drawingScale="0.0393701" v:pageScale="0.0393701" v:drawingUnits="24" v:shadowOffsetX="9"
				v:shadowOffsetY="-9"/>
		<g id="shape2-1" v:mID="2" v:groupContext="shape" transform="translate(0,-269.584)">
			<title>Message Freebees</title>
			<path d="M492.38 988.6 C561.82 1045.2 635.17 1074.91 709.43 1074.5 C784.11 1074.08 857.7 1044.36 925.71 988.6 L1378.98
						 1417.32 L38.35 1417.32 L492.38 988.6 ZM0 571.38 L451.73 955.62 L0 1383.58 L0 571.38 ZM1417.32 570.61 L1417.32
						 1383.58 L964.82 955.62 L1417.32 570.61 ZM41.42 539.17 L1374.37 539.17 L898.86 944.12 C835.88 997.68 772.64
						 1023.53 709.43 1023.88 C646.22 1024.23 581.66 999.16 516.92 944.12 L514.62 942.58 L41.42 539.17 L41.42 539.17
						 Z" class="st1"/>
		</g>
	</g>
</svg>
