<?xml version="1.0" encoding="UTF-8" standalone="no"?>
<!DOCTYPE svg PUBLIC "-//W3C//DTD SVG 1.1//EN" "http://www.w3.org/Graphics/SVG/1.1/DTD/svg11.dtd">
<!-- Generated by Microsoft Visio, SVG Export Rewards.svg Rewards -->
<svg xmlns="http://www.w3.org/2000/svg" xmlns:xlink="http://www.w3.org/1999/xlink" xmlns:ev="http://www.w3.org/2001/xml-events"
		xmlns:v="http://schemas.microsoft.com/visio/2003/SVGExtensions/" width="19.685in" height="19.685in"
		viewBox="0 0 1417.32 1417.32" xml:space="preserve" color-interpolation-filters="sRGB" class="st2">
	<v:documentProperties v:langID="1033" v:metric="true" v:viewMarkup="false">
		<v:userDefs>
			<v:ud v:nameU="msvNoAutoConnect" v:val="VT0(1):26"/>
		</v:userDefs>
	</v:documentProperties>

	<style type="text/css">
	<![CDATA[
		.st1 {fill:#a0968c;stroke:none;stroke-linecap:butt;stroke-width:0.8}
		.st2 {fill:none;fill-rule:evenodd;font-size:12px;overflow:visible;stroke-linecap:square;stroke-miterlimit:3}
	]]>
	</style>

	<g v:mID="54" v:index="14" v:groupContext="foregroundPage">
		<title>Rewards</title>
		<v:pageProperties v:drawingScale="0.0393701" v:pageScale="0.0393701" v:drawingUnits="24" v:shadowOffsetX="9"
				v:shadowOffsetY="-9"/>
		<g id="shape2-1" v:mID="2" v:groupContext="shape" transform="translate(36.0653,4.54747E-013)">
			<title>Rewards</title>
			<path d="M251.33 -0 C251.98 29.12 252.56 59.03 253.2 89.57 C168.53 74.98 99.68 65.9 11.87 53.25 C0 369.03 40.79 687.87
						 342.99 693.07 C390.24 797.11 463.22 877.91 576.71 915.07 C564.55 1261.31 358.73 1087.13 312.72 1417.32 L672.6
						 1417.32 L1032.48 1417.32 C986.47 1087.13 780.64 1261.31 768.48 915.07 C881.97 877.91 954.95 797.11 1002.2
						 693.07 C1304.4 687.87 1345.19 369.03 1333.33 53.25 C1245.51 65.9 1176.66 74.98 1092 89.57 C1092.63 59.03
						 1093.22 29.12 1093.86 -0 L672.6 -0 L251.33 -0 ZM120.55 165.99 C137.67 169.81 243.56 187.74 255.82 188.96
						 C260.39 320.65 270.73 457.05 302.39 576.82 C86.65 567.75 103.05 162.23 120.55 165.99 ZM1224.64 165.99 C1242.15
						 162.23 1258.55 567.75 1042.81 576.82 C1074.46 457.05 1084.8 320.65 1089.38 188.96 C1101.64 187.74 1207.53
						 169.81 1224.64 165.99 Z" class="st1"/>
		</g>
	</g>
</svg>
