<?xml version="1.0" encoding="UTF-8" standalone="no"?>
<!DOCTYPE svg PUBLIC "-//W3C//DTD SVG 1.1//EN" "http://www.w3.org/Graphics/SVG/1.1/DTD/svg11.dtd">
<!-- Generated by Microsoft Visio, SVG Export Stakeholder.svg Stakeholder -->
<svg xmlns="http://www.w3.org/2000/svg" xmlns:xlink="http://www.w3.org/1999/xlink" xmlns:ev="http://www.w3.org/2001/xml-events"
		xmlns:v="http://schemas.microsoft.com/visio/2003/SVGExtensions/" width="19.685in" height="19.685in"
		viewBox="0 0 1417.32 1417.32" xml:space="preserve" color-interpolation-filters="sRGB" class="st2">
	<v:documentProperties v:langID="1033" v:metric="true" v:viewMarkup="false">
		<v:userDefs>
			<v:ud v:nameU="msvNoAutoConnect" v:val="VT0(1):26"/>
		</v:userDefs>
	</v:documentProperties>

	<style type="text/css">
	<![CDATA[
		.st1 {fill:#a0968c;stroke:none;stroke-linecap:butt;stroke-width:0.75}
		.st2 {fill:none;fill-rule:evenodd;font-size:12px;overflow:visible;stroke-linecap:square;stroke-miterlimit:3}
	]]>
	</style>

	<g v:mID="8" v:index="29" v:groupContext="foregroundPage">
		<title>Stakeholder</title>
		<v:pageProperties v:drawingScale="0.0393701" v:pageScale="0.0393701" v:drawingUnits="24" v:shadowOffsetX="9"
				v:shadowOffsetY="-9"/>
		<g id="shape2-1" v:mID="2" v:groupContext="shape" transform="translate(82.1323,4.54747E-013)">
			<title>Stakeholder</title>
			<path d="M626.61 0 C440.78 0 289.96 146.55 289.96 327.42 C289.96 508.29 440.78 780.7 626.61 780.7 C812.43 780.7 963.02
						 508.29 963.02 327.42 C963.02 146.55 812.43 0 626.61 0 ZM995.9 747.1 C850.83 752.15 757.84 849.07 622.35
						 849.07 C455.59 849.07 409.44 717.62 139.02 760.59 C0 782.68 0.15 1417.32 0.15 1417.32 L1253.06 1417.32 C1253.06
						 1417.32 1224.36 792.8 1105.91 760.59 C1065.72 749.66 1029.38 745.94 995.9 747.1 Z" class="st1"/>
		</g>
	</g>
</svg>
